<svg width="555" height="605" viewBox="0 0 555 605" fill="none" xmlns="http://www.w3.org/2000/svg">
<g clip-path="url(#clip0_4_1819)">
<path d="M238.5 535.534C368.07 535.534 473.107 529.401 473.107 521.837C473.107 514.272 368.07 508.14 238.5 508.14C108.93 508.14 3.89307 514.272 3.89307 521.837C3.89307 529.401 108.93 535.534 238.5 535.534Z" fill="#F5F5F5"/>
<path d="M224.464 413.251H-9.17488C-11.0063 413.248 -12.7618 412.519 -14.0568 411.224C-15.3518 409.929 -16.0808 408.174 -16.084 406.342V77.912C-16.0649 76.091 -15.3289 74.351 -14.0356 73.069C-12.7423 71.7871 -10.9959 71.0664 -9.17488 71.0634H224.464C226.294 71.0666 228.049 71.7959 229.342 73.0913C230.635 74.3866 231.361 76.1421 231.361 77.9725V406.342C231.361 408.173 230.635 409.928 229.342 411.223C228.049 412.519 226.294 413.248 224.464 413.251ZM-9.17488 71.3054C-10.9261 71.3086 -12.6046 72.0056 -13.8429 73.2439C-15.0812 74.4822 -15.7783 76.1608 -15.7815 77.912V406.342C-15.7783 408.093 -15.0812 409.772 -13.8429 411.01C-12.6046 412.249 -10.9261 412.946 -9.17488 412.949H224.464C226.214 412.946 227.891 412.248 229.128 411.01C230.364 409.771 231.059 408.092 231.059 406.342V77.912C231.059 76.1619 230.364 74.4833 229.128 73.2447C227.891 72.006 226.214 71.3086 224.464 71.3054H-9.17488Z" fill="#E6E6E6"/>
<path d="M486.187 413.251H252.536C250.706 413.248 248.951 412.519 247.658 411.223C246.365 409.928 245.639 408.173 245.639 406.342V77.912C245.655 76.0921 246.388 74.3521 247.68 73.0698C248.971 71.7875 250.716 71.0665 252.536 71.0634H486.187C488.007 71.0665 489.752 71.7875 491.043 73.0698C492.335 74.3521 493.068 76.0921 493.084 77.912V406.342C493.084 408.173 492.358 409.928 491.065 411.223C489.772 412.519 488.017 413.248 486.187 413.251ZM252.536 71.3054C250.786 71.3086 249.109 72.006 247.872 73.2447C246.636 74.4833 245.942 76.1619 245.942 77.912V406.342C245.942 408.092 246.636 409.771 247.872 411.01C249.109 412.248 250.786 412.946 252.536 412.949H486.187C487.939 412.946 489.619 412.249 490.859 411.011C492.1 409.773 492.799 408.095 492.806 406.342V77.912C492.799 76.1596 492.1 74.4811 490.859 73.2432C489.619 72.0052 487.939 71.3085 486.187 71.3054H252.536Z" fill="#E6E6E6"/>
<path d="M39.9874 474.574H-9.87671V474.877H39.9874V474.574Z" fill="#E0E0E0"/>
<path d="M141.627 472.154H91.6181V472.457H141.627V472.154Z" fill="#E0E0E0"/>
<path d="M206.701 472.154H194.601V472.457H206.701V472.154Z" fill="#E0E0E0"/>
<path d="M85.7617 482.488H29.7992V482.79H85.7617V482.488Z" fill="#E0E0E0"/>
<path d="M279.325 474.417H253.189V474.719H279.325V474.417Z" fill="#E0E0E0"/>
<path d="M323.89 474.417H290.094V474.719H323.89V474.417Z" fill="#E0E0E0"/>
<path d="M486.877 479.535H411.324V479.838H486.877V479.535Z" fill="#E0E0E0"/>
<path d="M541 462.704H-64V463.007H541V462.704Z" fill="#EBEBEB"/>
<path opacity="0.8" d="M341.144 96.1709L338.131 137.65C338.029 139.055 337.433 140.38 336.45 141.389C335.889 141.987 335.213 142.464 334.462 142.793C333.711 143.122 332.901 143.294 332.081 143.3H298.818C298.092 143.308 297.372 143.164 296.704 142.877C296.036 142.591 295.435 142.168 294.94 141.636C294.445 141.105 294.066 140.475 293.827 139.789C293.589 139.103 293.496 138.374 293.555 137.65L296.58 96.1709C296.703 94.6447 297.392 93.2195 298.511 92.1743C299.63 91.1292 301.099 90.5393 302.63 90.5202H335.893C336.62 90.5088 337.342 90.6504 338.011 90.9358C338.68 91.2212 339.281 91.644 339.776 92.1767C340.271 92.7095 340.649 93.3404 340.885 94.0284C341.12 94.7165 341.209 95.4464 341.144 96.1709Z" fill="#E0E0E0"/>
<path d="M326.721 114.95C326.298 121 321.881 126.022 316.847 126.022C311.814 126.022 308.087 121.061 308.511 114.95C308.934 108.84 313.351 103.866 318.396 103.866C323.442 103.866 327.145 108.827 326.721 114.95Z" fill="white"/>
<path d="M330.92 140.445H300.476C298.54 140.445 297.209 139.513 297.161 138.218C297.088 136.331 306.962 128.163 316.327 128.877H316.545C322.299 129.081 327.817 131.212 332.215 134.927C336.74 138.485 332.469 140.445 330.92 140.445Z" fill="white"/>
<path d="M169.53 141.788C166.349 141.775 163.285 140.581 160.935 138.437C158.585 136.292 157.116 133.351 156.813 130.184C156.672 128.68 156.845 127.163 157.322 125.73C157.799 124.296 158.569 122.978 159.583 121.858C160.597 120.738 161.833 119.842 163.212 119.225C164.591 118.609 166.083 118.286 167.594 118.278C170.775 118.29 173.839 119.485 176.189 121.629C178.539 123.773 180.008 126.715 180.311 129.881C180.452 131.386 180.279 132.902 179.802 134.336C179.325 135.769 178.555 137.088 177.541 138.208C176.527 139.327 175.291 140.224 173.912 140.84C172.533 141.457 171.041 141.779 169.53 141.788ZM168.114 124.521C167.405 124.521 166.704 124.67 166.055 124.957C165.407 125.244 164.826 125.664 164.349 126.19C163.873 126.715 163.512 127.334 163.289 128.008C163.067 128.681 162.987 129.393 163.057 130.099C163.206 131.582 163.897 132.958 164.998 133.963C166.098 134.968 167.531 135.531 169.022 135.544C169.73 135.543 170.43 135.393 171.077 135.105C171.724 134.817 172.304 134.397 172.779 133.871C173.254 133.346 173.614 132.728 173.836 132.055C174.058 131.382 174.137 130.671 174.068 129.966C173.919 128.489 173.233 127.118 172.14 126.115C171.047 125.111 169.623 124.543 168.139 124.521H168.114Z" fill="#E0E0E0"/>
<path d="M170.135 123.614L165.682 123.674L163.311 94.973L167.776 94.9246L170.135 123.614Z" fill="#E0E0E0"/>
<path d="M171.998 96.2072L163.625 96.3161L163.262 91.8512L171.635 91.7423L171.998 96.2072Z" fill="#E0E0E0"/>
<path d="M172.482 101.943L164.605 102.039L164.242 97.5745L172.107 97.4777L172.482 101.943Z" fill="#E0E0E0"/>
<path d="M173.16 110.025L166.287 110.11L165.912 105.657L172.785 105.573L173.16 110.025Z" fill="#E0E0E0"/>
<path d="M31.9651 385.712C31.9908 386.073 32.0352 386.432 32.0982 386.789C32.5152 389.11 33.6744 391.233 35.4015 392.839C37.3634 394.7 39.957 395.751 42.6615 395.779H144.894C147.317 395.818 149.657 394.899 151.406 393.223C153.155 391.546 154.172 389.247 154.236 386.825C154.263 385.39 154.006 383.963 153.48 382.628C152.954 381.292 152.169 380.074 151.171 379.043C150.172 378.011 148.98 377.188 147.662 376.619C146.344 376.051 144.926 375.748 143.491 375.729H41.27C39.9852 375.713 38.7112 375.966 37.5296 376.471C36.3481 376.976 35.2852 377.722 34.4091 378.662C33.533 379.602 32.863 380.715 32.4421 381.929C32.0212 383.143 31.8588 384.431 31.9651 385.712Z" fill="#F0F0F0"/>
<path d="M154.272 386.789C154.264 387.113 154.232 387.437 154.175 387.757C153.88 385.116 152.63 382.674 150.66 380.891C148.69 379.109 146.136 378.107 143.479 378.077L34.7602 378.246C36.5166 376.563 38.8617 375.634 41.2942 375.657H143.527C144.971 375.646 146.402 375.928 147.734 376.486C149.066 377.044 150.27 377.867 151.275 378.904C152.279 379.942 153.063 381.172 153.578 382.521C154.093 383.87 154.329 385.31 154.272 386.752V386.789Z" fill="#E0E0E0"/>
<path d="M136.775 380.521L137.114 385.361L141.7 383.655L142.741 386.075L138.07 387.672L141.337 391.774L139.28 393.323L136.098 389.063L133.557 393.323L131.294 391.774L133.944 387.672L129.104 386.135L129.794 383.715L134.634 385.361L134.295 380.521H136.775Z" fill="white"/>
<path d="M108.812 380.521L109.163 385.361L113.737 383.655L114.778 386.075L110.095 387.611L113.374 391.713L111.256 393.262L108.074 389.003L105.533 393.262L103.27 391.713L105.92 387.611L101.08 386.075L101.782 383.655L106.622 385.3L106.283 380.46L108.812 380.521Z" fill="white"/>
<path d="M80.8612 380.521L81.2 385.361L85.7859 383.655L86.8265 386.075L82.1438 387.611L85.4108 391.713L83.2933 393.262L80.111 389.003L77.57 393.262L75.3073 391.713L77.9572 387.611L73.1172 386.075L73.819 383.655L78.659 385.3L78.3202 380.46L80.8612 380.521Z" fill="white"/>
<path d="M52.8981 380.521L53.2369 385.361L57.8228 383.655L58.8634 386.075L54.1807 387.611L57.4477 391.713L55.3423 393.262L52.16 389.063L49.6069 393.323L47.32 391.774L49.982 387.672L45.142 386.135L45.8438 383.715L50.6838 385.361L50.345 380.521H52.8981Z" fill="white"/>
<path d="M120.815 372.16H116.048L116.06 370.95H120.827L120.815 372.16Z" fill="#E0E0E0"/>
<path d="M141.301 372.16H125.752L125.776 370.95H141.325L141.301 372.16Z" fill="#E0E0E0"/>
<g opacity="0.8">
<path d="M261.95 366.061L281.237 395.743L344.835 332.145C344.897 332.09 344.947 332.024 344.984 331.949C345.02 331.875 345.041 331.794 345.046 331.712C345.051 331.629 345.04 331.546 345.013 331.468C344.986 331.39 344.944 331.318 344.889 331.256C344.834 331.194 344.768 331.143 344.694 331.107C344.619 331.071 344.538 331.049 344.456 331.044C344.373 331.039 344.29 331.05 344.212 331.077C344.134 331.104 344.062 331.146 344 331.201L283.391 378.73L271.944 360.278L261.95 366.061Z" fill="#E0E0E0"/>
</g>
<path opacity="0.1" d="M250.431 154.819L204.765 325.623H220.12L265.277 154.819H250.431Z" fill="white"/>
<path opacity="0.1" d="M274.135 154.819L228.469 325.623H258.937L304.094 154.819H274.135Z" fill="white"/>
<path d="M438.525 308.925L448.205 171.832C448.295 170.779 448.163 169.718 447.817 168.719C447.471 167.72 446.919 166.805 446.197 166.033C445.475 165.261 444.599 164.649 443.626 164.237C442.652 163.824 441.603 163.621 440.546 163.64L201.28 163.846C199.055 163.877 196.92 164.733 195.29 166.249C193.66 167.765 192.651 169.832 192.459 172.05L182.84 309.155C182.752 310.209 182.886 311.27 183.233 312.269C183.58 313.268 184.133 314.183 184.856 314.955C185.579 315.727 186.456 316.338 187.43 316.75C188.404 317.162 189.454 317.366 190.511 317.347L429.68 317.141C431.913 317.119 434.057 316.264 435.692 314.745C437.328 313.225 438.338 311.15 438.525 308.925Z" fill="#263238"/>
<path d="M435.452 305.936L445.132 168.843C445.224 167.79 445.093 166.728 444.747 165.728C444.402 164.729 443.851 163.813 443.128 163.04C442.406 162.267 441.529 161.655 440.554 161.244C439.58 160.832 438.53 160.631 437.472 160.652L198.207 160.857C195.982 160.886 193.847 161.741 192.218 163.258C190.59 164.775 189.584 166.844 189.398 169.061L179.718 306.166C179.628 307.22 179.76 308.28 180.106 309.279C180.452 310.278 181.004 311.193 181.726 311.965C182.448 312.738 183.324 313.35 184.298 313.762C185.271 314.174 186.32 314.377 187.377 314.358L426.631 314.152C428.859 314.124 430.997 313.267 432.628 311.748C434.259 310.229 435.265 308.157 435.452 305.936Z" fill="#337ACC"/>
<path opacity="0.6" d="M429.111 307.969C428.62 308.421 427.976 308.671 427.308 308.671L188.043 308.877C187.659 308.872 187.28 308.79 186.929 308.635C186.577 308.481 186.261 308.256 185.998 307.976C185.736 307.695 185.533 307.365 185.402 307.004C185.271 306.643 185.215 306.259 185.236 305.876L194.916 168.783C194.953 168.117 195.248 167.492 195.739 167.04C196.227 166.583 196.873 166.332 197.542 166.339L436.807 166.133C437.191 166.137 437.57 166.219 437.921 166.374C438.273 166.529 438.589 166.753 438.852 167.034C439.114 167.314 439.317 167.645 439.448 168.006C439.579 168.367 439.635 168.75 439.614 169.134L429.934 306.227C429.891 306.891 429.596 307.514 429.111 307.969Z" fill="white"/>
<path d="M349.53 232.598H265.543C264.803 232.611 264.093 232.891 263.543 233.387C262.994 233.883 262.642 234.561 262.555 235.297L261.26 247.578C261.219 247.919 261.251 248.265 261.354 248.593C261.457 248.921 261.628 249.224 261.857 249.48C262.086 249.737 262.367 249.941 262.682 250.081C262.996 250.22 263.336 250.291 263.68 250.288H347.666C348.409 250.274 349.121 249.991 349.672 249.493C350.224 248.995 350.577 248.315 350.667 247.578L351.95 235.297C351.989 234.956 351.956 234.611 351.852 234.285C351.748 233.958 351.576 233.657 351.347 233.402C351.118 233.147 350.838 232.944 350.525 232.805C350.211 232.666 349.872 232.596 349.53 232.598Z" fill="white"/>
<path d="M275.538 282.753H262.434C261.691 282.768 260.979 283.05 260.428 283.548C259.876 284.046 259.523 284.726 259.433 285.463L258.15 297.745C258.111 298.085 258.144 298.43 258.248 298.756C258.352 299.083 258.524 299.384 258.753 299.639C258.982 299.894 259.262 300.097 259.575 300.236C259.889 300.375 260.228 300.445 260.57 300.443H273.675C274.416 300.428 275.126 300.148 275.677 299.652C276.228 299.157 276.583 298.48 276.675 297.745L277.958 285.463C277.999 285.122 277.967 284.776 277.864 284.448C277.761 284.12 277.59 283.817 277.361 283.561C277.132 283.304 276.851 283.1 276.537 282.96C276.222 282.821 275.882 282.75 275.538 282.753Z" fill="white"/>
<path d="M298.165 282.753H285.061C284.318 282.768 283.606 283.05 283.055 283.548C282.503 284.046 282.15 284.726 282.06 285.463L280.777 297.745C280.738 298.085 280.771 298.43 280.875 298.756C280.979 299.083 281.151 299.384 281.38 299.639C281.608 299.894 281.889 300.097 282.202 300.236C282.516 300.375 282.855 300.445 283.197 300.443H296.302C297.042 300.428 297.753 300.148 298.304 299.652C298.855 299.157 299.21 298.48 299.302 297.745L300.585 285.463C300.626 285.122 300.594 284.776 300.491 284.448C300.388 284.12 300.217 283.817 299.988 283.561C299.759 283.304 299.478 283.1 299.164 282.96C298.849 282.821 298.509 282.75 298.165 282.753Z" fill="white"/>
<path d="M320.78 282.753H307.688C306.945 282.768 306.233 283.05 305.681 283.548C305.13 284.046 304.777 284.726 304.687 285.463L303.404 297.745C303.365 298.085 303.398 298.43 303.502 298.756C303.606 299.083 303.778 299.384 304.007 299.639C304.236 299.894 304.516 300.097 304.829 300.236C305.143 300.375 305.482 300.445 305.824 300.443H318.929C319.67 300.428 320.38 300.148 320.931 299.652C321.482 299.157 321.837 298.48 321.929 297.745L323.2 285.463C323.241 285.122 323.209 284.776 323.106 284.448C323.003 284.12 322.832 283.817 322.603 283.561C322.374 283.304 322.093 283.1 321.778 282.96C321.464 282.821 321.124 282.75 320.78 282.753Z" fill="white"/>
<path d="M343.419 282.753H330.315C329.572 282.768 328.86 283.05 328.309 283.548C327.757 284.046 327.404 284.726 327.314 285.463L326.031 297.745C325.992 298.085 326.025 298.43 326.129 298.756C326.233 299.083 326.405 299.384 326.634 299.639C326.863 299.894 327.143 300.097 327.456 300.236C327.77 300.375 328.109 300.445 328.451 300.443H341.556C342.297 300.428 343.007 300.148 343.558 299.652C344.109 299.157 344.464 298.48 344.556 297.745L345.839 285.463C345.88 285.122 345.848 284.776 345.745 284.448C345.642 284.12 345.471 283.817 345.242 283.561C345.013 283.304 344.732 283.1 344.418 282.96C344.103 282.821 343.763 282.75 343.419 282.753Z" fill="white"/>
<path d="M276.083 274.392H328.609C329.871 274.369 331.083 273.891 332.021 273.047C332.959 272.202 333.561 271.047 333.715 269.794L334.356 263.744C334.431 263.16 334.38 262.567 334.204 262.005C334.028 261.444 333.733 260.927 333.339 260.49C332.945 260.053 332.46 259.707 331.92 259.475C331.379 259.243 330.794 259.13 330.206 259.146H277.68C276.418 259.168 275.206 259.646 274.268 260.491C273.329 261.336 272.728 262.491 272.574 263.744L271.932 269.794C271.859 270.377 271.912 270.969 272.089 271.53C272.265 272.091 272.56 272.607 272.954 273.043C273.348 273.48 273.832 273.826 274.371 274.059C274.911 274.291 275.495 274.405 276.083 274.392V274.392Z" stroke="#337ACC" stroke-linecap="round" stroke-linejoin="round"/>
<path d="M352.555 207.019H268.568C267.828 207.037 267.118 207.32 266.57 207.818C266.021 208.315 265.67 208.994 265.58 209.729L264.285 222.011C264.246 222.351 264.279 222.696 264.383 223.022C264.487 223.349 264.659 223.65 264.887 223.905C265.116 224.16 265.397 224.364 265.71 224.502C266.023 224.641 266.362 224.711 266.705 224.709H350.679C351.42 224.695 352.131 224.414 352.682 223.918C353.233 223.423 353.587 222.746 353.68 222.011L354.962 209.729C355.004 209.389 354.972 209.044 354.87 208.717C354.767 208.389 354.597 208.088 354.369 207.832C354.142 207.575 353.862 207.37 353.549 207.23C353.236 207.09 352.897 207.018 352.555 207.019Z" fill="white"/>
<path d="M275.756 241.443C275.807 241.064 275.775 240.678 275.662 240.312C275.55 239.947 275.359 239.61 275.104 239.324C274.849 239.039 274.535 238.813 274.183 238.661C273.832 238.508 273.452 238.434 273.07 238.443C272.248 238.462 271.46 238.775 270.85 239.326C270.239 239.877 269.846 240.628 269.742 241.443C269.695 241.822 269.73 242.207 269.845 242.571C269.96 242.936 270.152 243.271 270.408 243.555C270.664 243.838 270.978 244.063 271.329 244.215C271.679 244.366 272.059 244.44 272.44 244.432C273.26 244.415 274.046 244.104 274.655 243.555C275.263 243.006 275.654 242.257 275.756 241.443Z" fill="#263238"/>
<path d="M285 241.443C285.049 241.063 285.015 240.677 284.901 240.311C284.787 239.946 284.596 239.609 284.339 239.324C284.083 239.039 283.769 238.813 283.417 238.661C283.065 238.509 282.685 238.434 282.302 238.443C281.481 238.46 280.693 238.773 280.084 239.324C279.475 239.875 279.085 240.628 278.987 241.443C278.938 241.822 278.971 242.206 279.085 242.571C279.198 242.935 279.389 243.27 279.644 243.554C279.899 243.838 280.212 244.063 280.562 244.215C280.913 244.366 281.291 244.44 281.673 244.432C282.494 244.415 283.281 244.105 283.892 243.556C284.503 243.007 284.896 242.258 285 241.443Z" fill="#263238"/>
<path d="M294.233 241.443C294.281 241.063 294.248 240.677 294.134 240.311C294.02 239.946 293.828 239.609 293.572 239.324C293.316 239.039 293.001 238.813 292.649 238.661C292.298 238.509 291.917 238.434 291.534 238.443C290.713 238.46 289.926 238.773 289.317 239.324C288.707 239.875 288.318 240.628 288.219 241.443C288.172 241.822 288.207 242.207 288.322 242.571C288.437 242.936 288.629 243.271 288.885 243.555C289.141 243.838 289.455 244.063 289.805 244.215C290.156 244.366 290.535 244.44 290.917 244.432C291.737 244.415 292.523 244.104 293.131 243.555C293.74 243.006 294.131 242.257 294.233 241.443Z" fill="#263238"/>
<path d="M303.465 241.443C303.516 241.064 303.484 240.678 303.371 240.312C303.259 239.947 303.068 239.61 302.813 239.324C302.558 239.039 302.244 238.813 301.892 238.661C301.541 238.508 301.161 238.434 300.779 238.443C299.957 238.46 299.17 238.773 298.561 239.324C297.952 239.875 297.562 240.628 297.463 241.443C297.413 241.826 297.448 242.216 297.565 242.584C297.682 242.952 297.878 243.29 298.14 243.574C298.402 243.858 298.723 244.081 299.081 244.227C299.439 244.373 299.824 244.439 300.21 244.42C301.017 244.389 301.787 244.073 302.383 243.528C302.979 242.983 303.362 242.244 303.465 241.443Z" fill="#263238"/>
<path d="M312.891 241.443C312.94 241.063 312.906 240.677 312.792 240.311C312.678 239.946 312.486 239.609 312.23 239.324C311.974 239.039 311.659 238.813 311.308 238.661C310.956 238.509 310.576 238.434 310.193 238.443C309.371 238.46 308.584 238.773 307.975 239.324C307.366 239.875 306.976 240.628 306.877 241.443C306.828 241.822 306.862 242.206 306.975 242.571C307.089 242.935 307.279 243.27 307.534 243.554C307.789 243.838 308.103 244.063 308.453 244.215C308.803 244.366 309.182 244.44 309.563 244.432C310.384 244.415 311.172 244.105 311.782 243.556C312.393 243.007 312.787 242.258 312.891 241.443Z" fill="#263238"/>
<path d="M278.781 215.864C278.832 215.485 278.8 215.1 278.687 214.735C278.575 214.369 278.384 214.033 278.129 213.749C277.873 213.465 277.559 213.239 277.208 213.088C276.856 212.938 276.477 212.865 276.095 212.875C275.275 212.892 274.489 213.204 273.881 213.752C273.272 214.301 272.881 215.051 272.779 215.864C272.728 216.243 272.76 216.628 272.873 216.993C272.986 217.359 273.176 217.695 273.432 217.979C273.687 218.263 274.001 218.489 274.353 218.64C274.704 218.79 275.083 218.863 275.465 218.853C276.286 218.838 277.073 218.528 277.682 217.979C278.292 217.429 278.682 216.678 278.781 215.864Z" fill="#263238"/>
<path d="M288.025 215.864C288.072 215.485 288.037 215.1 287.922 214.736C287.807 214.372 287.615 214.036 287.359 213.753C287.103 213.469 286.789 213.244 286.439 213.093C286.088 212.941 285.709 212.867 285.327 212.875C284.516 212.904 283.742 213.22 283.143 213.768C282.544 214.315 282.16 215.059 282.06 215.864C282.011 216.242 282.045 216.627 282.158 216.991C282.271 217.355 282.462 217.691 282.717 217.975C282.972 218.259 283.286 218.484 283.636 218.635C283.986 218.787 284.365 218.861 284.746 218.853C285.559 218.827 286.337 218.512 286.938 217.964C287.539 217.416 287.925 216.671 288.025 215.864Z" fill="#263238"/>
<path d="M297.258 215.864C297.306 215.486 297.273 215.101 297.16 214.737C297.046 214.372 296.855 214.037 296.6 213.753C296.345 213.469 296.032 213.244 295.682 213.093C295.332 212.941 294.953 212.867 294.571 212.875C293.751 212.892 292.963 213.203 292.352 213.751C291.742 214.3 291.348 215.05 291.244 215.864C291.195 216.243 291.229 216.629 291.343 216.994C291.457 217.359 291.649 217.695 291.905 217.979C292.161 218.263 292.476 218.489 292.828 218.639C293.18 218.79 293.56 218.863 293.942 218.853C294.762 218.838 295.55 218.528 296.159 217.979C296.768 217.429 297.158 216.678 297.258 215.864Z" fill="#263238"/>
<path d="M306.49 215.864C306.541 215.485 306.509 215.1 306.396 214.735C306.284 214.369 306.093 214.033 305.837 213.749C305.582 213.465 305.268 213.239 304.917 213.088C304.565 212.938 304.186 212.865 303.804 212.875C302.984 212.892 302.198 213.204 301.589 213.752C300.981 214.301 300.59 215.051 300.488 215.864C300.437 216.243 300.469 216.628 300.582 216.993C300.694 217.359 300.885 217.695 301.141 217.979C301.396 218.263 301.71 218.489 302.061 218.64C302.413 218.79 302.792 218.863 303.174 218.853C303.995 218.838 304.782 218.528 305.391 217.979C306.001 217.429 306.391 216.678 306.49 215.864Z" fill="#263238"/>
<path d="M315.734 215.864C315.781 215.485 315.746 215.1 315.631 214.736C315.516 214.372 315.324 214.036 315.068 213.753C314.812 213.469 314.498 213.244 314.148 213.093C313.797 212.941 313.418 212.867 313.036 212.875C312.217 212.892 311.431 213.204 310.822 213.752C310.213 214.301 309.822 215.051 309.721 215.864C309.672 216.243 309.705 216.629 309.819 216.994C309.933 217.359 310.125 217.695 310.382 217.979C310.638 218.263 310.953 218.489 311.305 218.639C311.656 218.79 312.036 218.863 312.419 218.853C313.239 218.838 314.026 218.528 314.636 217.978C315.245 217.429 315.635 216.678 315.734 215.864Z" fill="#263238"/>
<path d="M324.967 215.864C325.015 215.486 324.982 215.101 324.869 214.737C324.755 214.372 324.564 214.037 324.309 213.753C324.054 213.469 323.741 213.244 323.391 213.093C323.041 212.941 322.662 212.867 322.28 212.875C321.46 212.892 320.672 213.203 320.061 213.751C319.451 214.3 319.057 215.05 318.953 215.864C318.904 216.243 318.938 216.629 319.052 216.994C319.166 217.359 319.358 217.695 319.614 217.979C319.87 218.263 320.185 218.489 320.537 218.639C320.889 218.79 321.269 218.863 321.651 218.853C322.471 218.838 323.259 218.528 323.868 217.979C324.477 217.429 324.867 216.678 324.967 215.864Z" fill="#263238"/>
<path d="M317.15 179.939L316.497 186.146C316.45 186.416 316.314 186.663 316.11 186.845C315.905 187.028 315.645 187.135 315.371 187.151C315.242 187.155 315.114 187.132 314.995 187.082C314.876 187.031 314.77 186.956 314.683 186.86C314.597 186.764 314.532 186.651 314.494 186.528C314.456 186.404 314.446 186.274 314.464 186.146L315.117 179.939C315.175 179.479 315.132 179.013 314.994 178.571C314.855 178.129 314.623 177.722 314.313 177.378C314.003 177.034 313.623 176.76 313.198 176.576C312.773 176.391 312.313 176.3 311.85 176.309H309.612C308.617 176.333 307.664 176.712 306.925 177.378C306.186 178.044 305.709 178.952 305.582 179.939L305.014 185.699H302.981L303.55 179.939C303.741 178.399 304.482 176.98 305.636 175.942C306.789 174.904 308.278 174.317 309.83 174.288H312.056C312.778 174.27 313.496 174.409 314.16 174.694C314.824 174.979 315.419 175.405 315.903 175.942C316.387 176.479 316.749 177.114 316.964 177.804C317.179 178.494 317.243 179.222 317.15 179.939Z" fill="#337ACC"/>
<path d="M317.15 185.917L315.879 198.017C315.83 198.392 315.648 198.738 315.367 198.991C315.085 199.244 314.721 199.388 314.343 199.396H302.243C302.069 199.398 301.896 199.362 301.737 199.291C301.578 199.219 301.436 199.115 301.321 198.984C301.206 198.853 301.121 198.699 301.071 198.532C301.022 198.365 301.008 198.189 301.033 198.017L302.303 185.917C302.327 185.668 302.41 185.428 302.544 185.218C302.679 185.008 302.862 184.832 303.078 184.707C303.309 184.571 303.572 184.5 303.84 184.501H315.94C316.187 184.498 316.431 184.565 316.642 184.694C316.836 184.827 316.988 185.013 317.078 185.23C317.168 185.447 317.193 185.685 317.15 185.917Z" fill="#337ACC"/>
<path d="M411.905 159.853L382.333 160.022" stroke="#263238" stroke-linecap="round" stroke-linejoin="round"/>
<path d="M428.022 159.768L417.568 159.817" stroke="#263238" stroke-linecap="round" stroke-linejoin="round"/>
<g opacity="0.3">
<path d="M220.471 166.302H254.351L219.902 308.877H192.593C191.805 308.861 191.03 308.668 190.328 308.311C189.625 307.954 189.012 307.442 188.535 306.815C188.058 306.188 187.729 305.461 187.573 304.688C187.416 303.916 187.436 303.118 187.632 302.355L220.471 166.302Z" fill="white"/>
<path d="M269.355 166.302H283.718L249.305 308.877H234.943L269.355 166.302Z" fill="white"/>
</g>
<path d="M40.8465 121.799H47.7193C46.1092 121.776 44.5122 122.091 43.0313 122.723C41.5504 123.355 40.2186 124.291 39.1217 125.47C38.0249 126.649 37.1874 128.045 36.6633 129.568C36.1392 131.09 35.9402 132.706 36.0791 134.31L50.6596 342.793C50.936 346.169 52.4599 349.321 54.9341 351.634C57.4083 353.947 60.6554 355.256 64.0422 355.304H57.1815C53.7935 355.256 50.5449 353.948 48.0687 351.635C45.5925 349.322 44.066 346.17 43.7868 342.793L29.17 134.31C29.0308 132.703 29.2308 131.084 29.757 129.559C30.2832 128.034 31.124 126.636 32.2248 125.457C33.3256 124.277 34.6619 123.342 36.1471 122.712C37.6323 122.082 39.2333 121.771 40.8465 121.799Z" fill="#337ACC"/>
<path d="M40.8465 121.799H47.7192C46.1091 121.776 44.5121 122.091 43.0312 122.723C41.5504 123.355 40.2185 124.291 39.1217 125.47C38.0249 126.649 37.1874 128.045 36.6633 129.568C36.1392 131.09 35.9402 132.706 36.079 134.31L50.6595 342.793C50.9359 346.169 52.4598 349.321 54.9341 351.634C57.4083 353.947 60.6554 355.256 64.0421 355.304H57.1814C50.2724 355.304 43.3027 349.702 42.8187 342.793L28.2383 134.31C27.7543 127.401 33.9374 121.799 40.8465 121.799Z" fill="#263238"/>
<path d="M59.2264 355.317H143.321C144.936 355.346 146.538 355.036 148.025 354.407C149.511 353.778 150.849 352.843 151.951 351.663C153.053 350.483 153.895 349.085 154.422 347.559C154.949 346.033 155.149 344.414 155.01 342.805L140.381 134.31C140.107 130.93 138.583 127.774 136.106 125.458C133.629 123.142 130.377 121.833 126.986 121.787H42.9035C41.2922 121.764 39.6941 122.079 38.2123 122.712C36.7306 123.345 35.3981 124.282 34.3011 125.462C33.204 126.643 32.3668 128.04 31.8436 129.564C31.3203 131.088 31.1226 132.705 31.2633 134.31L45.7833 342.793C46.0605 346.18 47.5925 349.342 50.0792 351.659C52.5659 353.975 55.828 355.28 59.2264 355.317Z" fill="#337ACC"/>
<g opacity="0.6">
<path d="M126.769 125.84C129.125 125.877 131.382 126.79 133.102 128.4C134.822 130.011 135.881 132.204 136.073 134.552L150.654 343.035C150.753 344.099 150.626 345.172 150.282 346.183C149.937 347.195 149.383 348.122 148.656 348.905C147.928 349.687 147.043 350.307 146.059 350.724C145.075 351.141 144.015 351.345 142.946 351.324H58.8634C56.5061 351.287 54.2469 350.374 52.5249 348.764C50.8029 347.154 49.7413 344.961 49.5464 342.612L35.0264 134.129C34.9279 133.07 35.0531 132.002 35.3939 130.995C35.7347 129.988 36.2834 129.063 37.0045 128.282C37.7256 127.5 38.6029 126.879 39.5795 126.458C40.5561 126.038 41.6103 125.827 42.6736 125.84H126.769Z" fill="white"/>
</g>
<g opacity="0.3">
<path d="M102.98 351.299H69.475L97.1356 125.84H124.131C125.296 125.836 126.451 126.072 127.521 126.534C128.591 126.996 129.554 127.675 130.35 128.526L102.98 351.299Z" fill="white"/>
<path d="M63.4613 351.299H55.9109L83.5716 125.816H91.1219L63.4613 351.299Z" fill="white"/>
</g>
<path d="M60.8478 224.334H121.759" stroke="white" stroke-linecap="round" stroke-linejoin="round"/>
<path d="M68.7007 233.349H116.411" stroke="white" stroke-linecap="round" stroke-linejoin="round"/>
<path d="M62.6628 182.807L62.7475 185.227H61.1866L61.1019 182.807L58.331 178.463H59.9887L61.9005 181.464L63.5945 178.463H65.1312L62.6628 182.807Z" fill="#337ACC"/>
<path d="M65.1917 181.815C65.1711 181.339 65.2521 180.864 65.4292 180.423C65.6064 179.981 65.8756 179.582 66.2191 179.252C66.5625 178.922 66.9723 178.669 67.421 178.51C67.8698 178.351 68.3473 178.29 68.8217 178.33C69.3014 178.305 69.7813 178.377 70.2333 178.539C70.6854 178.701 71.1008 178.952 71.4553 179.276C71.8098 179.6 72.0965 179.992 72.2987 180.427C72.5009 180.863 72.6146 181.335 72.6332 181.815C72.6555 182.291 72.5759 182.767 72.3995 183.211C72.2231 183.654 71.9541 184.055 71.6105 184.386C71.2669 184.717 70.8565 184.97 70.4068 185.13C69.9572 185.29 69.4786 185.352 69.0032 185.312C68.5224 185.336 68.0417 185.264 67.5888 185.101C67.1359 184.938 66.7201 184.686 66.3654 184.361C66.0107 184.036 65.7242 183.643 65.5227 183.206C65.3212 182.769 65.2087 182.296 65.1917 181.815ZM70.9997 181.815C71.0014 181.528 70.9456 181.244 70.8357 180.98C70.7258 180.715 70.5639 180.476 70.3597 180.275C70.1555 180.074 69.9131 179.916 69.6469 179.811C69.3806 179.705 69.0959 179.654 68.8096 179.661C68.529 179.649 68.2492 179.698 67.989 179.803C67.7288 179.909 67.4944 180.07 67.3017 180.274C67.1089 180.478 66.9623 180.721 66.8717 180.987C66.7812 181.253 66.7488 181.535 66.7768 181.815C66.7735 182.102 66.828 182.387 66.9372 182.653C67.0464 182.919 67.208 183.16 67.4124 183.362C67.6167 183.564 67.8597 183.723 68.1267 183.829C68.3938 183.936 68.6795 183.987 68.9669 183.981C69.2475 183.989 69.5267 183.937 69.7859 183.829C70.0451 183.721 70.2785 183.56 70.4706 183.355C70.6627 183.15 70.8092 182.907 70.9004 182.642C70.9916 182.376 71.0255 182.094 70.9997 181.815Z" fill="#337ACC"/>
<path d="M73.71 182.226L73.5891 178.439H75.15L75.2709 182.166C75.2709 183.448 75.9002 183.981 76.844 183.981C77.7878 183.981 78.3201 183.448 78.2838 182.166L78.1508 178.439H79.6875L79.8206 182.226C79.8841 182.633 79.8532 183.049 79.7302 183.443C79.6072 183.836 79.3954 184.195 79.1112 184.494C78.8269 184.792 78.4779 185.021 78.091 185.163C77.7042 185.305 77.2899 185.355 76.8803 185.312C76.4618 185.349 76.0402 185.296 75.6444 185.155C75.2485 185.014 74.8877 184.79 74.5866 184.497C74.2856 184.204 74.0514 183.849 73.9001 183.457C73.7488 183.065 73.684 182.645 73.71 182.226Z" fill="#337ACC"/>
<path d="M85.7738 185.203L84.4065 183.315H82.9666L83.0392 185.203H81.4783L81.2363 178.439H84.1645C85.9674 178.439 87.129 179.383 87.1774 180.859C87.2166 181.308 87.1093 181.759 86.8716 182.143C86.6339 182.526 86.2785 182.823 85.8585 182.988L87.4557 185.166L85.7738 185.203ZM84.1161 179.721H82.9061L82.9908 182.069H84.2008C85.1567 182.069 85.6165 181.633 85.5923 180.859C85.5681 180.084 85.072 179.721 84.1161 179.721Z" fill="#337ACC"/>
<path d="M90.759 181.815C90.734 181.346 90.8086 180.878 90.978 180.441C91.1474 180.003 91.4076 179.607 91.7416 179.277C92.0755 178.948 92.4755 178.693 92.9152 178.53C93.3549 178.367 93.8242 178.298 94.2922 178.33C94.822 178.313 95.3489 178.413 95.836 178.622C96.323 178.831 96.7584 179.145 97.1115 179.54L96.1435 180.459C95.9294 180.211 95.6637 180.012 95.3649 179.876C95.0661 179.74 94.7414 179.671 94.4132 179.673C94.1297 179.658 93.8463 179.704 93.5821 179.808C93.3179 179.912 93.0792 180.072 92.8819 180.276C92.6846 180.48 92.5334 180.724 92.4386 180.992C92.3437 181.259 92.3074 181.544 92.332 181.827C92.3301 182.118 92.3873 182.406 92.5001 182.675C92.6128 182.943 92.7789 183.186 92.9881 183.388C93.1973 183.591 93.4454 183.749 93.7174 183.853C93.9894 183.956 94.2796 184.004 94.5705 183.993C94.8919 183.999 95.2103 183.93 95.5003 183.792C95.7903 183.653 96.0437 183.448 96.2403 183.194L97.2688 184.114C96.9396 184.515 96.5207 184.834 96.0457 185.044C95.5707 185.255 95.0529 185.35 94.5342 185.324C94.0554 185.343 93.5776 185.268 93.1282 185.101C92.6787 184.935 92.2667 184.682 91.9157 184.355C91.5648 184.029 91.2819 183.637 91.0833 183.201C90.8848 182.765 90.7746 182.294 90.759 181.815Z" fill="#337ACC"/>
<path d="M97.6802 181.815C97.6605 181.344 97.74 180.875 97.9136 180.438C98.0871 180.001 98.3509 179.605 98.6876 179.276C99.0243 178.947 99.4264 178.693 99.8679 178.53C100.309 178.367 100.78 178.299 101.25 178.33C101.729 178.305 102.209 178.376 102.661 178.539C103.113 178.701 103.529 178.952 103.883 179.276C104.238 179.6 104.525 179.991 104.727 180.427C104.929 180.863 105.043 181.335 105.061 181.815C105.083 182.286 105.004 182.756 104.832 183.195C104.659 183.634 104.395 184.031 104.058 184.361C103.722 184.691 103.319 184.947 102.877 185.11C102.434 185.274 101.962 185.343 101.492 185.311C101.011 185.336 100.53 185.264 100.077 185.101C99.6245 184.938 99.2086 184.686 98.8539 184.361C98.4992 184.036 98.2128 183.643 98.0113 183.206C97.8098 182.769 97.6972 182.296 97.6802 181.815ZM103.476 181.815C103.479 181.529 103.425 181.245 103.317 180.981C103.208 180.716 103.047 180.477 102.844 180.276C102.641 180.075 102.399 179.917 102.134 179.811C101.868 179.705 101.584 179.654 101.298 179.661C101.018 179.649 100.738 179.698 100.477 179.803C100.217 179.909 99.983 180.07 99.7902 180.274C99.5975 180.478 99.4508 180.721 99.3603 180.987C99.2697 181.253 99.2373 181.535 99.2653 181.815C99.2603 182.101 99.3134 182.386 99.4212 182.652C99.5291 182.918 99.6895 183.159 99.8929 183.361C100.096 183.564 100.339 183.723 100.605 183.829C100.871 183.936 101.156 183.987 101.443 183.98C101.724 183.99 102.005 183.94 102.265 183.833C102.525 183.726 102.759 183.564 102.952 183.359C103.144 183.154 103.291 182.91 103.381 182.644C103.471 182.377 103.504 182.095 103.476 181.815Z" fill="#337ACC"/>
<path d="M106.126 178.439H109.187C109.664 178.392 110.145 178.444 110.601 178.591C111.057 178.738 111.478 178.977 111.838 179.294C112.198 179.611 112.488 179.998 112.692 180.431C112.896 180.865 113.009 181.336 113.023 181.815C113.05 182.288 112.972 182.761 112.796 183.201C112.619 183.64 112.348 184.036 112.002 184.359C111.655 184.682 111.242 184.926 110.791 185.071C110.34 185.217 109.863 185.262 109.393 185.203H106.32L106.126 178.439ZM109.308 183.92C109.594 183.95 109.882 183.916 110.153 183.821C110.424 183.726 110.67 183.573 110.875 183.372C111.079 183.17 111.237 182.927 111.336 182.657C111.436 182.388 111.475 182.1 111.45 181.815C111.449 181.523 111.388 181.235 111.271 180.968C111.153 180.702 110.981 180.463 110.766 180.266C110.551 180.069 110.298 179.919 110.022 179.825C109.746 179.732 109.453 179.696 109.163 179.721H107.735L107.88 183.92H109.308Z" fill="#337ACC"/>
<path d="M119.509 183.92V185.13H114.281L114.039 178.366H119.146V179.576H115.685V181.04H118.819V182.25H115.685V183.811L119.509 183.92Z" fill="#337ACC"/>
<path d="M74.3997 210.31V213.021H61.7068V210.879L68.4586 204.357C70.1042 202.748 70.3825 201.743 70.3704 200.727C70.3704 199.154 69.233 198.234 67.1155 198.234C66.3511 198.196 65.5884 198.339 64.8901 198.652C64.1917 198.966 63.5777 199.44 63.0983 200.037L60.8235 198.307C61.6057 197.35 62.6035 196.593 63.735 196.096C64.8666 195.6 66.0998 195.379 67.3333 195.451C71.0843 195.451 73.5406 197.351 73.589 200.412C73.589 202.082 73.1776 203.619 70.8302 205.869L66.2927 210.262L74.3997 210.31Z" fill="#263238"/>
<path d="M88.46 207.842C88.46 210.746 86.3546 213.262 81.7203 213.262C79.386 213.304 77.0986 212.605 75.1863 211.266L76.5294 208.773C77.9874 209.899 79.7819 210.5 81.6235 210.479C83.9104 210.479 85.2535 209.463 85.2535 207.866C85.2535 206.269 84.0435 205.289 81.4541 205.289H79.8811V203.098L83.62 198.44H75.7671V195.754H87.5525V197.908L83.4385 202.893C86.7418 203.28 88.46 205.24 88.46 207.842Z" fill="#263238"/>
<path d="M104.601 208.12C104.601 211.327 101.903 213.323 97.6076 213.323C93.3121 213.323 90.5291 211.327 90.4807 208.12C90.4443 207.238 90.6835 206.367 91.1649 205.628C91.6463 204.889 92.346 204.317 93.1669 203.994C92.4969 203.654 91.9348 203.135 91.5437 202.494C91.1526 201.852 90.9479 201.115 90.9526 200.364C90.9526 197.399 93.4694 195.524 97.293 195.524C101.117 195.524 103.791 197.375 103.839 200.364C103.877 201.111 103.695 201.852 103.317 202.497C102.938 203.142 102.38 203.662 101.709 203.994C102.551 204.311 103.277 204.874 103.793 205.61C104.309 206.346 104.591 207.221 104.601 208.12ZM101.359 208.023C101.359 206.317 99.834 205.252 97.4624 205.252C95.0908 205.252 93.675 206.317 93.7113 208.023C93.7476 209.729 95.1876 210.806 97.5592 210.806C99.9308 210.806 101.395 209.717 101.359 207.963V208.023ZM94.0986 200.521C94.0986 201.997 95.3086 202.941 97.4019 202.941C99.4952 202.941 100.693 201.997 100.657 200.521C100.62 199.045 99.2895 198.101 97.3051 198.101C95.3207 198.101 94.0985 198.9 94.1227 200.461L94.0986 200.521Z" fill="#263238"/>
<path d="M120.694 208.12C120.694 211.327 117.996 213.323 113.701 213.323C109.405 213.323 106.61 211.266 106.61 208.12C106.575 207.239 106.815 206.369 107.296 205.63C107.778 204.89 108.476 204.319 109.296 203.994C108.626 203.656 108.064 203.137 107.674 202.495C107.285 201.853 107.084 201.115 107.094 200.364C107.033 197.399 109.599 195.524 113.422 195.524C117.246 195.524 119.92 197.375 119.968 200.364C120.006 201.111 119.824 201.852 119.446 202.497C119.068 203.142 118.509 203.662 117.839 203.994C118.673 204.316 119.392 204.882 119.901 205.618C120.41 206.354 120.687 207.225 120.694 208.12ZM117.452 208.023C117.452 206.317 115.927 205.252 113.555 205.252C111.184 205.252 109.768 206.317 109.804 208.023C109.841 209.729 111.281 210.806 113.652 210.806C116.024 210.806 117.5 209.717 117.5 207.963L117.452 208.023ZM110.192 200.521C110.192 201.997 111.462 202.941 113.495 202.941C115.528 202.941 116.786 201.997 116.762 200.521C116.738 199.045 115.382 198.101 113.41 198.101C111.438 198.101 110.24 198.9 110.24 200.461L110.192 200.521Z" fill="#263238"/>
<path d="M28.8312 152.024L30.9729 181.27" stroke="#337ACC" stroke-linecap="round" stroke-linejoin="round"/>
<path d="M27.8511 138.702L28.4198 146.41" stroke="#337ACC" stroke-linecap="round" stroke-linejoin="round"/>
<path d="M85.2776 109.614V91.8148" stroke="#337ACC" stroke-linecap="round" stroke-linejoin="round"/>
<path d="M71.1812 113.389L62.2877 97.9738" stroke="#337ACC" stroke-linecap="round" stroke-linejoin="round"/>
<path d="M108.268 97.9738L99.3741 113.389" stroke="#337ACC" stroke-linecap="round" stroke-linejoin="round"/>
<path d="M315.807 425.63C309.693 450.178 307.218 475.491 308.462 500.759" stroke="#337ACC" stroke-miterlimit="10"/>
<path d="M310.156 424.589C310.156 426.84 312.237 434.838 314.5 434.777C316.763 434.717 318.396 426.646 318.336 424.383C318.322 423.846 318.203 423.317 317.985 422.826C317.767 422.335 317.455 421.892 317.065 421.521C316.676 421.151 316.217 420.861 315.716 420.668C315.215 420.475 314.68 420.383 314.143 420.396C313.606 420.41 313.077 420.529 312.586 420.747C312.095 420.965 311.652 421.278 311.281 421.667C310.911 422.056 310.621 422.515 310.428 423.016C310.235 423.517 310.143 424.052 310.156 424.589Z" fill="#337ACC"/>
<path d="M318.953 449.987C318.953 447.724 316.872 439.738 314.621 439.787C312.371 439.835 310.725 447.918 310.773 450.18C310.786 450.718 310.904 451.247 311.122 451.738C311.339 452.23 311.651 452.673 312.04 453.044C312.428 453.415 312.886 453.705 313.387 453.899C313.889 454.093 314.423 454.186 314.96 454.174C315.497 454.161 316.026 454.042 316.518 453.825C317.009 453.608 317.453 453.296 317.823 452.907C318.194 452.518 318.485 452.06 318.679 451.559C318.872 451.058 318.966 450.524 318.953 449.987Z" fill="#337ACC"/>
<path d="M301.856 441.65C304.118 441.65 312.104 439.569 312.044 437.306C311.983 435.043 303.925 433.41 301.662 433.47C301.125 433.483 300.596 433.601 300.104 433.819C299.613 434.036 299.169 434.348 298.798 434.737C298.428 435.125 298.137 435.583 297.943 436.085C297.749 436.586 297.656 437.12 297.669 437.657C297.682 438.194 297.8 438.723 298.017 439.215C298.235 439.706 298.547 440.15 298.935 440.521C299.324 440.891 299.782 441.182 300.283 441.376C300.784 441.569 301.319 441.663 301.856 441.65Z" fill="#337ACC"/>
<path d="M327.254 432.89C325.003 432.89 317.005 434.971 317.065 437.221C317.126 439.472 325.197 441.118 327.459 441.069C327.996 441.056 328.525 440.937 329.017 440.719C329.508 440.501 329.951 440.188 330.321 439.799C330.691 439.409 330.981 438.951 331.174 438.449C331.367 437.948 331.46 437.414 331.446 436.877C331.433 436.339 331.313 435.81 331.095 435.319C330.877 434.828 330.565 434.385 330.176 434.015C329.786 433.645 329.328 433.355 328.826 433.162C328.325 432.969 327.791 432.876 327.254 432.89Z" fill="#337ACC"/>
<path d="M302.461 431.413C304.106 432.974 311.185 437.197 312.746 435.552C314.307 433.906 309.745 427.082 308.111 425.497C307.327 424.747 306.277 424.34 305.192 424.365C304.107 424.39 303.077 424.845 302.328 425.63C301.578 426.414 301.171 427.464 301.196 428.549C301.221 429.634 301.676 430.664 302.461 431.413Z" fill="#337ACC"/>
<path d="M326.649 443.15C325.015 441.589 317.937 437.379 316.376 439.012C314.815 440.646 319.364 447.482 320.998 449.079C321.387 449.45 321.846 449.741 322.347 449.935C322.849 450.129 323.384 450.222 323.922 450.209C324.459 450.196 324.989 450.077 325.481 449.86C325.973 449.642 326.417 449.33 326.788 448.94C327.159 448.551 327.449 448.092 327.643 447.591C327.837 447.089 327.93 446.554 327.917 446.016C327.904 445.479 327.786 444.949 327.568 444.457C327.35 443.965 327.038 443.521 326.649 443.15Z" fill="#337ACC"/>
<path d="M308.68 449.382C310.241 447.736 314.452 440.658 312.818 439.097C311.185 437.536 304.348 442.098 302.751 443.731C302.002 444.517 301.595 445.569 301.621 446.655C301.648 447.741 302.104 448.772 302.89 449.521C303.676 450.27 304.728 450.677 305.814 450.651C306.9 450.624 307.931 450.168 308.68 449.382Z" fill="#337ACC"/>
<path d="M320.429 425.194C318.868 426.827 314.645 433.906 316.291 435.467C317.937 437.028 324.761 432.478 326.346 430.845C326.717 430.456 327.008 429.998 327.202 429.497C327.396 428.997 327.49 428.462 327.477 427.925C327.465 427.388 327.347 426.859 327.13 426.367C326.913 425.876 326.601 425.432 326.213 425.061C325.824 424.69 325.367 424.399 324.866 424.205C324.365 424.011 323.83 423.917 323.293 423.93C322.756 423.942 322.227 424.06 321.736 424.277C321.244 424.494 320.8 424.805 320.429 425.194Z" fill="#337ACC"/>
<path d="M309.709 437.403C309.733 438.359 310.04 439.287 310.591 440.069C311.142 440.851 311.912 441.452 312.805 441.796C313.697 442.141 314.672 442.213 315.605 442.004C316.539 441.794 317.389 441.313 318.05 440.621C318.71 439.929 319.15 439.056 319.315 438.114C319.479 437.172 319.361 436.202 318.975 435.326C318.589 434.451 317.952 433.71 317.144 433.197C316.337 432.683 315.396 432.421 314.44 432.442C313.803 432.456 313.175 432.596 312.593 432.853C312.01 433.11 311.484 433.479 311.044 433.94C310.605 434.401 310.261 434.944 310.031 435.539C309.802 436.133 309.692 436.766 309.709 437.403Z" fill="white"/>
<path d="M309.019 473.412C309.019 473.412 309.854 461.058 316.642 459.11C323.43 457.162 325.91 454.5 325.91 454.5C325.91 454.5 325.221 473.654 309.019 473.412Z" fill="#337ACC"/>
<path opacity="0.5" d="M309.019 473.412C309.019 473.412 309.854 461.058 316.642 459.11C323.43 457.162 325.91 454.5 325.91 454.5C325.91 454.5 325.221 473.654 309.019 473.412Z" fill="white"/>
<path d="M308.123 482.875C308.123 482.875 307.288 470.521 300.5 468.56C293.712 466.6 291.232 463.962 291.232 463.962C291.232 463.962 291.922 483.117 308.123 482.875Z" fill="#337ACC"/>
<path opacity="0.5" d="M308.123 482.875C308.123 482.875 307.288 470.521 300.5 468.56C293.712 466.6 291.232 463.962 291.232 463.962C291.232 463.962 291.922 483.117 308.123 482.875Z" fill="white"/>
<path d="M333.727 508.611C333.727 518.291 322.244 526.06 308.087 526.06C293.93 526.06 282.447 518.255 282.447 508.611C282.447 503.771 285.387 499.319 290.143 496.16C293.139 494.206 296.47 492.82 299.968 492.071H316.206C319.795 492.843 323.206 494.284 326.261 496.318C330.883 499.476 333.727 503.808 333.727 508.611Z" fill="#337ACC"/>
<path opacity="0.8" d="M316.206 492.071C319.795 492.843 323.206 494.284 326.261 496.318C330.883 499.476 333.727 503.808 333.727 508.611C333.727 518.291 322.244 526.06 308.087 526.06C293.93 526.06 282.447 518.255 282.447 508.611C282.447 503.771 285.387 499.319 290.143 496.16C293.139 494.206 296.47 492.82 299.968 492.071H316.206Z" fill="white"/>
<path d="M308.16 493.68V502.307" stroke="#337ACC" stroke-miterlimit="10"/>
<path d="M327.387 491.804L326.031 496.039L326.007 496.088H290.155L290.082 495.858L288.788 491.804H327.387Z" fill="#337ACC"/>
<path d="M330.702 512.12C328.133 515.681 324.758 518.583 320.853 520.59C314.694 523.857 288.788 524.692 285.823 510.003C285.823 509.797 285.714 509.591 285.678 509.386C285.548 508.476 285.627 507.549 285.909 506.674C286.191 505.8 286.669 505.001 287.306 504.339C287.942 503.676 288.722 503.168 289.584 502.851C290.447 502.535 291.37 502.419 292.285 502.513C294.74 502.678 297.207 502.54 299.629 502.102C308.93 500.693 318.421 501.199 327.52 503.59C328.382 503.818 329.176 504.25 329.837 504.849C330.498 505.448 331.005 506.197 331.317 507.032C331.629 507.868 331.735 508.766 331.628 509.651C331.521 510.536 331.204 511.383 330.702 512.12Z" fill="#263238"/>
<path d="M144.737 507.232C144.964 507.144 145.164 507 145.321 506.814C145.477 506.628 145.584 506.405 145.632 506.167C145.679 506.024 145.685 505.87 145.651 505.723C145.617 505.576 145.544 505.441 145.439 505.332C144.507 504.364 140.72 505.054 140.296 505.139C140.247 505.143 140.201 505.163 140.163 505.195C140.126 505.228 140.101 505.272 140.091 505.32C140.081 505.367 140.085 505.416 140.102 505.461C140.119 505.506 140.149 505.545 140.187 505.574C140.943 506.126 141.754 506.596 142.607 506.978C143.266 507.309 144.019 507.399 144.737 507.232ZM145.076 505.671C145.12 505.721 145.151 505.783 145.164 505.849C145.176 505.915 145.171 505.983 145.148 506.046C145.121 506.205 145.053 506.354 144.951 506.479C144.849 506.604 144.717 506.701 144.568 506.76C143.878 507.014 142.559 506.542 140.938 505.55C142.511 505.284 144.58 505.151 145.076 505.671Z" fill="#337ACC"/>
<path d="M140.369 505.623C141.579 505.477 144.193 504.11 144.422 502.924C144.463 502.731 144.434 502.529 144.341 502.355C144.248 502.18 144.097 502.043 143.914 501.968C143.744 501.874 143.555 501.818 143.361 501.803C143.167 501.789 142.972 501.816 142.789 501.884C141.337 502.38 140.151 505.163 140.103 505.284C140.085 505.322 140.076 505.363 140.076 505.405C140.076 505.447 140.085 505.488 140.103 505.526C140.131 505.563 140.169 505.592 140.212 505.611L140.369 505.623ZM143.66 502.404C143.951 502.561 143.963 502.719 143.938 502.828C143.793 503.554 142.015 504.679 140.768 505.03C141.216 504.122 142.087 502.61 142.958 502.344C143.152 502.264 143.369 502.264 143.563 502.344L143.66 502.404Z" fill="#337ACC"/>
<path d="M128.886 500.746L138.736 504.727L147.339 481.967L137.477 477.986L128.886 500.746Z" fill="#FFB573"/>
<path d="M139.982 503.917L128.922 499.452C128.734 499.369 128.522 499.358 128.326 499.421C128.13 499.483 127.964 499.614 127.858 499.791L123.018 507.898C122.903 508.106 122.835 508.336 122.817 508.573C122.799 508.81 122.831 509.049 122.913 509.272C122.994 509.495 123.122 509.699 123.288 509.869C123.454 510.038 123.655 510.171 123.877 510.257C127.773 511.757 129.721 512.278 134.585 514.25C137.586 515.46 141.845 517.529 145.959 519.211C150.073 520.893 152.009 516.948 150.424 515.884C143.394 511.128 143.164 508.382 141.41 505.187C141.097 504.61 140.592 504.16 139.982 503.917Z" fill="#263238"/>
<path d="M147.205 493.136L130.096 486.214L131.669 479.947L150.025 486.662L147.205 493.136Z" fill="#337ACC"/>
<path d="M164.339 229.694C160.866 239.749 150.593 263.417 142.668 253.556C141.241 251.814 140.076 249.873 139.207 247.796C135.856 239.507 135.021 226.076 134.597 223.136L131.899 213.928C131.851 213.771 131.827 213.608 131.826 213.444V208.181C131.826 206.051 133.545 204.78 135.868 204.974C135.868 204.974 139.619 204.538 139.619 206.777L140.345 214.678C140.72 217.425 139.631 221.249 140.272 223.765C142.692 233.24 146.02 233.675 148.113 243.452C151.029 236.398 156.244 224.189 156.244 224.189C159.705 224.624 165.476 226.391 164.339 229.694Z" fill="#FFB573"/>
<path d="M151.924 257.161C151.38 258.01 150.638 258.714 149.761 259.213C148.885 259.712 147.9 259.991 146.892 260.025C145.884 260.06 144.883 259.849 143.974 259.411C143.066 258.974 142.277 258.322 141.676 257.512C140.241 255.606 139.115 253.487 138.336 251.232C135.19 240.911 133.242 234.522 132.976 223.741C134.091 222.614 135.499 221.823 137.042 221.457C138.584 221.092 140.198 221.166 141.7 221.672L146.855 239.132C146.855 239.132 157.345 213.057 161.592 212.125C166.59 211.024 168.671 215.489 170.788 220.982C172.313 224.927 158.761 246.622 151.924 257.161Z" fill="#337ACC"/>
<path d="M194.311 186.025C193.101 192.075 190.463 205.289 194.698 209.33C194.698 209.33 193.04 215.465 181.799 215.465C169.421 215.465 175.882 209.33 175.882 209.33C182.634 207.721 182.453 202.711 181.279 198.004L194.311 186.025Z" fill="#FFB573"/>
<path d="M175.398 171.82C175.471 171.831 175.544 171.831 175.616 171.82C175.728 171.758 175.812 171.656 175.85 171.535C175.888 171.413 175.878 171.281 175.822 171.167C175.499 170.472 175.012 169.865 174.403 169.399C173.794 168.934 173.081 168.622 172.325 168.493C172.262 168.484 172.198 168.489 172.137 168.505C172.076 168.522 172.018 168.551 171.969 168.591C171.919 168.631 171.878 168.68 171.848 168.736C171.817 168.791 171.799 168.853 171.793 168.916C171.784 168.979 171.789 169.043 171.806 169.104C171.822 169.166 171.852 169.223 171.891 169.272C171.931 169.322 171.98 169.363 172.036 169.394C172.092 169.424 172.153 169.443 172.216 169.448C172.812 169.565 173.371 169.82 173.849 170.195C174.326 170.569 174.708 171.052 174.963 171.602C175.01 171.674 175.075 171.732 175.151 171.77C175.228 171.808 175.313 171.826 175.398 171.82Z" fill="#263238"/>
<path d="M171.708 177.047C170.75 178.816 169.553 180.445 168.151 181.887C168.531 182.235 168.982 182.497 169.473 182.654C169.964 182.81 170.483 182.858 170.994 182.795L171.708 177.047Z" fill="#ED893E"/>
<path d="M172.676 175.281C172.857 176.079 172.567 176.829 172.047 176.938C171.526 177.047 170.946 176.491 170.776 175.728C170.607 174.966 170.885 174.179 171.418 174.058C171.95 173.937 172.507 174.47 172.676 175.281Z" fill="#263238"/>
<path d="M171.66 174.022L169.603 173.877C169.603 173.877 170.921 175.172 171.66 174.022Z" fill="#263238"/>
<path opacity="0.2" d="M163.904 224.54C166.045 222.567 167.534 223.16 168.477 224.721C169.457 229.247 163.637 238.733 161.35 242.327L163.904 224.54Z" fill="black"/>
<path d="M213.453 230.505C213.175 235.49 212.703 241.77 211.94 249.671C211.142 258.008 210.004 268.136 208.444 280.442C192 280.442 174.781 280.188 166.783 280.188C167.461 263.841 167.703 247.276 160.37 214.751C160.278 214.348 160.268 213.93 160.341 213.523C160.414 213.116 160.568 212.727 160.793 212.381C161.019 212.034 161.312 211.737 161.655 211.506C161.998 211.275 162.384 211.115 162.79 211.036C167.57 210.17 172.399 209.6 177.25 209.33C183.514 208.882 189.801 208.882 196.065 209.33C204.136 210.068 213.308 211.944 213.308 211.944C213.308 211.944 214.3 214.944 213.453 230.505Z" fill="#337ACC"/>
<path opacity="0.2" d="M213.453 230.505C213.175 235.49 212.703 241.77 211.94 249.671C207.512 244.541 203.325 226.875 204.68 220.837C207.982 223.279 210.884 226.218 213.284 229.549C213.357 229.864 213.414 230.184 213.453 230.505Z" fill="black"/>
<path d="M256.154 252.648L264.624 247.905L266.197 256.532C266.197 256.532 259.058 259.279 255.307 257.355L256.154 252.648Z" fill="#FFB573"/>
<path d="M270.226 248.885L270.819 251.704C270.906 252.137 270.864 252.585 270.699 252.994C270.533 253.402 270.251 253.754 269.887 254.003L266.161 256.52L264.588 247.893L267.504 247.167C267.796 247.094 268.099 247.081 268.396 247.128C268.693 247.176 268.978 247.283 269.232 247.444C269.487 247.604 269.706 247.815 269.877 248.063C270.048 248.31 270.167 248.59 270.226 248.885Z" fill="#FFB573"/>
<path d="M205.346 221.938C208.044 227.432 217.942 248.183 222.286 252.975L223.145 253.87L223.569 254.318C223.714 254.463 223.835 254.596 224.065 254.802C224.846 255.543 225.706 256.197 226.63 256.75C228.28 257.703 230.056 258.42 231.906 258.88C235.148 259.632 238.477 259.945 241.803 259.811C248.001 259.563 254.141 258.522 260.074 256.714L259.07 251.68C256.275 251.922 253.347 252.091 250.515 252.14C247.709 252.223 244.901 252.134 242.106 251.874C239.514 251.688 236.954 251.188 234.483 250.385C233.484 250.05 232.539 249.573 231.676 248.97C231.345 248.737 231.041 248.47 230.768 248.171C230.672 248.072 230.584 247.967 230.502 247.856L230.187 247.481L229.546 246.731C226.206 242.545 217.386 222.362 214.736 217.316L205.346 221.938Z" fill="#FFB573"/>
<path d="M256.021 261.239C249.047 264.945 240.889 265.737 233.333 263.441C226.126 261.123 220.045 256.195 216.284 249.623C211.916 243.198 200.288 225.024 201.764 220.329C203.495 214.715 207.173 211.23 213.32 212.742C217.64 213.783 225.88 234.764 229.873 243.15C231.434 245.485 234.434 249.2 237.786 250.337C243.703 252.382 248.059 251.547 254.254 250.615C255.392 251.293 255.307 252.346 255.876 253.519C256.486 254.71 256.817 256.024 256.842 257.362C256.867 258.7 256.586 260.026 256.021 261.239Z" fill="#337ACC"/>
<path d="M200.409 176.333C198.558 186.28 197.989 190.527 192.278 195.052C183.711 201.852 171.889 197.399 170.74 187.09C169.699 177.81 172.906 163.096 183.215 160.325C185.485 159.702 187.877 159.67 190.163 160.232C192.449 160.793 194.553 161.93 196.276 163.534C197.999 165.138 199.283 167.156 200.007 169.397C200.73 171.637 200.869 174.025 200.409 176.333Z" fill="#FFB573"/>
<path d="M235.717 231.4C233.817 233.566 233.224 234.825 230.575 235.998C227.925 237.172 222.189 236.144 220.362 233.905C220.955 235.648 224.416 238.745 226.231 239.023C224.182 240.147 221.812 240.538 219.511 240.134C217.21 239.729 215.116 238.552 213.574 236.797C213.827 237.888 214.356 238.896 215.11 239.725C215.865 240.553 216.819 241.174 217.882 241.528C194.698 242.133 204.463 231.219 189.943 215.695C173.874 198.513 177.359 184.307 177.359 184.307C177.397 180.769 176.289 177.314 174.201 174.458C171.877 171.481 172.555 167.464 173.293 165.213C174.37 161.91 177.649 160.749 180.795 160.555C181.352 157.3 188.055 157.893 188.866 158.437C189.676 158.982 189.773 158.873 190.511 158.437C192.145 157.385 196.259 156.296 200.663 159.853C203.349 162.031 206.229 165.903 206.326 174.228C206.423 182.855 202.297 193.104 216.575 206.208C224.984 213.904 220.955 230.493 235.717 231.4Z" fill="#263238"/>
<path d="M175.447 177.084C174.322 178.679 173.854 180.646 174.14 182.577C174.552 185.13 177.032 185.299 178.835 183.666C180.638 182.032 182.211 179.08 180.88 176.963C179.549 174.845 176.851 175.148 175.447 177.084Z" fill="#FFB573"/>
<path d="M197.904 280.43C197.904 280.43 192.956 349.896 187.39 395.706C185.716 409.455 181.524 422.777 175.023 435.007L147.75 486.505L133.762 480.999C133.762 480.999 143.442 432.055 162.306 405.362C162.306 405.362 148.198 325.587 166.662 280.188L197.904 280.43Z" fill="#263238"/>
<path opacity="0.2" d="M178.883 297.261C178.883 297.261 183.046 328.721 185.32 347.439C176.79 336.186 170.171 320.481 178.883 297.261Z" fill="black"/>
<path d="M233.224 513.754C233.387 513.573 233.499 513.353 233.55 513.115C233.601 512.877 233.589 512.63 233.515 512.399C233.487 512.25 233.419 512.112 233.319 511.999C233.219 511.887 233.09 511.803 232.946 511.757C231.651 511.322 228.639 513.681 228.3 513.947C228.262 513.98 228.235 514.022 228.22 514.069C228.205 514.116 228.203 514.166 228.215 514.214C228.23 514.258 228.258 514.298 228.294 514.328C228.33 514.357 228.374 514.377 228.421 514.383C229.361 514.526 230.315 514.563 231.264 514.492C231.983 514.48 232.676 514.219 233.224 513.754ZM232.777 512.229C232.841 512.248 232.899 512.286 232.942 512.338C232.985 512.389 233.012 512.453 233.019 512.52C233.072 512.671 233.084 512.833 233.055 512.99C233.025 513.147 232.954 513.294 232.849 513.415C232.365 513.96 230.986 514.153 229.098 513.96C230.332 513.04 232.099 511.987 232.777 512.229Z" fill="#337ACC"/>
<path d="M228.602 514.347C229.558 513.681 231.264 511.249 230.901 510.1C230.844 509.908 230.722 509.743 230.557 509.63C230.392 509.518 230.193 509.466 229.994 509.483C229.801 509.477 229.609 509.513 229.432 509.588C229.255 509.664 229.095 509.776 228.965 509.918C227.912 511.031 228.191 514.032 228.203 514.165C228.21 514.208 228.227 514.249 228.252 514.285C228.277 514.32 228.31 514.35 228.348 514.371C228.392 514.382 228.438 514.382 228.481 514.371C228.523 514.375 228.565 514.367 228.602 514.347ZM229.982 509.979C230.308 509.979 230.393 510.124 230.429 510.233C230.635 510.947 229.607 512.75 228.675 513.633C228.534 512.467 228.763 511.286 229.328 510.257C229.465 510.104 229.656 510.009 229.861 509.991L229.982 509.979Z" fill="#337ACC"/>
<path d="M216.139 515.327L226.739 514.31L223.496 490.231L212.896 491.26L216.139 515.327Z" fill="#FFB573"/>
<path d="M227.453 513.04L215.546 514.19C215.342 514.204 215.15 514.294 215.007 514.441C214.864 514.588 214.78 514.783 214.772 514.988L214.336 524.39C214.336 524.629 214.387 524.865 214.485 525.082C214.582 525.3 214.725 525.495 214.903 525.654C215.082 525.812 215.291 525.932 215.519 526.004C215.747 526.076 215.987 526.099 216.224 526.072C220.362 525.612 222.274 525.176 227.574 524.668C230.792 524.354 235.535 524.233 239.988 523.809C244.441 523.386 244.235 519.03 242.408 518.812C233.938 517.856 232.377 515.557 229.352 513.512C228.793 513.139 228.122 512.972 227.453 513.04Z" fill="#263238"/>
<path d="M208.383 280.418C208.383 280.418 221.947 363.315 224.549 412.416L225.045 500.383L214.07 502.525C214.07 502.525 198.183 446.405 196.344 413.965C191.504 327.91 163.468 327.765 180.335 280.26L208.383 280.418Z" fill="#263238"/>
<path d="M228.687 500.746L210.525 503.227L208.673 496.257L228.094 493.728L228.687 500.746Z" fill="#337ACC"/>
<path d="M130.81 191.483H131.5C131.336 191.482 131.173 191.516 131.022 191.58C130.871 191.645 130.735 191.739 130.622 191.858C130.509 191.977 130.421 192.118 130.364 192.271C130.307 192.425 130.281 192.589 130.29 192.753L131.403 213.819C131.436 214.15 131.59 214.456 131.836 214.68C132.082 214.903 132.402 215.028 132.734 215.029H132.02C131.689 215.025 131.37 214.9 131.125 214.677C130.879 214.454 130.724 214.149 130.689 213.819L129.6 192.753C129.592 192.589 129.617 192.425 129.674 192.271C129.731 192.118 129.819 191.977 129.932 191.858C130.045 191.739 130.182 191.645 130.333 191.58C130.483 191.516 130.646 191.482 130.81 191.483Z" fill="#337ACC"/>
<path opacity="0.1" d="M130.81 191.483H131.5C131.336 191.482 131.173 191.516 131.022 191.58C130.871 191.645 130.735 191.739 130.622 191.858C130.509 191.977 130.421 192.118 130.364 192.271C130.307 192.425 130.281 192.589 130.29 192.753L131.403 213.819C131.436 214.15 131.59 214.456 131.836 214.68C132.082 214.903 132.402 215.028 132.734 215.029H132.02C131.689 215.025 131.37 214.9 131.125 214.677C130.879 214.454 130.724 214.149 130.689 213.819L129.6 192.753C129.592 192.589 129.617 192.425 129.674 192.271C129.731 192.118 129.819 191.977 129.932 191.858C130.045 191.739 130.182 191.645 130.333 191.58C130.483 191.516 130.646 191.482 130.81 191.483Z" fill="white"/>
<path d="M132.201 215.09H140.671C140.992 215.09 141.3 214.962 141.527 214.735C141.754 214.508 141.881 214.201 141.881 213.88L140.78 192.814C140.759 192.473 140.61 192.153 140.364 191.918C140.117 191.682 139.79 191.549 139.449 191.543H130.979C130.815 191.543 130.653 191.576 130.502 191.641C130.351 191.705 130.215 191.8 130.102 191.919C129.988 192.037 129.901 192.178 129.844 192.332C129.786 192.486 129.761 192.65 129.769 192.814L130.871 213.88C130.906 214.209 131.061 214.514 131.306 214.737C131.552 214.96 131.87 215.086 132.201 215.09Z" fill="#337ACC"/>
<path opacity="0.4" d="M132.201 215.09H140.671C140.992 215.09 141.3 214.962 141.527 214.735C141.754 214.508 141.881 214.201 141.881 213.88L140.78 192.814C140.759 192.473 140.61 192.153 140.364 191.918C140.117 191.682 139.79 191.549 139.449 191.543H130.979C130.815 191.543 130.653 191.576 130.502 191.641C130.351 191.705 130.215 191.8 130.102 191.919C129.988 192.037 129.901 192.178 129.844 192.332C129.786 192.486 129.761 192.65 129.769 192.814L130.871 213.88C130.906 214.209 131.061 214.514 131.306 214.737C131.552 214.96 131.87 215.086 132.201 215.09Z" fill="white"/>
<path d="M141.373 213.383C141.38 213.489 141.365 213.595 141.33 213.695C141.294 213.795 141.239 213.886 141.168 213.964C141.015 214.112 140.811 214.195 140.599 214.194H132.359C132.128 214.191 131.908 214.101 131.741 213.942C131.575 213.782 131.476 213.565 131.463 213.335L130.386 192.898C130.379 192.794 130.393 192.69 130.428 192.592C130.464 192.494 130.52 192.404 130.592 192.329C130.665 192.252 130.753 192.19 130.851 192.148C130.949 192.107 131.054 192.086 131.161 192.087H139.401C139.631 192.09 139.852 192.181 140.018 192.34C140.185 192.5 140.284 192.716 140.296 192.947L140.369 194.411L141.373 213.383Z" fill="#263238"/>
<g opacity="0.1">
<path d="M140.369 194.411L137.634 214.17H134.355L137.453 192.063H139.401C139.631 192.066 139.852 192.156 140.018 192.316C140.185 192.476 140.284 192.692 140.296 192.922L140.369 194.411Z" fill="white"/>
<path d="M133.169 214.194H132.431L135.529 192.088H136.267L133.169 214.194Z" fill="white"/>
</g>
<path d="M164.109 282.777C157.948 294.919 154.638 308.306 154.429 321.921C174.999 337.88 194.153 319.186 217.7 322.344C216.877 311.708 213.259 292.094 208.976 282.269C193.379 282.934 178.811 281.373 164.109 282.777Z" fill="#337ACC"/>
<path d="M166.251 278.457C166.251 278.457 164.593 282.729 165.041 282.729H208.25C208.625 282.729 208.928 282.547 208.952 282.305L209.327 278.675C209.327 278.421 209.024 278.203 208.625 278.203H166.929C166.803 278.186 166.676 278.2 166.558 278.245C166.439 278.289 166.334 278.362 166.251 278.457Z" fill="white"/>
<path d="M172.337 283.14H171.224C170.994 283.14 170.825 283.019 170.837 282.874L171.369 278.034C171.369 277.889 171.575 277.78 171.793 277.78H172.918C173.136 277.78 173.305 277.889 173.293 278.034L172.773 282.874C172.739 282.96 172.678 283.032 172.6 283.08C172.521 283.128 172.429 283.149 172.337 283.14Z" fill="#337ACC"/>
<path d="M199.393 283.14H198.28C198.062 283.14 197.892 283.019 197.904 282.874L198.425 278.034C198.425 277.889 198.63 277.78 198.86 277.78H199.974C200.191 277.78 200.361 277.889 200.349 278.034L199.828 282.874C199.78 282.971 199.623 283.14 199.393 283.14Z" fill="#337ACC"/>
</g>
<defs>
<clipPath id="clip0_4_1819">
<rect width="555" height="605" fill="white"/>
</clipPath>
</defs>
</svg>
