<svg xmlns="http://www.w3.org/2000/svg" width="1879" height="558" viewBox="0 0 1879 558">
<g>
<path d="M 149.00,477.33 L 147.54,477.83 L 144.33,478.70 L 142.68,479.12 L 139.16,479.83 L 137.37,480.16 L 133.61,480.70 L 131.71,480.95 L 127.77,481.31 L 123.81,481.62 L 122.95,481.63 L 123.42,481.60 L 125.79,481.44 L 127.08,481.33 L 129.71,481.09 L 131.14,480.94 L 138.28,479.91 L 142.98,478.94 L 145.30,478.32 L 149.90,476.97 L 150.02,476.93 M 442.75,471.46 L 442.82,471.50 L 442.50,471.50 L 442.47,471.17 M 479.65,469.74 L 479.54,469.85 L 479.10,470.05 L 478.84,470.15 L 478.08,470.33 L 477.66,470.41 L 476.56,470.56 L 475.97,470.63 L 474.51,470.76 L 473.74,470.82 L 471.90,470.92 L 471.52,470.94 L 471.79,470.92 L 473.50,470.76 L 475.16,470.59 L 475.87,470.51 L 477.22,470.33 L 477.75,470.24 L 478.73,470.07 L 479.06,469.98 L 479.60,469.80 L 479.65,469.74 M 442.42,466.98 L 442.25,468.31 L 442.25,468.29 L 442.31,467.66 L 442.35,467.31 L 442.50,466.55 M 186.57,454.45 L 184.30,456.58 L 183.24,457.57 L 181.58,459.11 L 179.87,460.65 L 179.04,461.36 L 177.09,462.86 L 176.06,463.61 L 173.76,465.15 L 171.39,466.70 L 170.13,467.42 L 171.63,466.43 L 175.69,463.65 L 177.66,462.14 L 181.55,459.02 L 183.42,457.34 L 185.85,455.11 L 186.90,454.13 M 444.56,459.20 L 444.72,458.70 L 444.89,458.20 M 659.61,27.52 L 662.48,27.54 L 663.86,27.56 L 666.31,27.61 L 667.49,27.64 L 669.60,27.73 L 670.61,27.78 L 672.43,27.91 L 674.18,28.05 L 677.08,28.47 L 681.00,29.36 L 683.35,30.01 L 687.91,31.50 L 690.17,32.28 L 694.55,34.00 L 696.71,34.89 L 700.89,36.83 L 702.96,37.83 L 706.93,40.00 L 708.90,41.10 L 712.65,43.48 L 714.50,44.69 L 718.03,47.27 L 719.77,48.59 L 723.06,51.37 L 727.72,55.75 L 728.77,56.82 L 730.95,59.27 L 732.05,60.54 L 734.26,63.30 L 736.47,66.12 L 740.68,72.27 L 741.70,73.81 L 743.59,76.88 L 744.50,78.40 L 746.14,81.37 L 746.93,82.82 L 748.25,85.57 L 749.80,89.33 L 750.40,91.00 L 751.22,93.84 L 751.40,94.57 L 751.69,96.13 L 751.82,96.94 L 752.03,98.82 L 752.13,99.81 L 752.29,102.18 L 752.36,103.45 L 752.48,106.50 L 752.53,108.14 L 752.63,112.07 L 752.65,113.11 L 752.70,115.40 L 752.77,119.15 L 752.81,121.42 L 752.87,125.42 L 752.89,127.34 L 752.91,130.70 L 752.91,132.31 L 752.88,135.13 L 752.86,136.48 L 752.78,138.86 L 752.74,140.00 L 752.61,142.03 L 752.54,143.01 L 752.35,144.78 L 751.57,149.65 L 751.08,152.04 L 749.60,156.89 L 748.79,159.32 L 746.70,164.16 L 745.58,166.56 L 742.94,171.26 L 738.42,178.00 L 738.25,178.22 L 737.54,179.05 L 737.12,179.52 L 735.93,180.83 L 735.28,181.54 L 733.63,183.29 L 732.76,184.22 L 730.69,186.40 L 729.60,187.54 L 727.13,190.12 L 725.85,191.45 L 723.01,194.40 L 721.55,195.91 L 718.37,199.20 L 716.73,200.88 L 713.23,204.47 L 711.44,206.31 L 707.65,210.19 L 705.72,212.17 L 701.67,216.31 L 699.61,218.41 L 695.32,222.78 L 693.14,224.99 L 688.64,229.56 L 684.09,234.18 L 674.48,243.90 L 659.51,259.00 L 656.51,262.02 L 650.80,267.76 L 647.99,270.59 L 642.65,275.96 L 640.03,278.60 L 635.05,283.61 L 632.60,286.07 L 627.97,290.74 L 625.70,293.03 L 621.40,297.36 L 619.29,299.48 L 615.31,303.49 L 613.36,305.46 L 609.69,309.16 L 607.90,310.97 L 604.53,314.38 L 602.88,316.04 L 599.79,319.17 L 598.28,320.69 L 595.47,323.55 L 594.09,324.94 L 591.54,327.54 L 590.29,328.81 L 587.99,331.17 L 586.86,332.32 L 584.79,334.44 L 583.79,335.48 L 581.94,337.39 L 581.04,338.32 L 579.40,340.02 L 578.61,340.85 L 577.17,342.37 L 575.77,343.84 L 573.53,346.27 L 572.49,347.40 L 570.88,349.24 L 570.14,350.09 L 569.06,351.44 L 568.57,352.06 L 567.92,353.02 L 567.64,353.47 L 567.33,354.16 L 567.20,354.47 L 567.12,354.99 L 567.29,356.38 L 567.32,356.60 L 567.73,357.75 L 567.99,358.44 L 568.81,360.43 L 569.26,361.52 L 570.44,364.26 L 571.07,365.71 L 572.56,369.07 L 573.34,370.83 L 575.10,374.72 L 576.00,376.72 L 577.59,380.19 L 573.96,372.43 L 571.70,367.58 L 569.46,362.78 L 568.39,360.48 L 566.29,355.97 L 565.32,353.87 L 563.42,349.80 L 562.58,347.97 L 560.96,344.48 L 560.28,343.00 L 550.36,321.50 L 528.93,321.23 L 507.50,320.97 L 488.27,362.23 L 480.07,379.84 L 477.29,385.79 L 475.93,388.71 L 473.23,394.50 L 471.93,397.28 L 469.37,402.76 L 468.18,405.31 L 465.85,410.29 L 464.80,412.54 L 462.78,416.87 L 461.91,418.73 L 461.06,420.53 L 460.68,421.34 L 459.95,422.92 L 459.62,423.61 L 454.87,433.93 L 452.08,440.19 L 450.87,443.02 L 448.58,448.46 L 447.63,450.87 L 446.07,454.90 L 446.39,454.00 L 446.99,452.42 L 448.03,449.48 L 448.52,448.07 L 449.28,445.67 L 449.62,444.57 L 450.02,442.98 L 450.09,442.65 L 450.16,442.18 L 450.12,441.80 L 450.04,441.71 L 449.21,441.68 L 448.70,441.69 L 447.19,441.86 L 446.36,441.97 L 444.35,442.30 L 441.00,442.98 L 437.32,443.79 L 430.11,445.03 L 426.48,445.60 L 418.87,446.39 L 416.91,446.57 L 412.81,446.84 L 410.73,446.96 L 406.31,447.15 L 404.06,447.22 L 399.25,447.32 L 391.50,447.37 L 389.04,447.37 L 384.89,447.36 L 382.91,447.35 L 379.56,447.29 L 377.96,447.26 L 375.17,447.15 L 373.83,447.09 L 371.39,446.90 L 369.00,446.69 L 364.28,445.96 L 363.04,445.74 L 360.27,445.21 L 355.50,444.23 L 350.99,443.29 L 342.32,441.12 L 338.04,439.99 L 329.80,437.41 L 325.72,436.07 L 317.84,433.06 L 313.94,431.49 L 306.36,428.02 L 302.61,426.22 L 295.28,422.26 L 291.64,420.22 L 284.50,415.74 L 280.95,413.43 L 273.95,408.41 L 263.53,400.23 L 255.98,393.96 L 255.90,393.82 L 255.67,393.53 L 255.08,392.83 L 254.61,392.27 L 252.73,390.04 L 287.26,354.77 L 291.33,350.63 L 294.54,347.38 L 296.37,345.52 L 300.19,341.66 L 302.31,339.52 L 306.68,335.11 L 309.07,332.71 L 313.95,327.78 L 316.58,325.15 L 321.93,319.76 L 324.77,316.91 L 330.54,311.11 L 333.56,308.07 L 339.70,301.91 L 342.90,298.71 L 349.36,292.23 L 352.69,288.89 L 359.42,282.14 L 362.88,278.68 L 376.90,264.64 L 384.13,257.41 L 398.71,242.83 L 406.08,235.47 L 420.84,220.74 L 428.15,213.45 L 534.50,107.40 L 532.66,105.84 L 533.66,106.55 L 534.50,107.00 L 534.55,107.00 L 535.06,106.61 L 535.38,106.35 L 536.36,105.48 L 536.91,104.99 L 538.31,103.70 L 539.06,103.00 L 540.83,101.34 L 541.76,100.47 L 543.84,98.49 L 544.91,97.46 L 547.24,95.22 L 554.91,87.74 L 557.50,85.20 L 562.36,80.46 L 564.74,78.15 L 569.23,73.84 L 571.43,71.75 L 575.57,67.86 L 577.61,65.96 L 581.44,62.46 L 583.33,60.75 L 586.89,57.61 L 588.64,56.08 L 591.96,53.28 L 593.60,51.91 L 596.72,49.42 L 598.25,48.20 L 601.20,45.99 L 602.66,44.92 L 605.47,42.97 L 606.86,42.02 L 609.58,40.31 L 612.27,38.64 L 617.50,35.91 L 620.11,34.63 L 625.37,32.51 L 633.62,29.78 L 635.32,29.29 L 638.30,28.59 L 639.79,28.29 L 643.02,27.91 L 643.89,27.82 L 645.82,27.71 L 646.83,27.66 L 649.14,27.59 L 650.35,27.56 L 653.14,27.53 L 658.00,27.52 M 540.50,411.90 L 538.13,411.94 L 536.85,411.95 L 531.46,412.00 L 528.50,412.00 L 523.83,411.98 L 520.94,411.95 L 519.63,411.93 L 518.88,411.92 L 530.75,411.95 L 533.40,411.96 L 538.22,411.92 L 539.37,411.91 L 540.74,411.89 M 530.61,368.26 L 531.07,368.66 L 531.33,368.95 L 532.46,370.36 L 533.01,371.25 L 533.50,372.19 L 533.97,373.16 L 534.27,373.79 L 534.90,375.16 L 535.26,375.97 L 536.02,377.67 L 536.44,378.62 L 538.22,382.67 L 539.20,384.94 L 541.19,389.59 L 542.20,391.96 L 544.19,396.69 L 545.11,398.91 L 546.88,403.19 L 547.60,404.98 L 548.30,406.71 L 548.59,407.45 L 549.14,408.85 L 549.35,409.41 L 549.72,410.42 L 549.83,410.75 L 550.00,411.31 L 550.00,411.39 L 549.90,411.06 L 549.83,410.85 L 549.60,410.22 L 549.47,409.87 L 549.13,408.98 L 548.94,408.50 L 548.50,407.38 L 548.04,406.20 L 546.88,403.31 L 544.90,398.44 L 544.36,397.13 L 543.42,394.89 L 542.98,393.84 L 542.21,392.09 L 541.85,391.28 L 541.23,389.97 L 540.93,389.37 L 540.42,388.45 L 540.18,388.04 L 539.76,387.47 L 539.55,387.22 L 539.19,386.94 L 538.15,386.96 L 538.04,387.02 L 537.56,387.39 L 537.29,387.61 L 536.52,388.26 L 536.11,388.62 L 535.09,389.53 L 534.55,390.01 L 533.31,391.13 L 532.03,392.30 L 528.98,395.15 L 524.00,399.89 L 511.72,411.68 L 511.08,411.65 L 510.36,411.60 L 509.02,411.49 L 508.52,411.44 L 507.64,411.32 L 507.39,411.25 L 507.00,411.11 L 507.00,411.04 L 507.10,410.60 L 507.27,410.09 L 507.40,409.74 L 508.03,408.09 L 508.49,406.96 L 509.49,404.52 L 510.08,403.09 L 511.34,400.13 L 512.02,398.54 L 514.87,392.01 L 516.23,388.99 L 517.57,386.06 L 518.16,384.79 L 519.29,382.40 L 519.74,381.50 L 522.31,377.06 L 524.37,374.02 L 525.39,372.67 L 526.41,371.38 L 526.89,370.81 L 527.82,369.75 L 528.23,369.33 L 529.01,368.58 L 529.33,368.35 L 529.90,368.00 L 530.08,368.00 M 483.83,71.22 L 491.82,75.61 L 495.79,77.89 L 503.63,83.00 L 507.54,85.65 L 515.33,91.52 L 519.60,95.05 L 515.56,91.77 L 507.43,85.68 L 503.42,82.97 L 495.44,77.76 L 491.44,75.45 L 483.58,71.10 M 430.59,53.77 L 425.50,52.92 L 430.59,53.77 M 615.79,467.70 L 615.71,467.22 L 615.49,466.18 L 615.32,465.55 L 614.94,464.21 L 614.69,463.42 L 614.14,461.76 L 613.80,460.80 L 613.07,458.82 L 612.64,457.70 L 611.73,455.38 L 611.21,454.09 L 610.12,451.43 L 609.51,449.96 L 608.23,446.95 L 607.52,445.30 L 606.52,442.97 L 607.54,445.33 L 608.26,447.00 L 609.55,450.04 L 610.18,451.51 L 611.27,454.19 L 611.80,455.48 L 612.70,457.79 L 613.13,458.91 L 613.85,460.88 L 614.19,461.83 L 614.74,463.47 L 614.99,464.25 L 615.36,465.58 L 615.52,466.20 L 615.73,467.23 L 615.81,467.70 L 615.85,468.44 L 615.74,469.23 L 615.84,468.44 Z" fill="rgba(57,164,231,1)"/>
<path d="M 398.45,50.24 L 405.19,50.58 L 408.57,50.80 L 415.33,51.49 L 425.50,52.92 L 430.63,53.78 L 440.30,55.80 L 445.04,56.87 L 454.05,59.37 L 458.48,60.70 L 466.99,63.76 L 471.20,65.38 L 479.38,69.08 L 483.44,71.03 L 491.44,75.45 L 495.44,77.76 L 503.42,82.97 L 507.43,85.68 L 515.56,91.77 L 528.10,101.95 L 534.50,107.40 L 428.15,213.45 L 420.84,220.74 L 406.08,235.47 L 398.71,242.83 L 384.13,257.41 L 376.90,264.64 L 362.88,278.68 L 359.42,282.14 L 352.69,288.89 L 349.36,292.23 L 342.90,298.71 L 339.70,301.91 L 333.56,308.07 L 330.54,311.11 L 324.77,316.91 L 321.93,319.76 L 316.58,325.15 L 313.95,327.78 L 309.07,332.71 L 306.68,335.11 L 302.31,339.52 L 300.19,341.66 L 296.37,345.52 L 294.54,347.38 L 291.33,350.63 L 287.26,354.77 L 252.73,390.04 L 254.61,392.27 L 255.08,392.83 L 255.67,393.53 L 255.90,393.82 L 256.00,394.00 L 255.99,394.03 L 255.59,393.72 L 254.44,392.76 L 254.73,392.91 L 254.47,392.50 L 254.12,392.07 L 253.28,391.07 L 252.68,390.38 L 251.36,388.89 L 250.55,388.00 L 245.08,381.84 L 241.68,377.82 L 240.09,375.84 L 233.95,367.94 L 231.15,363.88 L 225.69,355.62 L 223.06,351.12 L 220.43,346.55 L 219.11,344.14 L 216.47,339.21 L 215.13,336.59 L 209.91,325.57 L 206.80,318.10 L 205.43,314.32 L 202.82,306.72 L 201.70,302.87 L 199.58,295.13 L 198.71,291.22 L 197.09,283.36 L 196.47,279.39 L 195.35,271.43 L 194.98,267.40 L 194.37,259.34 L 194.25,255.27 L 194.14,247.11 L 194.28,243.00 L 194.73,234.33 L 195.19,228.82 L 195.53,226.12 L 196.28,220.74 L 196.77,218.01 L 197.86,212.50 L 198.55,209.62 L 200.03,203.75 L 200.94,200.60 L 202.88,194.12 L 204.04,190.56 L 205.23,186.95 L 205.88,185.05 L 207.21,181.19 L 207.93,179.15 L 209.41,175.01 L 210.20,172.82 L 211.83,168.36 L 212.70,166.00 L 215.38,158.93 L 217.11,154.52 L 217.89,152.61 L 218.64,150.77 L 218.98,149.95 L 219.64,148.39 L 219.93,147.74 L 220.47,146.52 L 220.69,146.06 L 221.10,145.24 L 221.24,145.00 L 221.84,143.95 L 222.14,143.41 L 222.22,143.23 L 222.35,142.91 L 222.35,142.84 L 222.30,142.76 L 222.20,142.81 L 221.96,142.97 L 221.75,143.15 L 221.29,143.56 L 220.97,143.87 L 220.27,144.54 L 219.83,144.98 L 218.88,145.92 L 218.31,146.50 L 202.04,162.84 L 191.70,173.23 L 186.77,178.17 L 177.09,187.90 L 176.75,188.24 L 177.64,187.34 L 182.60,182.30 L 185.04,179.81 L 189.72,175.05 L 192.02,172.71 L 196.39,168.25 L 198.53,166.06 L 202.55,161.95 L 204.51,159.94 L 208.16,156.20 L 209.93,154.38 L 213.16,151.04 L 214.72,149.43 L 217.50,146.54 L 218.84,145.15 L 221.15,142.73 L 222.25,141.58 L 224.05,139.67 L 224.89,138.78 L 226.15,137.41 L 227.41,135.99 L 228.97,134.11 L 232.49,130.09 L 234.30,128.05 L 238.19,123.82 L 242.15,119.57 L 250.54,111.08 L 252.62,109.01 L 256.71,105.07 L 258.73,103.15 L 262.57,99.63 L 264.44,97.93 L 267.87,94.97 L 272.38,91.34 L 275.21,89.22 L 280.96,85.21 L 283.85,83.24 L 289.72,79.56 L 292.67,77.76 L 298.65,74.39 L 301.66,72.76 L 307.75,69.72 L 310.81,68.25 L 317.00,65.54 L 320.10,64.23 L 326.39,61.86 L 329.54,60.71 L 335.91,58.67 L 339.10,57.70 L 345.54,55.99 L 348.77,55.18 L 355.28,53.81 L 358.55,53.17 L 365.12,52.14 L 368.42,51.67 L 375.04,50.98 L 378.36,50.68 L 385.04,50.33 L 388.38,50.20 L 395.09,50.20 M 30.50,343.00 L 30.82,342.38 L 30.82,342.38 M 37.75,331.44 L 37.13,332.28 L 37.46,331.82 L 37.84,331.32 M 82.25,283.59 L 77.89,288.05 L 75.86,290.13 L 71.90,294.20 L 70.07,296.09 L 66.50,299.78 L 64.85,301.50 L 61.63,304.85 L 60.16,306.40 L 57.28,309.42 L 55.97,310.82 L 53.41,313.54 L 52.24,314.80 L 49.98,317.25 L 48.95,318.38 L 46.95,320.57 L 46.05,321.59 L 44.31,323.55 L 43.52,324.46 L 42.00,326.22 L 41.31,327.04 L 38.88,329.98 L 39.23,329.53 L 40.17,328.35 L 42.35,325.73 L 43.50,324.38 L 46.16,321.34 L 47.57,319.76 L 50.81,316.21 L 52.51,314.37 L 56.41,310.22 L 58.45,308.06 L 63.10,303.22 L 64.31,301.96 L 66.88,299.30 L 68.20,297.95 L 70.99,295.08 L 72.41,293.62 L 75.42,290.54 L 76.96,288.97 L 80.21,285.66 L 81.86,283.98 L 83.01,282.81 Z" fill="rgba(246,61,92,1)"/>
<path d="M 222.35,142.84 L 222.35,142.91 L 222.22,143.23 L 222.14,143.41 L 221.84,143.95 L 221.24,145.00 L 221.10,145.24 L 220.69,146.06 L 220.47,146.52 L 219.93,147.74 L 219.64,148.39 L 218.98,149.95 L 218.64,150.77 L 217.89,152.61 L 217.11,154.52 L 215.38,158.93 L 212.70,166.00 L 211.83,168.36 L 210.20,172.82 L 209.41,175.01 L 207.93,179.15 L 207.21,181.19 L 205.88,185.05 L 205.23,186.95 L 204.04,190.56 L 202.88,194.12 L 200.94,200.60 L 200.03,203.75 L 198.55,209.62 L 197.86,212.50 L 196.77,218.01 L 196.28,220.74 L 195.53,226.12 L 195.19,228.82 L 194.73,234.33 L 194.28,243.00 L 194.14,247.11 L 194.25,255.27 L 194.37,259.34 L 194.98,267.40 L 195.35,271.43 L 196.47,279.39 L 197.09,283.36 L 198.71,291.22 L 199.58,295.13 L 201.70,302.87 L 202.82,306.72 L 205.43,314.32 L 206.80,318.10 L 209.91,325.57 L 215.13,336.59 L 216.47,339.21 L 219.11,344.14 L 220.43,346.55 L 223.06,351.12 L 225.69,355.62 L 231.15,363.88 L 233.95,367.94 L 240.09,375.84 L 241.68,377.82 L 245.08,381.84 L 250.55,388.00 L 251.36,388.89 L 252.68,390.38 L 253.28,391.07 L 254.12,392.07 L 254.47,392.50 L 254.73,392.91 L 254.39,392.74 L 254.14,392.52 L 253.64,392.24 L 253.37,392.14 L 252.67,392.25 L 252.27,392.38 L 251.13,393.08 L 250.81,393.30 L 250.04,393.90 L 249.63,394.22 L 248.67,395.03 L 248.16,395.46 L 246.97,396.51 L 246.35,397.07 L 244.92,398.39 L 244.16,399.09 L 242.45,400.71 L 241.55,401.55 L 239.53,403.49 L 238.47,404.50 L 236.11,406.78 L 234.88,407.97 L 232.14,410.62 L 230.73,411.99 L 227.59,415.04 L 222.41,420.08 L 218.30,424.08 L 210.08,432.03 L 208.06,433.97 L 204.16,437.72 L 202.24,439.57 L 198.62,443.03 L 196.85,444.72 L 193.61,447.80 L 192.05,449.29 L 189.31,451.88 L 188.00,453.11 L 185.85,455.11 L 183.42,457.34 L 181.55,459.02 L 177.66,462.14 L 175.69,463.65 L 171.63,466.43 L 169.58,467.77 L 165.36,470.20 L 163.23,471.37 L 158.86,473.45 L 156.66,474.44 L 152.16,476.16 L 149.90,476.97 L 145.30,478.32 L 142.98,478.94 L 138.28,479.91 L 131.14,480.94 L 129.71,481.09 L 127.08,481.33 L 125.79,481.44 L 123.42,481.60 L 121.10,481.75 L 116.89,481.82 L 114.80,481.82 L 110.61,481.60 L 108.46,481.46 L 103.68,480.94 L 101.83,480.73 L 98.15,480.10 L 96.31,479.75 L 92.67,478.85 L 89.04,477.89 L 81.95,475.21 L 78.45,473.75 L 71.66,470.13 L 68.32,468.20 L 61.93,463.70 L 58.79,461.34 L 52.89,456.02 L 50.00,453.26 L 44.66,447.20 L 42.07,444.07 L 37.39,437.32 L 31.20,426.50 L 29.58,423.24 L 26.92,416.48 L 25.69,413.06 L 23.81,406.06 L 22.97,402.54 L 21.87,395.41 L 21.42,391.84 L 21.10,384.70 L 21.04,381.13 L 21.51,374.07 L 21.85,370.56 L 23.10,363.69 L 23.83,360.29 L 25.87,353.73 L 29.83,344.34 L 30.91,342.19 L 33.07,338.27 L 33.67,337.25 L 35.09,335.09 L 35.86,333.97 L 37.75,331.44 L 38.77,330.12 L 41.31,327.04 L 42.00,326.22 L 43.52,324.46 L 44.31,323.55 L 46.05,321.59 L 46.95,320.57 L 48.95,318.38 L 49.98,317.25 L 52.24,314.80 L 53.41,313.54 L 55.97,310.82 L 57.28,309.42 L 60.16,306.40 L 61.63,304.85 L 64.85,301.50 L 66.50,299.78 L 70.07,296.09 L 71.90,294.20 L 75.86,290.13 L 77.89,288.05 L 82.25,283.59 L 84.49,281.31 L 89.28,276.43 L 91.73,273.93 L 96.98,268.61 L 99.66,265.89 L 105.38,260.10 L 108.30,257.14 L 114.52,250.86 L 117.69,247.66 L 124.43,240.86 L 127.87,237.40 L 135.15,230.07 L 138.86,226.33 L 146.71,218.43 L 150.71,214.41 L 159.14,205.93 L 163.44,201.61 L 172.49,192.52 L 177.09,187.90 L 186.77,178.17 L 191.70,173.23 L 202.04,162.84 L 218.31,146.50 L 218.88,145.92 L 219.83,144.98 L 220.27,144.54 L 220.97,143.87 L 221.29,143.56 L 221.75,143.15 L 221.96,142.97 L 222.20,142.81 L 222.30,142.76 Z" fill="rgba(253,154,3,1)"/>
<path d="M 442.75,471.46 L 442.44,471.13 L 442.21,469.85 L 442.15,469.10 L 442.42,466.98 L 442.62,465.82 L 443.40,462.86 L 443.85,461.28 L 445.14,457.49 L 445.84,455.49 L 447.63,450.87 L 448.58,448.46 L 450.87,443.02 L 452.08,440.19 L 454.87,433.93 L 459.62,423.61 L 459.95,422.92 L 460.68,421.34 L 461.06,420.53 L 461.91,418.73 L 462.78,416.87 L 464.80,412.54 L 465.85,410.29 L 468.18,405.31 L 469.37,402.76 L 471.93,397.28 L 473.23,394.50 L 475.93,388.71 L 477.29,385.79 L 480.07,379.84 L 488.27,362.23 L 507.50,320.97 L 528.93,321.23 L 550.36,321.50 L 560.28,343.00 L 560.96,344.48 L 562.58,347.97 L 563.42,349.80 L 565.32,353.87 L 566.29,355.97 L 568.39,360.48 L 569.46,362.78 L 571.70,367.58 L 573.96,372.43 L 578.61,382.38 L 579.77,384.84 L 582.01,389.63 L 585.24,396.50 L 586.67,399.54 L 589.36,405.30 L 590.68,408.13 L 593.16,413.47 L 594.38,416.09 L 596.65,421.02 L 597.76,423.43 L 599.82,427.96 L 600.83,430.18 L 602.69,434.31 L 603.59,436.34 L 605.25,440.09 L 606.06,441.92 L 607.52,445.30 L 608.23,446.95 L 609.51,449.96 L 610.12,451.43 L 611.21,454.09 L 611.73,455.38 L 612.64,457.70 L 613.07,458.82 L 613.80,460.80 L 614.14,461.76 L 614.69,463.42 L 614.94,464.21 L 615.32,465.55 L 615.49,466.18 L 615.71,467.22 L 615.79,467.70 L 615.84,468.44 L 615.74,469.23 L 615.64,469.49 L 614.87,469.96 L 614.39,470.18 L 612.96,470.59 L 612.17,470.79 L 610.21,471.12 L 609.17,471.27 L 606.80,471.52 L 604.35,471.74 L 598.78,471.88 L 590.43,471.53 L 589.27,471.42 L 587.22,471.12 L 586.23,470.95 L 584.48,470.49 L 583.64,470.24 L 582.13,469.58 L 581.39,469.23 L 580.06,468.32 L 579.40,467.83 L 578.17,466.62 L 577.56,465.97 L 576.38,464.42 L 575.79,463.59 L 574.58,461.64 L 572.68,458.21 L 571.70,456.34 L 569.60,452.91 L 569.11,452.13 L 568.24,450.90 L 567.23,449.71 L 566.82,449.34 L 565.71,448.69 L 565.10,448.39 L 563.49,447.87 L 562.61,447.63 L 560.36,447.22 L 559.14,447.04 L 556.10,446.74 L 554.46,446.60 L 550.49,446.39 L 549.44,446.34 L 547.12,446.26 L 545.93,446.22 L 543.34,446.16 L 542.00,446.13 L 539.11,446.09 L 537.63,446.07 L 534.42,446.04 L 532.77,446.02 L 529.23,446.01 L 523.52,446.00 L 521.71,446.00 L 518.39,446.00 L 516.78,446.00 L 513.85,446.01 L 512.43,446.01 L 509.86,446.02 L 508.62,446.03 L 506.38,446.05 L 505.30,446.06 L 503.37,446.08 L 502.44,446.10 L 500.79,446.13 L 499.21,446.17 L 496.80,446.28 L 495.70,446.34 L 494.09,446.50 L 493.37,446.60 L 492.36,446.83 L 491.92,446.95 L 491.32,447.26 L 490.65,447.83 L 490.43,448.08 L 489.69,449.28 L 489.29,449.98 L 488.29,451.89 L 487.77,452.91 L 486.64,455.28 L 484.93,459.08 L 484.37,460.38 L 483.26,462.83 L 482.71,464.02 L 481.71,466.09 L 481.24,467.05 L 480.46,468.50 L 479.68,469.71 L 479.60,469.80 L 479.06,469.98 L 478.73,470.07 L 477.75,470.24 L 477.22,470.33 L 475.87,470.51 L 475.16,470.59 L 473.50,470.76 L 471.79,470.92 L 467.72,471.22 L 465.61,471.36 L 461.16,471.59 L 458.93,471.70 L 454.61,471.84 L 452.51,471.90 L 448.84,471.92 L 447.99,471.92 L 446.49,471.89 L 445.79,471.87 L 444.63,471.81 L 444.10,471.77 L 443.35,471.66 L 443.03,471.61 M 550.00,411.39 L 550.00,411.31 L 549.83,410.75 L 549.72,410.42 L 549.35,409.41 L 549.14,408.85 L 548.59,407.45 L 548.30,406.71 L 547.60,404.98 L 546.88,403.19 L 545.11,398.91 L 544.19,396.69 L 542.20,391.96 L 541.19,389.59 L 539.20,384.94 L 538.22,382.67 L 536.44,378.62 L 536.02,377.67 L 535.26,375.97 L 534.90,375.16 L 534.27,373.79 L 533.97,373.16 L 533.50,372.19 L 533.01,371.25 L 532.46,370.36 L 531.33,368.95 L 531.07,368.66 L 530.61,368.26 L 530.08,368.00 L 529.90,368.00 L 529.33,368.35 L 529.01,368.58 L 528.23,369.33 L 527.82,369.75 L 526.89,370.81 L 526.41,371.38 L 525.39,372.67 L 524.37,374.02 L 522.31,377.06 L 519.74,381.50 L 519.29,382.40 L 518.16,384.79 L 517.57,386.06 L 516.23,388.99 L 514.87,392.01 L 512.02,398.54 L 511.34,400.13 L 510.08,403.09 L 509.49,404.52 L 508.49,406.96 L 508.03,408.09 L 507.40,409.74 L 507.27,410.09 L 507.10,410.60 L 507.00,411.04 L 507.00,411.11 L 507.39,411.25 L 507.64,411.32 L 508.52,411.44 L 509.02,411.49 L 510.36,411.60 L 511.08,411.65 L 512.85,411.74 L 513.79,411.78 L 515.96,411.85 L 517.09,411.88 L 519.63,411.93 L 520.94,411.95 L 523.83,411.98 L 528.50,412.00 L 531.46,412.00 L 536.85,411.95 L 538.13,411.94 L 540.50,411.90 L 541.64,411.87 L 543.68,411.82 L 544.66,411.79 L 546.32,411.73 L 547.09,411.70 L 548.30,411.63 L 548.85,411.59 L 549.56,411.51 L 549.85,411.47 M 667.75,471.31 L 667.54,471.26 L 667.20,470.84 L 667.04,470.54 L 666.78,469.27 L 666.72,468.87 L 666.61,467.84 L 666.56,467.28 L 666.47,465.86 L 666.43,465.10 L 666.35,463.25 L 666.32,462.26 L 666.26,459.90 L 666.23,458.65 L 666.18,455.73 L 666.16,454.20 L 666.12,450.65 L 666.10,448.80 L 666.07,444.57 L 666.06,442.37 L 666.04,437.39 L 666.03,434.81 L 666.02,429.03 L 666.01,426.04 L 666.01,419.39 L 666.00,415.96 L 666.00,408.39 L 666.00,395.93 L 666.00,321.00 L 679.85,321.00 L 683.66,321.00 L 691.44,320.81 L 693.26,320.75 L 696.37,320.61 L 697.09,320.57 L 698.34,320.49 L 699.85,320.36 L 706.00,319.72 L 706.00,378.86 L 706.00,438.00 L 743.75,438.00 L 748.94,438.00 L 759.53,438.06 L 762.15,438.07 L 767.26,438.12 L 769.78,438.14 L 774.60,438.20 L 776.95,438.23 L 781.33,438.29 L 783.45,438.33 L 787.24,438.41 L 789.05,438.44 L 792.12,438.53 L 795.75,438.66 L 810.00,439.31 L 810.00,455.00 L 810.00,470.69 L 798.75,471.34 L 798.36,471.37 L 797.28,471.41 L 796.70,471.43 L 795.25,471.47 L 794.48,471.49 L 792.69,471.53 L 791.76,471.54 L 789.65,471.58 L 788.56,471.59 L 786.16,471.63 L 784.92,471.64 L 782.26,471.67 L 779.53,471.70 L 773.40,471.74 L 770.24,471.76 L 763.39,471.80 L 759.90,471.82 L 752.54,471.84 L 745.10,471.86 L 729.60,471.87 L 725.75,471.87 L 718.15,471.86 L 714.38,471.85 L 707.12,471.83 L 703.55,471.82 L 696.84,471.78 L 693.58,471.77 L 687.63,471.72 L 684.77,471.70 L 679.80,471.64 L 678.62,471.63 L 676.50,471.60 L 675.47,471.58 L 673.66,471.55 L 672.80,471.53 L 671.33,471.50 L 670.64,471.48 L 669.54,471.44 L 669.04,471.42 L 668.33,471.38 L 668.03,471.36 M 859.50,470.38 L 858.40,470.18 L 856.30,469.71 L 855.27,469.48 L 853.47,468.98 L 852.63,468.73 L 851.34,468.25 L 850.20,467.63 L 850.07,467.50 L 850.05,467.02 L 850.09,466.73 L 850.48,465.86 L 850.73,465.37 L 851.60,464.01 L 852.11,463.26 L 853.54,461.31 L 854.33,460.26 L 856.40,457.61 L 856.96,456.90 L 858.22,455.33 L 858.87,454.53 L 860.31,452.75 L 861.05,451.83 L 862.69,449.83 L 863.53,448.80 L 865.38,446.57 L 866.32,445.42 L 868.38,442.94 L 871.72,438.92 L 873.34,436.98 L 876.34,433.36 L 877.81,431.59 L 880.52,428.30 L 881.85,426.70 L 884.29,423.72 L 885.48,422.27 L 887.66,419.58 L 888.72,418.28 L 890.65,415.87 L 891.59,414.71 L 893.28,412.56 L 894.10,411.52 L 895.57,409.63 L 896.28,408.71 L 897.54,407.04 L 898.15,406.23 L 899.21,404.77 L 899.72,404.07 L 900.60,402.81 L 901.43,401.59 L 902.59,399.67 L 903.09,398.78 L 903.67,397.42 L 904.00,395.86 L 904.00,395.37 L 903.70,394.19 L 903.49,393.54 L 902.67,391.90 L 902.18,391.01 L 900.69,388.73 L 900.26,388.11 L 899.27,386.72 L 898.75,385.99 L 897.54,384.37 L 896.91,383.53 L 895.46,381.67 L 894.71,380.70 L 893.01,378.56 L 892.13,377.45 L 890.17,375.01 L 889.15,373.75 L 886.90,370.99 L 885.73,369.57 L 883.18,366.47 L 881.86,364.87 L 878.98,361.40 L 877.50,359.62 L 874.27,355.76 L 869.04,349.50 L 868.04,348.31 L 866.18,346.07 L 865.27,344.98 L 863.59,342.93 L 861.95,340.93 L 859.18,337.49 L 857.88,335.85 L 855.75,333.06 L 854.77,331.75 L 853.24,329.57 L 852.55,328.55 L 851.58,326.91 L 851.17,326.15 L 850.71,324.98 L 850.55,324.46 L 850.56,323.70 L 851.07,322.96 L 851.30,322.81 L 852.11,322.54 L 852.57,322.41 L 853.83,322.17 L 854.52,322.05 L 856.24,321.83 L 857.16,321.73 L 859.35,321.54 L 860.50,321.45 L 863.16,321.29 L 864.55,321.21 L 867.69,321.07 L 869.32,321.01 L 872.94,320.90 L 878.93,320.77 L 893.36,320.50 L 900.28,329.00 L 900.73,329.55 L 901.82,330.86 L 902.39,331.55 L 903.68,333.09 L 905.01,334.68 L 908.15,338.36 L 909.77,340.25 L 913.23,344.28 L 914.98,346.30 L 918.47,350.32 L 920.19,352.29 L 923.39,355.94 L 924.16,356.82 L 925.59,358.43 L 926.28,359.22 L 927.54,360.62 L 928.14,361.29 L 929.17,362.44 L 929.66,362.97 L 930.44,363.82 L 930.79,364.20 L 931.28,364.69 L 931.63,365.00 L 931.72,365.00 L 932.11,364.71 L 932.34,364.51 L 933.06,363.79 L 933.46,363.37 L 934.55,362.15 L 935.14,361.48 L 936.65,359.71 L 937.46,358.76 L 939.44,356.39 L 940.49,355.12 L 942.99,352.09 L 944.31,350.49 L 947.37,346.74 L 952.65,340.25 L 969.08,320.00 L 977.29,320.00 L 977.86,320.00 L 979.20,320.02 L 979.90,320.03 L 981.49,320.06 L 983.11,320.09 L 986.83,320.20 L 988.73,320.26 L 992.65,320.41 L 998.25,320.66 L 999.73,320.73 L 1002.19,320.87 L 1003.35,320.94 L 1005.23,321.07 L 1006.11,321.13 L 1007.48,321.27 L 1008.11,321.34 L 1009.06,321.51 L 1009.49,321.60 L 1010.09,321.81 L 1010.35,321.92 L 1010.67,322.19 L 1011.00,323.29 L 1011.00,323.67 L 1010.57,324.90 L 1010.28,325.59 L 1009.32,327.40 L 1008.78,328.37 L 1007.34,330.67 L 1006.56,331.88 L 1004.70,334.60 L 1003.71,336.01 L 1001.47,339.09 L 1000.31,340.67 L 997.75,344.02 L 996.43,345.72 L 993.60,349.28 L 989.10,354.75 L 988.34,355.66 L 986.64,357.68 L 985.77,358.72 L 983.91,360.94 L 982.02,363.20 L 978.00,368.00 L 975.98,370.40 L 972.08,375.06 L 971.13,376.19 L 969.34,378.32 L 966.88,381.25 L 965.36,383.07 L 962.53,386.49 L 961.18,388.13 L 958.90,390.95 L 958.37,391.61 L 957.47,392.75 L 957.04,393.29 L 956.36,394.17 L 956.05,394.58 L 955.63,395.17 L 955.31,395.67 L 955.27,395.76 L 955.53,396.27 L 955.70,396.59 L 956.34,397.54 L 956.70,398.06 L 957.68,399.39 L 958.21,400.09 L 959.49,401.74 L 960.17,402.60 L 961.71,404.53 L 962.51,405.52 L 964.28,407.66 L 970.21,414.67 L 973.29,418.25 L 979.08,425.07 L 981.91,428.42 L 987.14,434.71 L 989.68,437.78 L 994.27,443.44 L 995.37,444.82 L 997.45,447.43 L 998.46,448.71 L 1000.35,451.13 L 1001.27,452.31 L 1002.97,454.53 L 1003.79,455.62 L 1005.28,457.62 L 1006.00,458.60 L 1007.27,460.37 L 1007.88,461.23 L 1008.94,462.77 L 1009.44,463.51 L 1010.26,464.80 L 1010.64,465.41 L 1011.22,466.44 L 1011.47,466.92 L 1011.80,467.67 L 1012.00,468.48 L 1012.00,468.70 L 1011.75,469.08 L 1011.58,469.27 L 1010.95,469.60 L 1010.59,469.76 L 1009.53,470.05 L 1008.95,470.20 L 1007.42,470.45 L 1006.59,470.57 L 1004.52,470.80 L 1003.42,470.91 L 1000.78,471.11 L 999.39,471.21 L 996.12,471.40 L 990.46,471.67 L 988.94,471.74 L 986.35,471.84 L 985.12,471.88 L 983.03,471.93 L 982.04,471.95 L 980.37,471.95 L 979.58,471.94 L 978.25,471.87 L 976.99,471.79 L 975.15,471.43 L 972.76,470.56 L 972.19,470.28 L 970.73,469.29 L 969.95,468.72 L 968.10,467.16 L 967.13,466.32 L 964.93,464.23 L 963.79,463.13 L 961.28,460.57 L 959.99,459.23 L 957.22,456.22 L 955.80,454.67 L 952.79,451.26 L 951.27,449.52 L 948.07,445.75 L 943.11,439.75 L 941.68,438.00 L 939.03,434.80 L 937.76,433.28 L 935.59,430.75 L 935.09,430.17 L 934.23,429.19 L 933.82,428.73 L 933.16,428.01 L 932.86,427.68 L 932.43,427.26 L 932.09,427.00 L 931.95,427.00 L 931.33,427.44 L 930.96,427.73 L 929.88,428.73 L 929.29,429.29 L 927.79,430.81 L 926.99,431.63 L 925.10,433.65 L 924.11,434.71 L 921.86,437.18 L 920.70,438.47 L 918.12,441.37 L 916.79,442.87 L 913.91,446.16 L 909.28,451.50 L 908.34,452.59 L 906.62,454.59 L 905.79,455.56 L 904.26,457.32 L 903.52,458.18 L 902.17,459.72 L 901.51,460.46 L 900.32,461.80 L 899.17,463.09 L 897.27,465.12 L 896.37,466.05 L 894.88,467.47 L 894.17,468.12 L 892.95,469.05 L 892.36,469.47 L 891.27,470.05 L 887.80,471.08 L 887.00,471.24 L 885.11,471.47 L 884.13,471.58 L 881.94,471.72 L 879.69,471.84 L 874.62,471.81 L 872.05,471.74 L 866.83,471.35 L 864.25,471.11 M 1060.46,453.25 L 1060.44,452.62 L 1060.39,451.10 L 1060.37,450.30 L 1060.33,448.45 L 1060.31,447.49 L 1060.28,445.35 L 1060.26,444.24 L 1060.24,441.82 L 1060.21,439.33 L 1060.18,433.65 L 1060.16,430.70 L 1060.15,424.23 L 1060.15,420.91 L 1060.16,413.86 L 1060.17,410.27 L 1060.19,402.83 L 1060.23,395.32 L 1060.34,379.98 L 1060.37,376.18 L 1060.44,368.74 L 1060.48,365.07 L 1060.57,358.03 L 1060.61,354.57 L 1060.71,348.12 L 1060.76,344.99 L 1060.86,339.33 L 1060.92,336.61 L 1061.03,331.93 L 1061.06,330.83 L 1061.11,328.85 L 1061.14,327.90 L 1061.20,326.23 L 1061.23,325.44 L 1061.29,324.11 L 1061.32,323.49 L 1061.38,322.52 L 1061.41,322.09 L 1061.48,321.51 L 1061.57,321.10 L 1061.61,321.06 L 1062.05,320.98 L 1062.33,320.94 L 1063.20,320.87 L 1063.69,320.83 L 1064.95,320.76 L 1065.62,320.73 L 1067.22,320.68 L 1068.88,320.62 L 1073.00,320.55 L 1079.95,320.50 L 1082.13,320.50 L 1085.72,320.51 L 1087.40,320.51 L 1090.13,320.55 L 1091.40,320.57 L 1093.42,320.65 L 1094.36,320.69 L 1095.83,320.83 L 1096.51,320.91 L 1097.58,321.14 L 1098.07,321.26 L 1098.90,321.58 L 1101.20,323.00 L 1101.80,323.43 L 1103.18,324.60 L 1103.90,325.24 L 1105.59,326.87 L 1106.48,327.75 L 1108.54,329.93 L 1109.63,331.09 L 1112.13,333.89 L 1113.44,335.37 L 1116.45,338.87 L 1118.03,340.70 L 1121.61,344.97 L 1122.54,346.08 L 1124.53,348.47 L 1125.55,349.70 L 1127.70,352.31 L 1128.80,353.64 L 1131.13,356.48 L 1134.83,361.00 L 1136.04,362.48 L 1138.62,365.65 L 1139.94,367.26 L 1142.68,370.61 L 1145.44,373.99 L 1151.06,380.88 L 1152.45,382.58 L 1155.15,385.89 L 1156.47,387.51 L 1158.99,390.59 L 1160.21,392.09 L 1162.46,394.85 L 1165.44,398.50 L 1178.50,414.50 L 1178.76,367.23 L 1179.02,319.96 L 1199.26,320.23 L 1219.50,320.50 L 1219.76,396.36 L 1220.01,472.22 L 1202.26,471.82 L 1200.51,471.78 L 1197.46,471.69 L 1196.00,471.64 L 1193.46,471.54 L 1192.26,471.49 L 1190.19,471.37 L 1189.20,471.30 L 1187.53,471.16 L 1186.75,471.08 L 1185.43,470.90 L 1184.81,470.81 L 1183.78,470.59 L 1181.50,469.78 L 1180.87,469.44 L 1179.40,468.38 L 1178.63,467.78 L 1176.80,466.15 L 1175.83,465.25 L 1173.57,462.95 L 1172.37,461.71 L 1169.60,458.66 L 1168.87,457.85 L 1167.30,456.06 L 1166.49,455.15 L 1164.77,453.15 L 1163.89,452.12 L 1162.00,449.89 L 1161.04,448.75 L 1158.98,446.28 L 1157.92,445.02 L 1155.68,442.31 L 1154.54,440.92 L 1152.10,437.95 L 1150.86,436.43 L 1148.22,433.18 L 1144.02,428.00 L 1140.91,424.15 L 1135.15,417.04 L 1133.75,415.32 L 1131.07,412.03 L 1129.75,410.41 L 1127.23,407.34 L 1126.00,405.83 L 1123.65,402.98 L 1122.50,401.58 L 1120.33,398.95 L 1119.27,397.66 L 1117.28,395.27 L 1116.31,394.10 L 1114.50,391.94 L 1113.62,390.89 L 1112.00,388.97 L 1111.21,388.05 L 1109.79,386.38 L 1109.10,385.57 L 1107.87,384.16 L 1107.28,383.48 L 1106.26,382.32 L 1105.77,381.77 L 1104.95,380.88 L 1104.56,380.47 L 1103.95,379.84 L 1103.67,379.56 L 1103.28,379.21 L 1102.94,379.00 L 1102.86,379.00 L 1102.70,379.22 L 1102.63,379.37 L 1102.49,379.89 L 1102.42,380.19 L 1102.28,381.00 L 1102.22,381.45 L 1102.10,382.55 L 1102.04,383.14 L 1101.92,384.54 L 1101.87,385.28 L 1101.76,386.97 L 1101.71,387.85 L 1101.62,389.83 L 1101.57,390.85 L 1101.49,393.12 L 1101.45,394.28 L 1101.38,396.83 L 1101.34,398.14 L 1101.28,400.98 L 1101.25,402.43 L 1101.19,405.54 L 1101.17,407.14 L 1101.12,410.53 L 1101.10,412.27 L 1101.07,415.94 L 1101.05,417.81 L 1101.03,421.77 L 1101.02,423.78 L 1101.01,428.00 L 1101.00,434.65 L 1101.00,472.00 L 1081.11,472.00 L 1061.22,472.00 L 1060.46,453.25 M 1278.58,470.72 L 1278.35,470.54 L 1277.97,470.04 L 1277.79,469.72 L 1277.51,468.51 L 1277.45,468.14 L 1277.34,467.18 L 1277.28,466.65 L 1277.20,465.33 L 1277.16,464.61 L 1277.09,462.86 L 1277.06,461.93 L 1277.02,459.69 L 1277.00,458.50 L 1276.97,455.69 L 1276.96,454.21 L 1276.95,450.78 L 1276.95,448.98 L 1276.96,444.85 L 1276.97,442.69 L 1277.00,437.80 L 1277.01,435.26 L 1277.05,429.54 L 1277.07,426.57 L 1277.13,419.95 L 1277.16,416.53 L 1277.23,408.95 L 1277.34,396.42 L 1277.37,392.68 L 1277.44,385.74 L 1277.47,382.36 L 1277.54,376.10 L 1277.57,373.05 L 1277.64,367.45 L 1277.67,364.72 L 1277.73,359.74 L 1277.76,357.32 L 1277.83,352.92 L 1277.86,350.78 L 1277.93,346.93 L 1277.97,345.07 L 1278.04,341.74 L 1278.07,340.14 L 1278.15,337.29 L 1278.18,335.92 L 1278.26,333.52 L 1278.30,332.37 L 1278.39,330.39 L 1278.43,329.45 L 1278.52,327.85 L 1278.57,327.10 L 1278.67,325.85 L 1278.72,325.26 L 1278.82,324.33 L 1278.88,323.90 L 1279.00,323.25 L 1279.39,322.19 L 1279.53,322.04 L 1280.41,321.80 L 1280.69,321.74 L 1281.45,321.63 L 1281.86,321.58 L 1282.90,321.48 L 1283.47,321.44 L 1284.83,321.35 L 1285.56,321.31 L 1287.28,321.23 L 1288.18,321.20 L 1290.29,321.13 L 1291.40,321.10 L 1293.94,321.04 L 1295.26,321.01 L 1298.25,320.96 L 1299.81,320.94 L 1303.29,320.90 L 1305.10,320.87 L 1309.11,320.84 L 1311.18,320.82 L 1315.75,320.79 L 1318.11,320.77 L 1323.28,320.75 L 1325.94,320.73 L 1331.73,320.71 L 1334.71,320.70 L 1341.16,320.68 L 1351.63,320.65 L 1422.50,320.50 L 1422.33,336.34 L 1422.31,338.51 L 1422.23,342.52 L 1422.18,344.44 L 1422.08,347.66 L 1422.05,348.39 L 1421.99,349.66 L 1421.96,350.26 L 1421.90,351.20 L 1421.86,351.63 L 1421.80,352.21 L 1421.71,352.63 L 1421.69,352.64 L 1421.39,352.68 L 1421.21,352.69 L 1420.58,352.73 L 1420.22,352.75 L 1419.27,352.79 L 1418.76,352.81 L 1417.51,352.85 L 1416.85,352.87 L 1415.33,352.92 L 1414.53,352.94 L 1412.73,352.98 L 1410.87,353.03 L 1406.44,353.12 L 1404.11,353.17 L 1398.85,353.26 L 1396.12,353.31 L 1390.17,353.40 L 1387.11,353.45 L 1380.60,353.54 L 1370.38,353.67 L 1366.88,353.71 L 1360.14,353.80 L 1356.83,353.84 L 1350.56,353.94 L 1347.51,354.00 L 1341.86,354.10 L 1339.13,354.16 L 1334.23,354.27 L 1331.90,354.32 L 1327.90,354.43 L 1326.97,354.46 L 1325.29,354.52 L 1324.48,354.54 L 1323.08,354.60 L 1322.41,354.62 L 1321.29,354.68 L 1320.77,354.70 L 1319.97,354.75 L 1319.60,354.78 L 1319.12,354.82 L 1318.78,354.89 L 1318.73,354.94 L 1318.65,355.26 L 1318.62,355.45 L 1318.56,356.05 L 1318.51,356.71 L 1318.49,358.72 L 1318.49,359.82 L 1318.56,362.51 L 1318.78,367.02 L 1319.50,378.50 L 1326.00,379.13 L 1326.45,379.18 L 1327.98,379.26 L 1328.85,379.31 L 1331.15,379.39 L 1332.38,379.43 L 1335.33,379.51 L 1336.87,379.54 L 1340.36,379.61 L 1342.16,379.65 L 1346.08,379.71 L 1348.08,379.74 L 1352.33,379.79 L 1365.75,379.88 L 1399.00,380.00 L 1399.00,396.50 L 1399.00,413.00 L 1363.75,413.01 L 1358.90,413.01 L 1349.65,413.06 L 1347.41,413.08 L 1343.18,413.12 L 1341.11,413.14 L 1337.31,413.20 L 1335.48,413.23 L 1332.22,413.29 L 1330.67,413.33 L 1328.07,413.40 L 1326.86,413.44 L 1325.02,413.52 L 1323.25,413.65 L 1318.00,414.28 L 1318.00,419.99 L 1318.00,420.78 L 1318.05,422.70 L 1318.08,423.69 L 1318.19,425.83 L 1318.25,426.91 L 1318.39,429.02 L 1318.64,431.85 L 1319.28,438.00 L 1360.89,438.12 L 1366.61,438.13 L 1377.84,438.21 L 1380.58,438.24 L 1385.83,438.29 L 1388.40,438.32 L 1393.22,438.39 L 1395.55,438.42 L 1399.79,438.49 L 1401.82,438.53 L 1405.33,438.61 L 1406.99,438.65 L 1409.64,438.74 L 1412.50,438.87 L 1422.50,439.50 L 1422.32,454.85 L 1422.30,456.96 L 1422.20,460.86 L 1422.14,462.72 L 1422.00,465.88 L 1421.96,466.60 L 1421.88,467.85 L 1421.84,468.44 L 1421.76,469.38 L 1421.71,469.81 L 1421.62,470.40 L 1421.49,470.85 L 1421.46,470.87 L 1421.06,470.91 L 1420.79,470.94 L 1419.92,470.98 L 1419.43,471.01 L 1418.13,471.05 L 1417.42,471.08 L 1415.70,471.13 L 1414.79,471.15 L 1412.68,471.20 L 1411.57,471.22 L 1409.10,471.27 L 1407.82,471.29 L 1405.00,471.34 L 1403.55,471.36 L 1400.41,471.40 L 1398.81,471.43 L 1395.38,471.47 L 1393.63,471.49 L 1389.94,471.53 L 1386.18,471.57 L 1377.96,471.65 L 1373.75,471.68 L 1364.78,471.75 L 1350.67,471.83 L 1346.93,471.84 L 1340.03,471.87 L 1336.67,471.89 L 1330.48,471.91 L 1327.47,471.92 L 1321.97,471.93 L 1319.29,471.94 L 1314.43,471.94 L 1312.07,471.94 L 1307.80,471.94 L 1305.74,471.94 L 1302.03,471.92 L 1300.25,471.91 L 1297.06,471.89 L 1295.53,471.87 L 1292.83,471.84 L 1291.54,471.82 L 1289.28,471.77 L 1288.20,471.74 L 1286.35,471.68 L 1285.48,471.65 L 1283.99,471.57 L 1283.29,471.53 L 1282.13,471.45 L 1281.59,471.40 L 1280.72,471.30 L 1280.32,471.25 L 1279.70,471.13 L 1279.13,471.01 M 1525.66,471.01 L 1524.05,470.80 L 1521.14,470.07 L 1520.49,469.87 L 1519.46,469.47 L 1518.48,468.87 L 1518.38,468.78 L 1518.08,468.23 L 1517.91,467.90 L 1517.47,466.92 L 1517.23,466.38 L 1516.67,465.02 L 1516.38,464.30 L 1515.72,462.62 L 1515.04,460.86 L 1513.48,456.60 L 1510.98,449.50 L 1510.77,448.88 L 1510.26,447.41 L 1510.00,446.64 L 1509.38,444.87 L 1509.07,443.96 L 1508.36,441.93 L 1507.99,440.88 L 1507.19,438.61 L 1506.37,436.27 L 1504.50,430.97 L 1503.53,428.23 L 1501.41,422.25 L 1500.32,419.19 L 1498.01,412.71 L 1496.84,409.43 L 1494.42,402.64 L 1487.02,382.00 L 1485.79,378.60 L 1483.41,371.95 L 1482.23,368.67 L 1479.98,362.37 L 1478.88,359.28 L 1476.81,353.48 L 1475.81,350.66 L 1473.99,345.51 L 1473.11,343.03 L 1471.58,338.68 L 1471.22,337.65 L 1470.56,335.76 L 1470.24,334.85 L 1469.67,333.21 L 1469.40,332.43 L 1468.93,331.07 L 1468.71,330.42 L 1468.34,329.34 L 1468.17,328.84 L 1467.92,328.07 L 1467.67,327.28 L 1466.13,322.07 L 1469.62,321.41 L 1469.95,321.35 L 1470.85,321.25 L 1471.34,321.20 L 1472.53,321.13 L 1473.78,321.07 L 1476.95,321.02 L 1478.62,321.01 L 1482.35,321.06 L 1484.24,321.09 L 1488.15,321.21 L 1490.09,321.29 L 1493.82,321.48 L 1495.62,321.58 L 1498.79,321.83 L 1499.53,321.89 L 1500.84,322.03 L 1501.47,322.09 L 1502.51,322.24 L 1503.00,322.31 L 1503.73,322.46 L 1504.43,322.69 L 1504.62,322.80 L 1504.99,323.18 L 1505.17,323.40 L 1505.56,324.05 L 1505.76,324.41 L 1506.18,325.36 L 1506.40,325.88 L 1506.86,327.18 L 1507.10,327.88 L 1507.62,329.56 L 1507.89,330.46 L 1508.49,332.56 L 1508.79,333.67 L 1509.47,336.23 L 1510.60,340.64 L 1510.91,341.87 L 1511.62,344.63 L 1512.00,346.06 L 1512.83,349.17 L 1513.69,352.36 L 1515.67,359.47 L 1517.71,366.73 L 1522.14,381.86 L 1523.21,385.51 L 1525.24,392.21 L 1525.73,393.81 L 1526.64,396.79 L 1527.09,398.23 L 1527.91,400.82 L 1528.30,402.06 L 1529.00,404.20 L 1529.33,405.20 L 1529.89,406.81 L 1530.15,407.55 L 1530.54,408.56 L 1530.92,409.32 L 1531.04,409.44 L 1531.49,409.53 L 1531.74,409.55 L 1532.41,409.46 L 1534.80,408.60 L 1535.60,408.19 L 1536.79,407.24 L 1537.35,406.69 L 1538.28,404.98 L 1538.52,404.47 L 1538.98,403.22 L 1539.22,402.54 L 1539.71,400.88 L 1539.97,399.99 L 1540.54,397.85 L 1541.51,394.00 L 1541.62,393.55 L 1542.03,392.04 L 1542.26,391.19 L 1542.89,388.95 L 1543.22,387.75 L 1544.04,384.89 L 1544.47,383.39 L 1545.44,380.01 L 1545.94,378.26 L 1547.04,374.47 L 1547.60,372.54 L 1548.80,368.44 L 1552.61,355.50 L 1553.26,353.30 L 1554.53,349.04 L 1555.15,346.94 L 1556.33,342.95 L 1556.91,340.99 L 1557.99,337.36 L 1558.51,335.60 L 1559.45,332.42 L 1559.91,330.89 L 1560.69,328.26 L 1561.06,327.02 L 1561.65,325.02 L 1561.92,324.11 L 1562.29,322.84 L 1562.58,321.86 L 1562.69,321.49 L 1563.30,321.00 L 1563.51,320.89 L 1564.13,320.74 L 1564.48,320.67 L 1565.44,320.57 L 1565.97,320.53 L 1567.34,320.50 L 1568.09,320.49 L 1569.95,320.51 L 1570.96,320.52 L 1573.39,320.59 L 1577.78,320.74 L 1579.81,320.81 L 1583.52,320.96 L 1585.29,321.04 L 1588.26,321.18 L 1588.94,321.21 L 1590.11,321.28 L 1590.65,321.31 L 1591.52,321.37 L 1591.91,321.40 L 1592.43,321.45 L 1592.79,321.51 L 1592.81,321.52 L 1593.03,322.16 L 1593.17,322.58 L 1593.62,323.96 L 1593.86,324.73 L 1594.50,326.76 L 1594.84,327.85 L 1595.65,330.45 L 1596.07,331.82 L 1597.02,334.91 L 1597.51,336.51 L 1598.58,340.00 L 1599.13,341.80 L 1600.29,345.62 L 1602.11,351.62 L 1603.55,356.39 L 1606.26,365.29 L 1607.59,369.62 L 1610.07,377.60 L 1610.67,379.53 L 1611.83,383.21 L 1612.40,385.01 L 1613.48,388.42 L 1614.01,390.09 L 1615.02,393.23 L 1615.52,394.76 L 1616.45,397.60 L 1616.90,398.99 L 1617.75,401.53 L 1618.16,402.76 L 1618.92,404.99 L 1619.28,406.07 L 1619.95,407.98 L 1620.27,408.89 L 1620.85,410.46 L 1621.12,411.20 L 1621.59,412.42 L 1621.82,412.98 L 1622.18,413.84 L 1622.36,414.22 L 1622.62,414.71 L 1622.89,415.00 L 1622.94,415.00 L 1623.21,414.44 L 1623.37,414.08 L 1623.83,412.85 L 1624.08,412.16 L 1624.72,410.33 L 1625.05,409.35 L 1625.83,407.00 L 1626.24,405.76 L 1627.14,402.96 L 1627.60,401.51 L 1628.60,398.33 L 1629.10,396.70 L 1630.17,393.22 L 1631.83,387.75 L 1632.39,385.88 L 1633.60,381.87 L 1634.21,379.83 L 1635.50,375.59 L 1636.79,371.32 L 1639.45,362.63 L 1640.10,360.49 L 1641.38,356.33 L 1642.01,354.29 L 1643.20,350.42 L 1643.78,348.53 L 1644.86,345.07 L 1646.28,340.50 L 1652.57,320.50 L 1670.23,320.53 L 1672.66,320.53 L 1677.14,320.59 L 1679.28,320.62 L 1682.89,320.73 L 1683.72,320.76 L 1685.14,320.83 L 1685.81,320.86 L 1686.88,320.94 L 1687.37,320.98 L 1688.03,321.06 L 1688.52,321.18 L 1688.60,321.27 L 1688.65,321.78 L 1688.64,322.09 L 1688.51,323.04 L 1688.43,323.57 L 1688.12,324.95 L 1687.95,325.69 L 1687.48,327.49 L 1687.23,328.44 L 1686.60,330.65 L 1686.26,331.81 L 1685.47,334.42 L 1685.06,335.77 L 1684.11,338.77 L 1683.61,340.32 L 1682.51,343.70 L 1681.94,345.44 L 1680.69,349.19 L 1680.04,351.11 L 1678.64,355.22 L 1677.93,357.32 L 1676.38,361.78 L 1675.59,364.05 L 1673.91,368.85 L 1673.05,371.30 L 1671.23,376.43 L 1670.30,379.03 L 1668.35,384.49 L 1667.35,387.25 L 1665.27,393.02 L 1661.99,402.00 L 1660.31,406.61 L 1656.78,416.39 L 1655.02,421.28 L 1651.63,430.80 L 1650.81,433.11 L 1649.26,437.49 L 1648.51,439.63 L 1647.14,443.56 L 1646.48,445.46 L 1645.33,448.80 L 1643.91,453.00 L 1638.09,470.50 L 1622.95,470.50 L 1607.81,470.50 L 1602.89,454.50 L 1602.50,453.24 L 1601.60,450.37 L 1601.14,448.88 L 1600.10,445.60 L 1599.56,443.92 L 1598.40,440.32 L 1597.81,438.49 L 1596.57,434.65 L 1595.31,430.76 L 1592.63,422.61 L 1591.29,418.53 L 1588.61,410.46 L 1587.29,406.50 L 1584.83,399.17 L 1584.24,397.42 L 1583.13,394.16 L 1582.59,392.57 L 1581.61,389.72 L 1581.14,388.35 L 1580.31,385.99 L 1579.92,384.87 L 1579.28,383.08 L 1578.98,382.26 L 1578.55,381.12 L 1578.16,380.22 L 1578.01,379.98 L 1577.71,379.73 L 1577.56,379.67 L 1577.17,380.00 L 1576.96,380.27 L 1576.37,381.50 L 1576.21,381.88 L 1575.82,382.87 L 1575.62,383.40 L 1575.15,384.71 L 1574.90,385.41 L 1574.32,387.10 L 1574.02,388.00 L 1573.32,390.09 L 1572.96,391.20 L 1572.13,393.75 L 1571.70,395.08 L 1570.73,398.12 L 1570.23,399.71 L 1569.10,403.28 L 1568.51,405.13 L 1567.21,409.27 L 1566.54,411.41 L 1565.05,416.16 L 1562.59,424.00 L 1561.72,426.78 L 1560.02,432.21 L 1559.18,434.88 L 1557.57,440.00 L 1556.78,442.51 L 1555.30,447.20 L 1554.58,449.48 L 1553.27,453.63 L 1552.64,455.62 L 1551.53,459.11 L 1551.01,460.75 L 1550.15,463.45 L 1549.75,464.68 L 1549.18,466.47 L 1549.05,466.85 L 1548.86,467.43 L 1548.67,468.00 L 1547.42,471.50 L 1539.46,471.64 L 1538.37,471.66 L 1535.91,471.63 L 1534.66,471.61 L 1532.12,471.51 L 1530.87,471.45 L 1528.55,471.30 L 1527.45,471.21 M 1774.50,471.32 L 1773.44,471.18 L 1770.68,470.81 L 1769.22,470.61 L 1765.86,470.14 L 1762.40,469.65 L 1754.74,468.54 L 1752.85,468.27 L 1749.20,467.73 L 1747.42,467.46 L 1744.18,466.97 L 1742.64,466.74 L 1740.07,466.34 L 1737.25,465.88 L 1731.00,464.79 L 1731.00,448.40 L 1731.00,432.00 L 1735.75,432.03 L 1736.08,432.03 L 1737.01,432.08 L 1737.52,432.11 L 1738.78,432.20 L 1740.11,432.31 L 1743.51,432.65 L 1745.30,432.83 L 1749.30,433.30 L 1755.50,434.08 L 1756.69,434.24 L 1759.32,434.55 L 1760.68,434.69 L 1763.62,434.97 L 1766.63,435.25 L 1773.32,435.72 L 1776.74,435.94 L 1783.94,436.30 L 1787.56,436.46 L 1794.81,436.70 L 1798.40,436.80 L 1805.27,436.89 L 1808.61,436.92 L 1814.66,436.87 L 1816.10,436.85 L 1818.74,436.77 L 1820.02,436.73 L 1822.31,436.61 L 1823.41,436.54 L 1825.29,436.38 L 1827.58,436.09 L 1828.96,435.85 L 1831.21,435.48 L 1832.25,435.30 L 1833.88,434.97 L 1834.63,434.80 L 1835.74,434.44 L 1836.25,434.24 L 1836.94,433.76 L 1837.25,433.49 L 1837.62,432.80 L 1837.78,432.42 L 1837.93,431.44 L 1837.99,430.90 L 1838.01,429.55 L 1838.00,427.00 L 1838.00,425.11 L 1837.71,421.39 L 1837.63,420.54 L 1837.40,419.10 L 1837.02,417.57 L 1836.81,416.99 L 1836.34,416.19 L 1836.09,415.84 L 1835.35,415.42 L 1834.92,415.24 L 1833.63,415.07 L 1830.77,414.99 L 1830.30,414.99 L 1828.96,414.95 L 1828.23,414.92 L 1826.44,414.83 L 1825.50,414.77 L 1823.33,414.63 L 1822.21,414.56 L 1819.73,414.38 L 1817.19,414.19 L 1811.45,413.73 L 1808.52,413.49 L 1802.40,412.95 L 1799.34,412.67 L 1793.38,412.11 L 1790.46,411.82 L 1785.19,411.27 L 1783.94,411.14 L 1781.66,410.89 L 1780.56,410.76 L 1778.64,410.53 L 1777.73,410.41 L 1776.23,410.21 L 1774.53,409.93 L 1771.45,409.36 L 1765.38,407.61 L 1762.40,406.65 L 1756.74,404.24 L 1754.00,402.96 L 1749.05,400.03 L 1747.88,399.27 L 1745.70,397.67 L 1742.76,395.18 L 1741.59,394.08 L 1739.52,391.77 L 1738.53,390.59 L 1736.81,388.10 L 1736.00,386.83 L 1734.64,384.17 L 1734.00,382.82 L 1733.00,379.99 L 1732.54,378.55 L 1731.89,375.55 L 1731.62,374.03 L 1731.32,370.87 L 1731.22,369.26 L 1731.29,365.93 L 1731.79,360.76 L 1732.04,359.04 L 1732.72,355.85 L 1733.09,354.28 L 1734.02,351.38 L 1734.52,349.96 L 1735.72,347.32 L 1736.36,346.03 L 1737.85,343.62 L 1738.63,342.44 L 1740.43,340.25 L 1741.36,339.17 L 1743.49,337.15 L 1744.59,336.16 L 1747.06,334.30 L 1751.17,331.64 L 1752.46,330.89 L 1755.25,329.49 L 1756.68,328.81 L 1759.74,327.55 L 1761.31,326.94 L 1764.64,325.84 L 1766.34,325.30 L 1769.93,324.34 L 1771.76,323.88 L 1775.59,323.07 L 1777.53,322.68 L 1781.59,322.02 L 1785.71,321.39 L 1794.58,320.59 L 1799.11,320.27 L 1808.75,320.08 L 1813.65,320.06 L 1823.96,320.48 L 1829.19,320.77 L 1840.07,321.81 L 1856.94,324.08 L 1858.65,324.35 L 1861.87,324.94 L 1863.42,325.23 L 1866.11,325.80 L 1867.35,326.08 L 1869.20,326.58 L 1869.59,326.69 L 1870.17,326.90 L 1870.69,327.16 L 1870.81,327.26 L 1871.03,327.64 L 1871.13,327.86 L 1871.31,328.50 L 1871.39,328.86 L 1871.54,329.80 L 1871.60,330.31 L 1871.71,331.58 L 1871.76,332.26 L 1871.84,333.91 L 1871.88,334.78 L 1871.93,336.82 L 1871.96,337.89 L 1871.98,340.37 L 1872.00,344.62 L 1872.00,346.87 L 1871.94,350.98 L 1871.90,352.94 L 1871.78,356.19 L 1871.75,356.93 L 1871.67,358.19 L 1871.63,358.78 L 1871.54,359.71 L 1871.50,360.12 L 1871.40,360.66 L 1871.25,361.00 L 1871.20,361.00 L 1870.85,360.96 L 1870.65,360.93 L 1870.01,360.84 L 1869.31,360.73 L 1867.20,360.40 L 1866.04,360.22 L 1863.22,359.76 L 1858.50,358.98 L 1854.67,358.34 L 1847.37,357.24 L 1843.77,356.72 L 1836.93,355.88 L 1833.56,355.48 L 1827.17,354.88 L 1824.04,354.62 L 1818.10,354.27 L 1815.19,354.12 L 1809.71,354.02 L 1807.02,354.00 L 1801.98,354.15 L 1799.52,354.26 L 1794.92,354.65 L 1788.51,355.53 L 1787.34,355.73 L 1785.30,356.13 L 1784.33,356.32 L 1782.66,356.72 L 1781.87,356.93 L 1780.51,357.36 L 1779.86,357.59 L 1778.74,358.09 L 1777.68,358.61 L 1776.05,359.96 L 1773.86,362.69 L 1773.18,363.73 L 1772.40,365.55 L 1772.12,366.43 L 1772.14,368.02 L 1772.25,368.79 L 1773.08,370.23 L 1775.25,372.33 L 1775.97,372.86 L 1777.52,373.80 L 1778.33,374.26 L 1780.18,375.05 L 1781.15,375.43 L 1783.44,376.11 L 1784.66,376.43 L 1787.55,377.02 L 1789.09,377.30 L 1792.74,377.82 L 1794.67,378.08 L 1799.22,378.56 L 1800.42,378.68 L 1803.02,378.92 L 1804.35,379.04 L 1807.23,379.28 L 1808.71,379.40 L 1811.88,379.65 L 1817.00,380.02 L 1819.19,380.18 L 1823.35,380.54 L 1825.39,380.73 L 1829.26,381.16 L 1831.15,381.38 L 1834.73,381.89 L 1836.49,382.15 L 1839.81,382.74 L 1841.43,383.04 L 1844.49,383.71 L 1845.98,384.05 L 1848.79,384.81 L 1851.55,385.59 L 1856.36,387.45 L 1858.66,388.43 L 1862.64,390.70 L 1864.54,391.90 L 1867.79,394.63 L 1869.32,396.06 L 1871.93,399.30 L 1875.21,404.77 L 1875.61,405.59 L 1876.27,406.97 L 1876.58,407.63 L 1877.08,408.82 L 1877.54,409.98 L 1878.06,412.31 L 1878.16,412.94 L 1878.30,414.38 L 1878.37,415.14 L 1878.44,416.96 L 1878.47,417.92 L 1878.49,420.25 L 1878.50,424.48 L 1878.50,426.08 L 1878.49,428.73 L 1878.48,429.97 L 1878.44,432.02 L 1878.41,432.99 L 1878.31,434.58 L 1878.25,435.34 L 1878.06,436.62 L 1877.85,437.85 L 1877.08,439.98 L 1876.85,440.54 L 1876.26,441.74 L 1875.19,443.83 L 1874.74,444.70 L 1873.60,446.63 L 1873.00,447.61 L 1871.70,449.56 L 1871.04,450.53 L 1869.73,452.29 L 1867.94,454.45 L 1866.93,455.55 L 1864.44,457.61 L 1863.11,458.62 L 1860.03,460.50 L 1858.42,461.42 L 1854.79,463.10 L 1852.91,463.92 L 1848.77,465.39 L 1846.64,466.09 L 1842.03,467.34 L 1839.67,467.93 L 1834.63,468.94 L 1832.06,469.41 L 1826.62,470.17 L 1818.07,471.00 L 1816.44,471.12 L 1812.71,471.32 L 1810.79,471.41 L 1806.64,471.56 L 1802.43,471.70 L 1793.74,471.81 L 1791.62,471.83 L 1787.59,471.82 L 1785.64,471.80 L 1782.11,471.74 L 1780.43,471.70 L 1777.63,471.57 L 1776.34,471.50 Z" fill="rgba(254,254,254,1)"/>
</g>
</svg>