<svg xmlns="http://www.w3.org/2000/svg" width="1879" height="558" viewBox="0 0 1879 558">
<g>
<path d="M 450.49,428.05 L 447.91,429.08 L 442.80,430.97 L 442.30,431.15 L 448.18,428.94 L 453.28,426.90 M 435.34,204.23 L 458.37,204.50 L 473.62,249.50 L 476.92,259.24 L 479.27,266.13 L 480.48,269.69 L 485.43,284.21 L 487.90,291.42 L 490.35,298.58 L 491.54,302.03 L 493.88,308.85 L 494.99,312.05 L 497.14,318.31 L 498.12,321.15 L 500.02,326.63 L 500.84,329.00 L 505.78,343.38 L 507.39,348.11 L 508.16,350.40 L 509.68,354.91 L 510.40,357.04 L 511.78,361.20 L 512.41,363.11 L 513.63,366.80 L 514.16,368.42 L 515.15,371.51 L 515.56,372.78 L 516.29,375.14 L 516.55,376.00 L 518.03,380.88 L 518.92,383.78 L 519.29,384.94 L 519.97,387.07 L 520.20,387.76 L 520.41,388.37 L 520.48,388.56 L 520.60,388.87 L 520.62,388.90 L 521.22,388.85 L 521.97,388.50 L 522.51,388.19 L 523.68,387.46 L 524.41,386.97 L 525.95,385.91 L 526.85,385.26 L 528.72,383.89 L 529.76,383.11 L 531.91,381.48 L 533.07,380.58 L 534.25,379.66 L 534.16,379.73 L 532.06,381.38 L 531.04,382.17 L 529.19,383.58 L 528.30,384.26 L 526.75,385.39 L 524.81,386.74 L 523.97,387.30 L 522.79,388.19 L 522.28,388.61 L 521.67,389.36 L 521.43,389.73 L 521.28,390.52 L 521.44,391.94 L 521.76,393.28 L 522.29,395.67 L 522.54,396.82 L 522.94,398.85 L 523.13,399.82 L 523.41,401.51 L 523.53,402.31 L 523.69,403.67 L 523.75,404.31 L 523.79,405.36 L 523.79,405.86 L 523.71,406.63 L 523.65,406.98 L 523.45,407.50 L 523.01,407.99 L 522.73,408.17 L 521.66,408.50 L 521.06,408.66 L 519.45,408.94 L 518.59,409.08 L 516.57,409.31 L 515.52,409.43 L 513.20,409.60 L 510.83,409.76 L 505.74,409.87 L 498.57,409.65 L 490.49,409.03 L 483.24,412.68 L 483.73,412.41 L 490.08,408.86 L 486.79,406.64 L 485.04,405.14 L 483.95,403.84 L 483.40,402.98 L 482.30,401.09 L 481.71,399.85 L 480.47,397.17 L 479.76,395.46 L 478.23,391.74 L 477.32,389.51 L 476.91,388.51 L 476.10,386.60 L 475.72,385.75 L 474.96,384.12 L 474.58,383.41 L 473.04,380.81 L 472.14,379.85 L 471.21,378.94 L 470.68,378.55 L 469.59,377.83 L 468.96,377.53 L 467.65,376.97 L 466.90,376.74 L 465.32,376.32 L 464.42,376.15 L 462.52,375.85 L 461.43,375.72 L 459.16,375.50 L 457.87,375.42 L 455.17,375.26 L 453.65,375.20 L 450.48,375.08 L 448.69,375.02 L 444.99,374.91 L 442.92,374.85 L 438.63,374.73 L 436.25,374.66 L 429.92,374.47 L 426.00,374.37 L 424.19,374.33 L 420.67,374.25 L 419.05,374.23 L 415.89,374.18 L 414.44,374.17 L 411.63,374.16 L 410.35,374.17 L 407.86,374.19 L 406.74,374.21 L 404.56,374.27 L 403.57,374.31 L 401.67,374.41 L 400.82,374.47 L 397.67,374.75 L 396.44,374.96 L 394.18,375.40 L 393.32,375.69 L 391.78,376.32 L 391.22,376.70 L 390.23,377.52 L 389.88,378.00 L 389.42,378.77 L 389.03,379.52 L 388.81,380.00 L 387.83,382.18 L 387.25,383.58 L 386.05,386.57 L 385.42,388.26 L 384.13,391.71 L 383.51,393.50 L 381.63,398.63 L 380.41,401.73 L 379.87,403.00 L 379.34,404.23 L 379.09,404.76 L 378.63,405.75 L 378.43,406.15 L 378.04,406.87 L 377.88,407.11 L 377.60,407.52 L 377.50,407.60 L 376.97,407.83 L 376.41,408.00 L 376.04,408.08 L 374.31,408.41 L 373.15,408.57 L 370.68,408.88 L 369.26,409.02 L 366.31,409.27 L 364.77,409.36 L 355.05,410.01 L 352.01,410.24 L 350.72,410.34 L 348.32,410.55 L 347.50,410.63 L 344.34,410.86 L 342.77,410.85 L 342.16,410.75 L 341.03,410.48 L 340.54,410.24 L 339.57,409.67 L 339.06,409.25 L 336.62,407.28 L 338.95,398.39 L 340.43,393.06 L 341.61,389.14 L 342.30,386.99 L 343.73,382.57 L 344.54,380.16 L 346.22,375.23 L 347.16,372.56 L 349.11,367.11 L 350.18,364.18 L 352.39,358.20 L 353.59,355.01 L 356.06,348.48 L 357.40,345.02 L 360.14,337.95 L 361.61,334.21 L 363.97,328.22 L 365.70,323.81 L 366.63,321.43 L 368.52,316.60 L 369.50,314.08 L 371.49,308.98 L 372.50,306.39 L 376.57,295.95 L 378.51,290.95 L 380.43,286.01 L 381.33,283.67 L 383.11,279.10 L 383.92,277.00 L 386.45,270.44 L 388.23,265.84 L 389.15,263.48 L 392.86,253.90 L 394.68,249.21 L 396.48,244.56 L 397.35,242.33 L 399.05,237.94 L 399.85,235.90 L 401.40,231.92 L 402.09,230.13 L 403.43,226.69 L 404.00,225.23 L 412.30,203.96 M 1174.98,213.75 L 1174.98,214.12 L 1174.97,215.28 L 1174.96,215.93 L 1174.94,217.63 L 1174.93,218.55 L 1174.89,220.75 L 1174.87,221.92 L 1174.82,224.59 L 1174.80,225.99 L 1174.74,229.10 L 1174.71,230.71 L 1174.64,234.23 L 1174.60,236.04 L 1174.52,239.94 L 1174.48,241.93 L 1174.39,246.16 L 1174.35,248.32 L 1174.25,252.87 L 1174.20,255.18 L 1174.10,260.00 L 1173.99,264.88 L 1173.76,275.34 L 1173.65,280.67 L 1173.39,291.81 L 1173.00,309.00 L 1172.86,314.81 L 1172.60,326.16 L 1172.47,331.76 L 1172.23,342.51 L 1172.11,347.79 L 1171.90,357.69 L 1171.84,360.10 L 1171.74,364.71 L 1171.69,366.98 L 1171.60,371.29 L 1171.56,373.41 L 1171.47,377.39 L 1171.43,379.34 L 1171.36,382.95 L 1171.32,384.71 L 1171.26,387.93 L 1171.23,389.49 L 1171.17,392.28 L 1171.15,393.62 L 1171.11,395.95 L 1171.09,397.05 L 1171.06,398.89 L 1171.04,399.75 L 1171.03,401.06 L 1171.01,402.40 L 1171.00,411.31 L 1155.25,410.66 L 1153.08,410.58 L 1148.78,410.33 L 1146.67,410.20 L 1142.80,409.90 L 1141.89,409.82 L 1140.21,409.66 L 1139.40,409.58 L 1137.99,409.42 L 1137.32,409.34 L 1136.23,409.18 L 1135.00,408.95 L 1133.96,408.71 L 1132.04,408.00 L 1131.09,407.58 L 1129.15,406.29 L 1128.66,405.92 L 1127.63,405.01 L 1127.10,404.52 L 1125.98,403.35 L 1125.41,402.73 L 1124.18,401.27 L 1123.54,400.50 L 1122.16,398.69 L 1121.45,397.75 L 1119.89,395.57 L 1119.09,394.43 L 1117.33,391.83 L 1116.42,390.48 L 1114.42,387.43 L 1113.39,385.84 L 1111.12,382.29 L 1109.95,380.45 L 1107.38,376.36 L 1106.06,374.25 L 1103.17,369.58 L 1101.68,367.18 L 1098.43,361.89 L 1093.12,353.23 L 1090.77,349.37 L 1086.41,342.27 L 1084.30,338.81 L 1080.40,332.47 L 1078.51,329.39 L 1075.05,323.78 L 1073.37,321.06 L 1070.32,316.13 L 1068.84,313.74 L 1066.17,309.46 L 1064.88,307.39 L 1062.57,303.72 L 1061.45,301.95 L 1059.47,298.84 L 1058.51,297.35 L 1056.83,294.77 L 1056.03,293.54 L 1054.63,291.45 L 1053.96,290.46 L 1052.81,288.82 L 1052.26,288.05 L 1051.34,286.82 L 1050.91,286.25 L 1050.19,285.39 L 1049.85,285.01 L 1049.30,284.48 L 1049.05,284.25 L 1048.65,284.01 L 1047.90,284.21 L 1047.85,284.30 L 1047.74,284.91 L 1047.69,285.28 L 1047.57,286.44 L 1047.51,287.09 L 1047.39,288.79 L 1047.32,289.71 L 1047.19,291.93 L 1047.12,293.11 L 1046.98,295.83 L 1046.91,297.26 L 1046.76,300.48 L 1046.68,302.15 L 1046.53,305.85 L 1046.45,307.75 L 1046.29,311.90 L 1046.21,314.04 L 1046.05,318.63 L 1045.96,320.99 L 1045.80,326.01 L 1045.71,328.57 L 1045.54,334.01 L 1045.45,336.77 L 1045.28,342.60 L 1045.19,345.57 L 1045.01,351.78 L 1044.92,354.93 L 1044.74,361.50 L 1044.65,364.83 L 1044.47,371.75 L 1044.20,382.50 L 1043.50,410.50 L 1026.00,410.59 L 1023.59,410.61 L 1018.90,410.60 L 1016.61,410.59 L 1012.49,410.54 L 1011.52,410.52 L 1009.77,410.49 L 1008.93,410.47 L 1007.49,410.43 L 1006.81,410.40 L 1005.73,410.35 L 1005.24,410.33 L 1004.59,410.27 L 1000.68,409.86 L 1001.33,365.68 L 1001.42,359.40 L 1001.64,346.20 L 1001.76,339.53 L 1002.03,325.86 L 1002.17,319.01 L 1002.47,305.32 L 1002.62,298.52 L 1002.94,285.24 L 1003.11,278.70 L 1003.44,266.28 L 1003.52,263.24 L 1003.69,257.42 L 1003.77,254.55 L 1003.94,249.08 L 1004.02,246.40 L 1004.18,241.36 L 1004.26,238.90 L 1004.42,234.33 L 1004.50,232.11 L 1004.65,228.07 L 1004.88,222.66 L 1004.95,220.96 L 1005.10,217.96 L 1005.17,216.53 L 1005.32,214.07 L 1005.40,212.90 L 1005.55,210.91 L 1005.63,209.98 L 1005.80,208.43 L 1005.88,207.71 L 1006.06,206.56 L 1006.16,206.03 L 1006.36,205.22 L 1006.47,204.86 L 1006.70,204.37 L 1007.08,203.93 L 1007.18,203.87 L 1007.71,203.75 L 1008.03,203.69 L 1008.96,203.58 L 1009.47,203.52 L 1010.76,203.43 L 1011.44,203.38 L 1013.03,203.29 L 1014.69,203.21 L 1018.69,203.09 L 1025.35,203.02 L 1027.06,203.01 L 1030.05,203.03 L 1031.47,203.04 L 1033.92,203.08 L 1035.08,203.10 L 1037.07,203.18 L 1038.01,203.22 L 1039.61,203.33 L 1040.36,203.39 L 1041.64,203.55 L 1042.24,203.63 L 1043.26,203.84 L 1045.74,204.68 L 1046.46,205.02 L 1047.97,206.07 L 1048.36,206.39 L 1049.21,207.18 L 1049.65,207.60 L 1050.62,208.66 L 1051.13,209.23 L 1052.26,210.61 L 1052.84,211.35 L 1054.17,213.12 L 1054.86,214.06 L 1056.42,216.27 L 1057.23,217.43 L 1059.06,220.14 L 1060.01,221.56 L 1062.15,224.82 L 1063.26,226.53 L 1065.75,230.40 L 1067.04,232.42 L 1069.92,236.96 L 1071.41,239.32 L 1074.71,244.59 L 1076.42,247.32 L 1080.18,253.38 L 1082.13,256.50 L 1086.39,263.40 L 1087.49,265.18 L 1089.79,268.90 L 1090.96,270.79 L 1093.40,274.74 L 1094.64,276.75 L 1097.22,280.94 L 1101.26,287.50 L 1103.03,290.39 L 1106.47,295.96 L 1108.16,298.70 L 1111.37,303.88 L 1112.94,306.42 L 1115.85,311.10 L 1117.26,313.37 L 1119.79,317.44 L 1121.01,319.39 L 1123.10,322.72 L 1124.08,324.29 L 1125.65,326.77 L 1126.00,327.33 L 1126.61,328.27 L 1126.89,328.71 L 1127.34,329.40 L 1127.54,329.71 L 1127.82,330.14 L 1128.05,330.45 L 1128.20,330.60 L 1128.46,330.55 L 1128.57,330.47 L 1128.76,329.97 L 1128.84,329.67 L 1128.95,328.76 L 1129.03,326.95 L 1129.03,326.83 L 1129.04,326.27 L 1129.04,325.94 L 1129.06,324.96 L 1129.07,324.42 L 1129.10,323.05 L 1129.12,322.32 L 1129.16,320.60 L 1129.18,319.69 L 1129.22,317.64 L 1129.25,316.58 L 1129.30,314.22 L 1129.36,311.79 L 1129.49,306.16 L 1129.55,303.23 L 1129.70,296.77 L 1129.78,293.45 L 1129.95,286.38 L 1130.03,282.79 L 1130.21,275.34 L 1130.30,271.59 L 1130.48,263.99 L 1130.57,260.20 L 1130.75,252.68 L 1130.84,248.95 L 1131.01,241.74 L 1131.10,238.20 L 1131.26,231.53 L 1131.34,228.28 L 1131.48,222.38 L 1131.52,220.96 L 1131.58,218.31 L 1131.61,217.01 L 1131.67,214.63 L 1131.70,213.48 L 1131.75,211.39 L 1131.78,210.39 L 1131.82,208.63 L 1131.84,207.80 L 1131.88,206.39 L 1131.90,205.74 L 1131.93,204.72 L 1131.94,204.27 L 1131.96,203.66 L 1131.97,203.25 L 1131.97,203.23 L 1132.42,203.20 L 1132.71,203.18 L 1133.68,203.15 L 1134.23,203.14 L 1135.67,203.11 L 1136.45,203.10 L 1138.31,203.07 L 1139.28,203.06 L 1141.50,203.04 L 1142.64,203.03 L 1145.15,203.02 L 1153.50,203.00 L 1175.00,203.00 M 837.33,221.61 L 839.48,225.06 L 843.48,231.37 L 845.42,234.42 L 848.97,239.89 L 850.69,242.52 L 853.79,247.14 L 855.28,249.34 L 857.90,253.07 L 859.14,254.83 L 861.27,257.65 L 861.76,258.30 L 862.66,259.42 L 863.10,259.95 L 863.87,260.83 L 864.24,261.24 L 864.88,261.89 L 865.18,262.18 L 865.68,262.58 L 865.92,262.75 L 866.28,262.91 L 866.67,262.86 L 866.76,262.79 L 867.31,262.05 L 867.65,261.59 L 868.67,260.14 L 869.24,259.33 L 870.67,257.25 L 871.43,256.13 L 873.21,253.50 L 874.14,252.12 L 876.22,249.02 L 877.29,247.42 L 879.61,243.93 L 880.80,242.15 L 883.30,238.36 L 887.20,232.43 L 906.50,203.04 L 924.00,203.03 L 926.41,203.03 L 931.21,203.07 L 933.57,203.10 L 937.90,203.21 L 938.93,203.23 L 940.82,203.30 L 941.73,203.33 L 943.33,203.40 L 944.09,203.44 L 945.34,203.52 L 946.75,203.65 L 947.91,203.79 L 949.53,204.06 L 950.23,204.20 L 951.11,204.56 L 951.48,204.77 L 951.83,205.35 L 952.00,206.59 L 952.00,206.91 L 951.87,207.72 L 951.79,208.15 L 951.49,209.16 L 951.32,209.70 L 950.84,210.92 L 950.58,211.56 L 949.93,213.00 L 949.58,213.75 L 948.74,215.42 L 948.30,216.28 L 947.27,218.17 L 946.74,219.15 L 945.52,221.28 L 944.89,222.37 L 943.48,224.74 L 942.75,225.96 L 941.15,228.58 L 940.32,229.92 L 938.51,232.79 L 937.58,234.26 L 935.57,237.39 L 934.54,238.99 L 932.32,242.38 L 931.18,244.12 L 928.75,247.78 L 927.51,249.65 L 924.86,253.60 L 923.51,255.60 L 920.64,259.83 L 916.09,266.50 L 913.83,269.80 L 909.29,276.47 L 907.05,279.76 L 902.91,285.88 L 901.92,287.34 L 900.11,290.04 L 899.23,291.34 L 897.68,293.66 L 896.94,294.76 L 895.72,296.61 L 894.31,298.76 L 888.97,307.03 L 895.81,317.26 L 898.81,321.75 L 904.72,330.75 L 907.65,335.23 L 913.33,344.07 L 916.13,348.45 L 921.44,356.91 L 924.03,361.07 L 928.84,368.93 L 930.01,370.84 L 932.22,374.53 L 933.31,376.34 L 935.35,379.80 L 936.35,381.49 L 938.20,384.70 L 939.10,386.27 L 940.75,389.19 L 941.55,390.61 L 942.98,393.23 L 943.66,394.49 L 944.85,396.77 L 945.42,397.87 L 946.35,399.78 L 947.45,402.22 L 947.81,403.09 L 948.26,404.29 L 948.43,404.82 L 948.49,405.53 L 948.47,405.84 L 948.12,406.29 L 947.12,406.94 L 946.98,407.01 L 946.47,407.18 L 946.19,407.26 L 945.41,407.45 L 944.57,407.65 L 942.23,408.07 L 940.98,408.29 L 938.02,408.75 L 936.49,408.97 L 933.20,409.42 L 931.54,409.63 L 928.20,410.02 L 926.56,410.21 L 923.47,410.51 L 921.99,410.65 L 919.44,410.83 L 916.53,410.91 L 915.42,410.89 L 912.75,410.58 L 912.10,410.48 L 910.87,410.26 L 910.29,410.15 L 909.32,409.90 L 908.57,409.68 L 906.79,408.60 L 905.86,407.95 L 903.72,405.99 L 902.59,404.89 L 900.06,402.02 L 898.74,400.46 L 895.79,396.65 L 895.02,395.63 L 893.41,393.43 L 892.60,392.29 L 890.88,389.84 L 890.00,388.58 L 888.17,385.87 L 887.23,384.49 L 885.28,381.54 L 884.29,380.03 L 882.22,376.82 L 881.17,375.18 L 878.98,371.71 L 877.87,369.94 L 875.56,366.21 L 871.94,360.31 L 871.05,358.85 L 869.57,356.43 L 868.88,355.30 L 867.74,353.50 L 867.20,352.67 L 866.35,351.42 L 865.94,350.85 L 865.30,350.06 L 865.00,349.72 L 864.50,349.33 L 864.27,349.18 L 863.86,349.12 L 862.65,349.81 L 862.38,350.05 L 861.50,351.06 L 861.01,351.64 L 859.68,353.32 L 858.97,354.23 L 857.22,356.56 L 856.29,357.80 L 854.13,360.75 L 853.00,362.30 L 850.45,365.86 L 849.12,367.71 L 846.19,371.85 L 844.68,374.00 L 841.39,378.70 L 836.06,386.35 L 835.17,387.63 L 833.55,389.97 L 832.76,391.10 L 831.32,393.15 L 830.63,394.14 L 829.36,395.93 L 828.74,396.80 L 827.62,398.34 L 826.53,399.83 L 824.72,402.16 L 823.86,403.23 L 822.39,404.85 L 821.68,405.59 L 820.40,406.65 L 819.77,407.13 L 818.52,407.79 L 817.89,408.09 L 816.53,408.52 L 814.20,409.07 L 812.78,409.36 L 809.35,409.70 L 807.56,409.82 L 803.60,409.85 L 801.59,409.82 L 797.40,409.58 L 795.31,409.42 L 791.18,408.94 L 789.14,408.67 L 785.36,408.00 L 783.54,407.64 L 780.38,406.80 L 778.91,406.37 L 776.69,405.41 L 776.20,405.17 L 775.45,404.66 L 774.70,403.89 L 774.60,403.73 L 774.57,403.24 L 774.58,402.96 L 774.82,402.18 L 774.97,401.75 L 775.51,400.63 L 775.82,400.01 L 776.70,398.47 L 777.18,397.64 L 778.43,395.62 L 779.11,394.54 L 780.78,391.97 L 781.67,390.61 L 783.80,387.42 L 787.54,381.89 L 790.04,378.21 L 794.66,371.38 L 796.92,368.06 L 801.07,361.92 L 803.08,358.93 L 806.78,353.44 L 808.57,350.77 L 811.84,345.88 L 813.42,343.51 L 816.28,339.18 L 817.66,337.09 L 820.14,333.29 L 821.34,331.46 L 823.46,328.15 L 824.48,326.55 L 826.28,323.68 L 827.14,322.31 L 828.62,319.85 L 829.33,318.67 L 830.54,316.58 L 831.11,315.58 L 832.05,313.82 L 832.50,312.98 L 833.21,311.51 L 833.54,310.81 L 834.05,309.59 L 834.28,309.01 L 834.60,308.00 L 835.00,305.58 L 835.00,305.07 L 834.74,303.77 L 834.56,303.07 L 833.89,301.29 L 833.51,300.34 L 832.40,298.00 L 831.78,296.75 L 830.17,293.75 L 829.30,292.17 L 827.14,288.42 L 826.56,287.43 L 825.30,285.30 L 824.65,284.21 L 823.23,281.86 L 822.50,280.65 L 820.92,278.07 L 820.11,276.75 L 818.36,273.93 L 817.46,272.49 L 815.54,269.41 L 812.46,264.50 L 810.54,261.46 L 807.02,255.85 L 805.31,253.13 L 802.17,248.13 L 800.65,245.70 L 797.89,241.27 L 796.55,239.12 L 794.14,235.23 L 792.98,233.34 L 790.90,229.95 L 789.90,228.31 L 788.13,225.37 L 787.28,223.96 L 785.81,221.46 L 785.10,220.25 L 783.89,218.14 L 783.32,217.13 L 782.36,215.37 L 781.91,214.53 L 781.19,213.09 L 780.85,212.40 L 780.33,211.25 L 780.10,210.70 L 779.77,209.80 L 779.48,208.94 L 779.39,207.83 L 779.83,206.77 L 780.06,206.54 L 780.80,206.12 L 781.22,205.92 L 782.37,205.55 L 783.00,205.37 L 784.60,205.05 L 785.45,204.89 L 787.53,204.61 L 788.64,204.47 L 791.24,204.22 L 792.61,204.10 L 795.77,203.89 L 797.42,203.79 L 801.18,203.60 L 807.52,203.35 L 825.54,202.72 M 737.61,178.95 L 737.26,179.36 L 736.29,180.44 L 735.76,181.02 L 734.46,182.43 L 733.76,183.18 L 732.15,184.90 L 731.30,185.80 L 729.39,187.82 L 728.40,188.86 L 726.21,191.14 L 725.09,192.32 L 722.65,194.85 L 721.40,196.14 L 718.74,198.90 L 717.37,200.31 L 714.50,203.27 L 713.03,204.77 L 709.96,207.92 L 706.85,211.11 L 700.14,217.95 L 696.72,221.43 L 689.51,228.74 L 678.33,240.02 L 623.15,295.55 L 621.70,363.00 L 634.60,363.02 L 636.14,363.02 L 639.72,363.05 L 641.59,363.06 L 645.76,363.11 L 647.90,363.14 L 652.53,363.21 L 654.89,363.25 L 659.88,363.35 L 664.93,363.44 L 675.61,363.68 L 680.98,363.81 L 691.62,364.09 L 694.24,364.16 L 699.31,364.30 L 701.80,364.38 L 706.56,364.52 L 708.88,364.59 L 713.20,364.74 L 715.30,364.81 L 719.08,364.95 L 720.89,365.02 L 724.02,365.15 L 725.49,365.21 L 727.84,365.33 L 728.92,365.39 L 730.40,365.50 L 731.51,365.64 L 731.92,365.80 L 732.47,366.55 L 732.59,366.82 L 732.76,367.63 L 732.84,368.10 L 732.94,369.39 L 732.98,370.12 L 733.01,372.04 L 733.02,373.08 L 733.00,375.75 L 732.98,377.20 L 732.91,380.75 L 732.89,381.70 L 732.84,383.79 L 732.75,387.22 L 732.68,390.10 L 732.51,395.37 L 732.47,396.62 L 732.39,398.95 L 732.35,400.07 L 732.26,402.09 L 732.22,403.05 L 732.14,404.70 L 732.11,405.47 L 732.03,406.69 L 732.00,407.25 L 731.93,407.98 L 731.85,408.48 L 731.82,408.51 L 731.12,408.58 L 730.67,408.62 L 729.18,408.72 L 728.35,408.77 L 726.16,408.89 L 724.99,408.95 L 722.19,409.09 L 720.73,409.16 L 717.41,409.31 L 715.69,409.39 L 711.94,409.55 L 710.02,409.63 L 705.93,409.80 L 699.49,410.04 L 697.39,410.12 L 692.64,410.26 L 690.19,410.33 L 684.82,410.44 L 682.08,410.49 L 676.22,410.58 L 673.25,410.62 L 667.04,410.69 L 660.76,410.75 L 647.65,410.80 L 641.09,410.81 L 628.18,410.77 L 625.01,410.76 L 618.88,410.71 L 615.86,410.69 L 610.13,410.62 L 607.32,410.59 L 602.10,410.50 L 599.57,410.46 L 595.00,410.35 L 592.81,410.30 L 589.02,410.18 L 587.22,410.11 L 584.33,409.97 L 583.66,409.94 L 582.53,409.86 L 581.99,409.82 L 581.12,409.74 L 580.72,409.70 L 580.14,409.62 L 579.60,409.49 L 579.37,409.39 L 578.99,409.11 L 578.82,408.94 L 578.54,408.33 L 578.41,407.97 L 578.23,406.80 L 578.15,406.12 L 578.04,404.15 L 578.02,403.60 L 577.99,402.30 L 577.98,401.61 L 577.96,400.04 L 577.96,399.21 L 577.96,397.32 L 577.97,396.33 L 577.98,394.10 L 577.99,392.94 L 578.03,390.34 L 578.04,388.99 L 578.09,385.98 L 578.11,384.43 L 578.17,381.00 L 578.26,375.34 L 578.30,373.04 L 578.36,368.64 L 578.38,366.47 L 578.42,362.39 L 578.44,360.40 L 578.45,356.73 L 578.45,354.96 L 578.44,351.79 L 578.44,350.28 L 578.41,347.71 L 578.39,346.51 L 578.33,344.63 L 578.31,343.78 L 578.23,342.68 L 578.10,342.00 L 578.00,342.00 L 577.58,342.24 L 577.36,342.39 L 578.68,341.14 L 579.84,301.82 L 580.08,293.33 L 580.25,287.35 L 580.34,284.26 L 580.68,271.70 L 580.84,265.50 L 581.01,259.34 L 581.08,256.38 L 581.23,250.54 L 581.30,247.80 L 581.43,242.46 L 581.49,240.05 L 581.60,235.40 L 581.65,233.40 L 582.30,204.29 L 594.90,203.65 L 600.49,203.40 L 604.46,203.25 L 606.41,203.20 L 610.23,203.09 L 611.93,203.06 L 615.15,203.00 L 616.37,203.00 L 625.25,203.00 L 624.61,234.75 L 624.32,248.22 L 624.11,257.24 L 624.00,261.43 L 623.89,265.55 L 623.84,267.47 L 623.74,271.19 L 623.69,272.86 L 623.59,276.07 L 623.55,277.44 L 623.47,280.00 L 623.43,281.00 L 622.89,295.50 L 678.20,240.00 L 689.41,228.72 L 696.63,221.42 L 700.06,217.94 L 706.78,211.10 L 709.90,207.91 L 712.98,204.77 L 714.45,203.26 L 717.33,200.30 L 718.70,198.89 L 721.37,196.14 L 722.62,194.84 L 725.06,192.31 L 726.19,191.14 L 728.38,188.86 L 729.37,187.82 L 731.29,185.80 L 732.14,184.90 L 733.76,183.18 L 734.45,182.43 L 735.76,181.02 L 736.29,180.44 L 737.26,179.36 L 737.61,178.95 L 737.72,178.82 M 1553.98,203.05 L 1555.29,203.08 L 1558.19,203.19 L 1559.65,203.24 L 1562.57,203.39 L 1566.60,203.63 L 1575.50,204.26 L 1579.33,222.38 L 1580.23,226.62 L 1581.97,234.82 L 1582.83,238.86 L 1584.50,246.65 L 1585.33,250.49 L 1586.92,257.85 L 1587.71,261.47 L 1589.22,268.39 L 1589.97,271.78 L 1591.39,278.23 L 1592.10,281.39 L 1593.44,287.35 L 1594.09,290.27 L 1595.34,295.72 L 1595.95,298.38 L 1597.09,303.31 L 1597.65,305.70 L 1598.69,310.08 L 1599.20,312.20 L 1600.13,316.02 L 1600.58,317.86 L 1601.40,321.09 L 1601.79,322.63 L 1602.49,325.25 L 1602.83,326.49 L 1603.41,328.49 L 1603.68,329.41 L 1604.14,330.77 L 1604.35,331.37 L 1604.67,332.06 L 1604.99,332.33 L 1605.05,332.28 L 1605.24,331.79 L 1605.36,331.49 L 1605.66,330.55 L 1605.83,330.03 L 1606.23,328.70 L 1606.44,327.99 L 1606.91,326.31 L 1607.16,325.43 L 1607.70,323.47 L 1607.98,322.45 L 1608.57,320.25 L 1610.46,313.00 L 1610.79,311.73 L 1611.62,308.47 L 1612.07,306.73 L 1613.12,302.66 L 1613.67,300.54 L 1614.90,295.82 L 1615.53,293.39 L 1616.88,288.18 L 1617.57,285.53 L 1619.02,279.99 L 1619.75,277.20 L 1621.25,271.49 L 1625.71,254.50 L 1627.16,249.00 L 1629.92,238.52 L 1630.59,235.98 L 1631.85,231.19 L 1632.47,228.85 L 1633.60,224.56 L 1634.14,222.49 L 1635.11,218.81 L 1635.57,217.07 L 1636.34,214.14 L 1636.70,212.78 L 1637.24,210.72 L 1637.35,210.27 L 1637.54,209.54 L 1637.75,208.75 L 1639.25,203.00 L 1657.37,203.02 L 1659.87,203.02 L 1664.53,203.10 L 1666.77,203.15 L 1670.62,203.31 L 1671.51,203.35 L 1673.06,203.45 L 1673.79,203.50 L 1674.99,203.61 L 1675.54,203.67 L 1676.33,203.79 L 1677.00,203.98 L 1677.33,204.19 L 1677.67,204.93 L 1677.73,205.16 L 1677.76,205.80 L 1677.75,206.15 L 1677.66,207.08 L 1677.59,207.58 L 1677.36,208.85 L 1677.23,209.54 L 1676.85,211.23 L 1676.65,212.14 L 1676.12,214.32 L 1675.15,218.21 L 1674.52,220.71 L 1673.14,225.97 L 1672.43,228.67 L 1670.83,234.53 L 1669.99,237.56 L 1668.09,244.25 L 1667.59,245.98 L 1666.53,249.65 L 1665.99,251.51 L 1664.84,255.47 L 1664.24,257.48 L 1662.98,261.75 L 1662.33,263.93 L 1660.96,268.55 L 1660.25,270.90 L 1658.75,275.90 L 1657.98,278.45 L 1656.35,283.85 L 1655.51,286.60 L 1653.74,292.44 L 1652.83,295.41 L 1650.91,301.71 L 1649.93,304.92 L 1647.85,311.72 L 1644.53,322.50 L 1642.25,329.93 L 1637.77,344.65 L 1636.67,348.26 L 1634.58,355.21 L 1633.55,358.62 L 1631.62,365.04 L 1630.69,368.17 L 1628.99,373.87 L 1628.18,376.62 L 1626.77,381.41 L 1626.44,382.55 L 1625.84,384.61 L 1625.55,385.61 L 1625.04,387.38 L 1624.80,388.23 L 1624.39,389.69 L 1623.89,391.50 L 1623.34,393.56 L 1622.29,397.42 L 1621.79,399.28 L 1620.92,402.46 L 1620.72,403.20 L 1620.37,404.48 L 1620.21,405.09 L 1619.93,406.08 L 1619.81,406.54 L 1619.62,407.19 L 1619.46,407.75 L 1619.42,407.87 L 1619.16,408.07 L 1618.99,408.17 L 1618.45,408.34 L 1618.14,408.42 L 1617.28,408.55 L 1616.81,408.62 L 1615.62,408.72 L 1614.98,408.77 L 1613.41,408.85 L 1612.58,408.89 L 1610.61,408.94 L 1609.57,408.96 L 1607.17,408.98 L 1603.05,409.00 L 1601.08,409.00 L 1597.83,408.99 L 1596.31,408.99 L 1593.88,408.96 L 1592.76,408.94 L 1591.02,408.87 L 1590.22,408.83 L 1589.06,408.71 L 1588.53,408.64 L 1587.81,408.44 L 1587.49,408.33 L 1587.10,408.04 L 1586.51,406.75 L 1586.48,406.60 L 1586.29,405.79 L 1586.19,405.31 L 1585.87,403.92 L 1585.70,403.15 L 1585.27,401.24 L 1585.05,400.22 L 1584.52,397.86 L 1584.25,396.63 L 1583.64,393.90 L 1583.32,392.50 L 1582.65,389.48 L 1580.46,379.65 L 1579.99,377.52 L 1578.98,373.01 L 1578.46,370.72 L 1577.38,365.95 L 1576.28,361.14 L 1573.95,351.05 L 1572.77,345.98 L 1570.39,335.82 L 1569.21,330.78 L 1566.91,321.14 L 1566.35,318.79 L 1565.26,314.28 L 1564.73,312.07 L 1563.72,307.89 L 1563.22,305.85 L 1562.29,302.08 L 1561.84,300.25 L 1561.02,296.95 L 1560.62,295.37 L 1559.93,292.62 L 1559.59,291.32 L 1559.03,289.19 L 1558.77,288.21 L 1558.37,286.78 L 1557.96,285.50 L 1557.82,285.14 L 1557.57,284.59 L 1557.45,284.35 L 1557.22,284.09 L 1557.10,284.01 L 1556.85,284.11 L 1556.72,284.21 L 1556.42,284.74 L 1556.26,285.07 L 1555.87,286.09 L 1555.67,286.68 L 1555.16,288.27 L 1554.89,289.14 L 1554.23,291.37 L 1553.04,295.50 L 1552.91,295.95 L 1552.59,297.08 L 1552.42,297.69 L 1552.02,299.13 L 1551.80,299.89 L 1551.33,301.61 L 1551.08,302.50 L 1550.53,304.48 L 1549.97,306.53 L 1548.66,311.31 L 1547.98,313.80 L 1546.47,319.34 L 1545.70,322.19 L 1544.03,328.32 L 1543.19,331.44 L 1541.42,338.00 L 1535.93,358.40 L 1535.01,361.83 L 1533.22,368.45 L 1532.33,371.71 L 1530.64,377.88 L 1529.80,380.89 L 1528.24,386.48 L 1527.48,389.18 L 1526.09,394.03 L 1525.43,396.36 L 1524.26,400.34 L 1523.98,401.27 L 1523.47,402.96 L 1523.23,403.77 L 1522.79,405.18 L 1522.58,405.86 L 1522.22,406.99 L 1522.04,407.52 L 1521.76,408.36 L 1521.62,408.73 L 1521.42,409.25 L 1521.21,409.65 L 1520.82,410.04 L 1519.99,410.53 L 1519.74,410.62 L 1519.08,410.74 L 1518.72,410.79 L 1517.76,410.80 L 1517.23,410.80 L 1515.85,410.71 L 1515.09,410.65 L 1513.18,410.46 L 1512.14,410.35 L 1509.58,410.06 L 1508.20,409.90 L 1504.88,409.50 L 1503.42,409.32 L 1500.60,408.91 L 1499.23,408.70 L 1496.79,408.27 L 1495.65,408.06 L 1493.87,407.66 L 1492.26,407.14 L 1492.06,407.03 L 1491.64,406.56 L 1491.42,406.28 L 1490.96,405.38 L 1490.71,404.86 L 1490.17,403.43 L 1489.88,402.64 L 1489.23,400.57 L 1488.88,399.44 L 1488.09,396.62 L 1487.67,395.11 L 1486.70,391.45 L 1486.19,389.50 L 1485.01,384.89 L 1484.70,383.67 L 1484.04,381.04 L 1482.98,376.78 L 1482.73,375.78 L 1482.15,373.47 L 1481.85,372.28 L 1481.18,369.62 L 1480.84,368.24 L 1480.08,365.26 L 1479.69,363.72 L 1478.86,360.44 L 1478.01,357.09 L 1476.11,349.64 L 1475.14,345.81 L 1473.04,337.60 L 1471.96,333.41 L 1469.72,324.68 L 1468.59,320.27 L 1466.27,311.27 L 1465.11,306.76 L 1462.78,297.75 L 1459.35,284.50 L 1458.24,280.22 L 1456.19,272.33 L 1455.20,268.49 L 1453.38,261.46 L 1452.50,258.05 L 1450.90,251.83 L 1450.12,248.82 L 1448.73,243.36 L 1448.05,240.72 L 1446.85,235.97 L 1446.27,233.69 L 1445.24,229.60 L 1444.75,227.64 L 1443.89,224.17 L 1443.48,222.50 L 1442.78,219.60 L 1442.45,218.21 L 1441.90,215.82 L 1441.64,214.68 L 1441.22,212.75 L 1441.02,211.84 L 1440.72,210.33 L 1440.58,209.62 L 1440.39,208.48 L 1440.31,207.94 L 1440.22,207.11 L 1440.18,206.73 L 1440.17,206.17 L 1440.42,205.25 L 1440.47,205.20 L 1440.95,205.10 L 1441.26,205.05 L 1442.20,204.96 L 1442.73,204.92 L 1444.08,204.83 L 1444.80,204.79 L 1446.50,204.72 L 1447.39,204.69 L 1449.39,204.63 L 1450.42,204.60 L 1452.67,204.56 L 1460.06,204.50 L 1461.53,204.50 L 1464.18,204.49 L 1465.46,204.49 L 1467.76,204.49 L 1468.87,204.49 L 1470.84,204.52 L 1471.79,204.54 L 1473.47,204.62 L 1474.27,204.67 L 1475.67,204.81 L 1476.35,204.90 L 1477.51,205.13 L 1478.62,205.38 L 1480.25,206.24 L 1480.98,206.74 L 1482.02,208.20 L 1482.48,209.02 L 1483.16,211.24 L 1483.48,212.46 L 1484.03,215.60 L 1484.17,216.44 L 1484.47,218.34 L 1484.97,221.50 L 1485.14,222.62 L 1485.58,225.18 L 1485.80,226.51 L 1486.32,229.45 L 1486.59,230.97 L 1487.19,234.26 L 1487.50,235.95 L 1488.17,239.55 L 1488.52,241.39 L 1489.25,245.28 L 1489.63,247.25 L 1490.43,251.37 L 1491.24,255.55 L 1493.01,264.47 L 1493.91,269.01 L 1495.82,278.42 L 1496.79,283.16 L 1498.79,292.78 L 1499.79,297.59 L 1501.81,307.12 L 1504.81,320.99 L 1505.04,322.06 L 1505.74,323.51 L 1506.13,324.12 L 1507.14,324.65 L 1507.69,324.80 L 1509.02,324.41 L 1511.39,322.80 L 1511.90,322.36 L 1512.75,321.26 L 1513.16,320.66 L 1513.90,319.07 L 1514.27,318.20 L 1514.98,315.92 L 1516.11,311.50 L 1516.18,311.19 L 1516.38,310.37 L 1516.48,309.92 L 1516.75,308.85 L 1517.02,307.71 L 1517.76,304.73 L 1518.15,303.14 L 1519.09,299.36 L 1519.58,297.39 L 1520.69,292.95 L 1521.26,290.66 L 1522.50,285.70 L 1523.14,283.17 L 1524.49,277.82 L 1528.75,261.00 L 1530.20,255.29 L 1533.00,244.24 L 1533.68,241.55 L 1534.97,236.42 L 1535.60,233.92 L 1536.78,229.27 L 1537.34,227.01 L 1538.36,222.97 L 1538.84,221.03 L 1539.67,217.73 L 1540.06,216.18 L 1540.66,213.75 L 1540.79,213.21 L 1541.02,212.31 L 1541.27,211.25 L 1543.25,203.00 L 1550.47,203.00 L 1551.47,203.00 M 1392.55,224.66 L 1392.45,227.67 L 1392.21,233.20 L 1392.15,234.52 L 1392.03,236.97 L 1391.97,238.15 L 1391.84,240.28 L 1391.78,241.30 L 1391.66,243.06 L 1391.59,243.88 L 1391.48,245.19 L 1391.42,245.78 L 1391.31,246.59 L 1391.16,247.17 L 1391.14,247.20 L 1390.81,247.25 L 1390.60,247.27 L 1389.91,247.33 L 1389.52,247.35 L 1388.48,247.41 L 1387.92,247.44 L 1386.57,247.50 L 1385.85,247.53 L 1384.18,247.59 L 1383.32,247.63 L 1381.37,247.69 L 1379.35,247.76 L 1374.54,247.89 L 1372.02,247.96 L 1366.31,248.10 L 1363.36,248.16 L 1356.91,248.30 L 1353.60,248.37 L 1346.56,248.49 L 1335.50,248.67 L 1280.50,249.50 L 1280.50,267.89 L 1280.57,272.01 L 1280.61,273.99 L 1280.74,277.33 L 1280.78,278.10 L 1280.87,279.43 L 1280.91,280.06 L 1281.01,281.07 L 1281.06,281.53 L 1281.16,282.17 L 1281.33,282.67 L 1281.36,282.70 L 1281.63,282.76 L 1281.80,282.79 L 1282.35,282.85 L 1282.96,282.91 L 1284.93,283.03 L 1286.03,283.09 L 1288.91,283.22 L 1290.45,283.28 L 1294.11,283.40 L 1296.03,283.46 L 1300.36,283.58 L 1302.60,283.64 L 1307.48,283.74 L 1309.98,283.79 L 1315.31,283.88 L 1323.66,284.00 L 1365.15,284.50 L 1365.04,306.40 L 1365.02,309.42 L 1364.96,314.97 L 1364.94,316.31 L 1364.89,318.77 L 1364.86,319.97 L 1364.81,322.12 L 1364.78,323.15 L 1364.72,324.93 L 1364.68,325.76 L 1364.62,327.10 L 1364.58,327.70 L 1364.51,328.54 L 1364.41,329.15 L 1364.39,329.18 L 1364.15,329.24 L 1363.99,329.27 L 1363.49,329.32 L 1362.92,329.38 L 1361.06,329.48 L 1360.02,329.53 L 1357.29,329.63 L 1355.83,329.67 L 1352.34,329.75 L 1350.51,329.79 L 1346.38,329.85 L 1344.24,329.89 L 1339.57,329.93 L 1337.17,329.95 L 1332.07,329.98 L 1324.07,330.00 L 1321.33,330.00 L 1316.00,330.01 L 1313.38,330.02 L 1308.36,330.05 L 1305.90,330.07 L 1301.30,330.11 L 1299.07,330.13 L 1295.02,330.19 L 1293.07,330.21 L 1289.68,330.28 L 1288.08,330.31 L 1285.47,330.39 L 1284.27,330.42 L 1282.55,330.50 L 1281.10,330.63 L 1277.95,331.26 L 1278.50,362.87 L 1322.50,363.52 L 1327.64,363.60 L 1337.15,363.77 L 1339.46,363.81 L 1343.87,363.90 L 1346.04,363.95 L 1350.18,364.04 L 1352.21,364.09 L 1356.06,364.19 L 1357.94,364.24 L 1361.49,364.34 L 1363.23,364.39 L 1366.49,364.49 L 1368.07,364.55 L 1371.02,364.66 L 1372.45,364.71 L 1375.08,364.82 L 1376.35,364.88 L 1378.65,364.99 L 1379.77,365.05 L 1381.74,365.17 L 1382.68,365.22 L 1384.32,365.34 L 1385.10,365.40 L 1386.39,365.52 L 1386.99,365.58 L 1387.93,365.70 L 1388.36,365.76 L 1388.94,365.89 L 1389.40,366.07 L 1389.43,366.11 L 1389.47,366.62 L 1389.48,366.95 L 1389.48,367.99 L 1389.48,368.57 L 1389.45,370.07 L 1389.44,370.87 L 1389.39,372.74 L 1389.33,374.69 L 1389.15,379.37 L 1389.06,381.80 L 1388.83,386.95 L 1388.71,389.53 L 1388.45,394.53 L 1388.33,396.96 L 1388.07,401.17 L 1388.01,402.15 L 1387.90,403.85 L 1387.84,404.64 L 1387.73,405.93 L 1387.68,406.51 L 1387.59,407.31 L 1387.47,407.86 L 1387.42,407.92 L 1386.97,408.03 L 1386.70,408.08 L 1385.83,408.20 L 1385.35,408.25 L 1384.09,408.36 L 1383.42,408.42 L 1381.79,408.53 L 1380.94,408.58 L 1378.97,408.69 L 1377.94,408.74 L 1375.66,408.85 L 1374.48,408.90 L 1371.90,409.00 L 1370.58,409.05 L 1367.74,409.15 L 1364.83,409.25 L 1358.34,409.44 L 1354.99,409.53 L 1347.77,409.70 L 1344.08,409.79 L 1336.34,409.94 L 1332.42,410.01 L 1324.35,410.14 L 1316.25,410.26 L 1299.95,410.43 L 1295.94,410.46 L 1288.15,410.50 L 1284.32,410.52 L 1277.03,410.53 L 1273.48,410.53 L 1266.90,410.50 L 1263.72,410.48 L 1258.06,410.40 L 1256.71,410.38 L 1254.22,410.33 L 1253.02,410.31 L 1250.83,410.25 L 1249.77,410.21 L 1247.90,410.14 L 1247.02,410.10 L 1245.50,410.02 L 1243.85,409.91 L 1240.82,409.72 L 1239.37,409.62 L 1236.95,409.45 L 1235.84,409.37 L 1234.29,409.25 L 1233.97,409.22 L 1233.55,409.18 L 1233.25,409.14 L 1233.19,409.10 L 1233.09,408.36 L 1233.05,407.88 L 1232.98,406.26 L 1232.96,405.34 L 1232.93,402.86 L 1232.92,401.52 L 1232.92,398.20 L 1232.93,396.44 L 1232.97,392.32 L 1232.99,390.15 L 1233.06,385.23 L 1233.10,382.68 L 1233.20,376.99 L 1233.26,374.05 L 1233.39,367.62 L 1233.46,364.31 L 1233.63,357.15 L 1233.72,353.49 L 1233.91,345.63 L 1234.02,341.61 L 1234.24,333.07 L 1234.36,328.71 L 1234.62,319.51 L 1234.75,314.83 L 1235.04,305.00 L 1235.18,300.00 L 1235.50,289.55 L 1235.66,284.25 L 1236.00,273.21 L 1236.55,256.00 L 1236.63,253.47 L 1236.79,248.77 L 1236.86,246.48 L 1237.01,242.23 L 1237.08,240.17 L 1237.22,236.36 L 1237.28,234.51 L 1237.41,231.12 L 1237.48,229.48 L 1237.60,226.48 L 1237.66,225.02 L 1237.78,222.39 L 1237.84,221.12 L 1237.95,218.84 L 1238.01,217.74 L 1238.12,215.78 L 1238.18,214.83 L 1238.29,213.18 L 1238.35,212.38 L 1238.46,211.00 L 1238.58,209.68 L 1238.81,207.79 L 1238.93,206.95 L 1239.19,205.88 L 1239.61,205.00 L 1239.77,204.84 L 1240.60,204.56 L 1240.86,204.49 L 1241.58,204.37 L 1241.97,204.31 L 1242.98,204.21 L 1243.52,204.15 L 1244.86,204.06 L 1245.58,204.01 L 1247.30,203.92 L 1248.21,203.88 L 1250.36,203.81 L 1251.49,203.77 L 1254.11,203.70 L 1255.48,203.67 L 1258.61,203.61 L 1260.25,203.58 L 1263.95,203.53 L 1265.87,203.50 L 1270.18,203.46 L 1272.41,203.43 L 1277.37,203.39 L 1279.94,203.37 L 1285.60,203.33 L 1288.53,203.31 L 1294.93,203.27 L 1298.23,203.25 L 1305.43,203.22 L 1317.17,203.16 L 1393.27,202.83 M 1808.43,202.92 L 1811.22,202.94 L 1816.80,203.08 L 1819.56,203.16 L 1824.84,203.41 L 1827.42,203.54 L 1832.08,203.89 L 1833.19,203.98 L 1835.24,204.19 L 1838.00,204.53 L 1842.05,205.09 L 1850.19,206.47 L 1852.18,206.82 L 1855.99,207.55 L 1857.85,207.92 L 1861.30,208.65 L 1862.96,209.02 L 1865.89,209.72 L 1867.29,210.06 L 1869.56,210.70 L 1870.61,211.01 L 1872.09,211.55 L 1873.24,212.22 L 1873.30,212.31 L 1873.41,212.96 L 1873.46,213.36 L 1873.54,214.55 L 1873.58,215.21 L 1873.64,216.87 L 1873.67,217.75 L 1873.71,219.80 L 1873.73,220.86 L 1873.75,223.21 L 1873.76,224.41 L 1873.76,226.98 L 1873.76,229.59 L 1873.70,235.12 L 1873.66,237.89 L 1873.54,243.24 L 1873.51,244.54 L 1873.43,246.99 L 1873.39,248.19 L 1873.30,250.37 L 1873.25,251.42 L 1873.15,253.25 L 1873.10,254.12 L 1872.99,255.52 L 1872.93,256.16 L 1872.81,257.04 L 1872.62,257.71 L 1872.58,257.76 L 1872.11,257.77 L 1871.81,257.77 L 1870.88,257.68 L 1870.37,257.63 L 1869.04,257.46 L 1868.33,257.36 L 1866.65,257.11 L 1865.77,256.98 L 1863.79,256.65 L 1862.77,256.48 L 1860.55,256.10 L 1853.22,254.73 L 1851.66,254.42 L 1848.73,253.86 L 1847.30,253.58 L 1844.62,253.08 L 1842.00,252.58 L 1837.40,251.77 L 1835.19,251.38 L 1831.26,250.76 L 1829.35,250.48 L 1825.87,250.03 L 1822.47,249.62 L 1816.13,249.21 L 1814.52,249.14 L 1811.15,249.06 L 1805.68,249.02 L 1801.76,249.03 L 1794.38,249.50 L 1792.60,249.65 L 1789.23,250.05 L 1787.58,250.27 L 1784.52,250.79 L 1783.04,251.07 L 1780.38,251.70 L 1779.10,252.03 L 1776.88,252.75 L 1775.83,253.13 L 1774.13,253.94 L 1772.22,255.25 L 1771.43,255.98 L 1769.91,257.95 L 1769.18,258.98 L 1767.92,261.27 L 1767.34,262.41 L 1766.53,264.65 L 1766.00,267.56 L 1766.00,268.28 L 1766.58,270.24 L 1767.98,272.98 L 1768.52,273.73 L 1769.91,275.09 L 1770.67,275.74 L 1772.57,276.92 L 1773.60,277.49 L 1776.14,278.52 L 1777.50,279.02 L 1780.78,279.93 L 1782.52,280.37 L 1786.65,281.18 L 1788.83,281.58 L 1793.91,282.33 L 1795.25,282.51 L 1798.12,282.87 L 1799.59,283.05 L 1802.74,283.41 L 1804.35,283.58 L 1807.80,283.93 L 1813.30,284.46 L 1815.83,284.69 L 1820.36,285.16 L 1822.55,285.39 L 1826.48,285.89 L 1828.38,286.14 L 1831.81,286.68 L 1833.47,286.95 L 1836.49,287.55 L 1837.96,287.87 L 1840.66,288.55 L 1841.99,288.91 L 1844.47,289.70 L 1851.56,292.58 L 1853.08,293.30 L 1855.92,294.85 L 1857.30,295.64 L 1859.85,297.35 L 1861.09,298.23 L 1863.37,300.11 L 1864.48,301.07 L 1866.51,303.14 L 1867.49,304.20 L 1869.28,306.48 L 1870.14,307.64 L 1871.71,310.13 L 1872.46,311.41 L 1873.81,314.13 L 1875.61,318.50 L 1876.39,320.66 L 1877.50,325.08 L 1877.99,327.34 L 1878.53,332.31 L 1878.63,333.60 L 1878.73,336.38 L 1878.76,337.81 L 1878.73,340.88 L 1878.69,342.46 L 1878.54,345.89 L 1878.16,351.50 L 1878.02,353.22 L 1877.69,356.40 L 1877.50,357.95 L 1877.06,360.85 L 1876.59,363.68 L 1875.25,368.73 L 1874.50,371.18 L 1872.52,375.80 L 1868.67,382.73 L 1867.70,384.26 L 1865.28,387.20 L 1864.00,388.65 L 1860.98,391.40 L 1859.41,392.75 L 1855.86,395.28 L 1854.03,396.52 L 1850.03,398.79 L 1847.97,399.89 L 1843.57,401.87 L 1841.33,402.82 L 1836.60,404.47 L 1834.20,405.25 L 1829.21,406.53 L 1821.50,408.01 L 1820.73,408.12 L 1818.89,408.33 L 1817.93,408.44 L 1815.76,408.62 L 1814.63,408.71 L 1812.16,408.88 L 1810.90,408.95 L 1808.20,409.09 L 1805.45,409.22 L 1799.46,409.40 L 1796.43,409.48 L 1790.19,409.56 L 1787.08,409.58 L 1781.02,409.55 L 1778.06,409.52 L 1772.59,409.37 L 1771.29,409.33 L 1768.85,409.22 L 1767.67,409.16 L 1765.54,409.02 L 1764.51,408.95 L 1762.73,408.78 L 1761.88,408.69 L 1760.50,408.49 L 1758.57,408.18 L 1754.35,407.44 L 1752.21,407.07 L 1747.74,406.24 L 1745.50,405.82 L 1741.03,404.95 L 1738.83,404.52 L 1734.63,403.66 L 1732.59,403.24 L 1728.91,402.45 L 1727.16,402.07 L 1724.25,401.40 L 1723.59,401.24 L 1722.45,400.96 L 1721.91,400.82 L 1721.05,400.58 L 1720.66,400.47 L 1720.12,400.29 L 1719.69,400.08 L 1719.63,400.02 L 1719.54,399.46 L 1719.49,399.11 L 1719.43,398.01 L 1719.40,397.40 L 1719.35,395.81 L 1719.34,394.97 L 1719.32,392.97 L 1719.32,391.92 L 1719.33,389.57 L 1719.34,388.36 L 1719.37,385.72 L 1719.59,377.01 L 1720.31,354.76 L 1726.40,355.38 L 1726.82,355.42 L 1727.87,355.55 L 1728.43,355.62 L 1729.72,355.79 L 1731.06,355.96 L 1734.23,356.42 L 1744.50,358.05 L 1748.61,358.74 L 1756.85,359.91 L 1760.97,360.45 L 1769.11,361.31 L 1773.16,361.71 L 1781.08,362.26 L 1785.00,362.49 L 1792.54,362.73 L 1796.26,362.81 L 1803.29,362.73 L 1806.73,362.65 L 1813.12,362.25 L 1816.22,362.01 L 1821.82,361.29 L 1829.19,359.85 L 1833.87,358.65 L 1834.19,349.08 L 1834.27,346.44 L 1834.30,341.38 L 1834.30,340.23 L 1834.26,338.31 L 1834.15,336.33 L 1833.80,333.15 L 1826.15,332.49 L 1823.32,332.25 L 1817.37,331.68 L 1814.37,331.39 L 1808.25,330.75 L 1805.20,330.42 L 1799.16,329.73 L 1796.17,329.39 L 1790.45,328.68 L 1787.65,328.33 L 1782.49,327.65 L 1780.00,327.31 L 1775.63,326.66 L 1774.60,326.50 L 1772.72,326.20 L 1771.82,326.06 L 1770.23,325.78 L 1769.47,325.64 L 1768.19,325.39 L 1766.66,325.04 L 1765.60,324.77 L 1763.01,323.94 L 1761.67,323.48 L 1758.79,322.39 L 1757.35,321.83 L 1754.52,320.61 L 1750.73,318.80 L 1749.28,318.05 L 1746.55,316.42 L 1745.21,315.59 L 1742.69,313.81 L 1741.46,312.91 L 1739.16,310.98 L 1738.04,309.99 L 1735.97,307.91 L 1733.95,305.79 L 1730.56,301.11 L 1728.98,298.69 L 1726.49,293.42 L 1725.35,290.71 L 1723.75,284.86 L 1723.06,281.87 L 1722.35,275.45 L 1722.10,272.16 L 1722.29,265.19 L 1723.59,254.10 L 1724.06,251.37 L 1725.26,246.48 L 1725.90,244.11 L 1727.52,239.80 L 1728.38,237.70 L 1730.48,233.78 L 1734.27,228.17 L 1735.38,226.73 L 1738.00,223.97 L 1739.37,222.61 L 1742.49,220.04 L 1744.10,218.78 L 1747.67,216.41 L 1749.51,215.26 L 1753.50,213.13 L 1755.54,212.09 L 1759.90,210.21 L 1762.12,209.30 L 1766.80,207.69 L 1769.19,206.92 L 1774.16,205.60 L 1781.91,203.97 L 1782.50,203.87 L 1783.96,203.69 L 1784.73,203.60 L 1786.50,203.44 L 1788.34,203.30 L 1792.78,203.09 L 1795.11,203.00 L 1800.26,202.92 L 1802.90,202.89 M 572.78,346.77 L 572.14,347.39 L 570.59,348.85 L 569.78,349.60 L 567.93,351.28 L 566.97,352.14 L 566.01,353.00 L 570.44,348.98 L 572.59,346.93 L 573.28,346.28 M 435.12,267.75 L 434.61,267.91 L 434.32,268.15 L 433.14,269.43 L 432.21,270.68 L 431.69,271.48 L 430.61,273.18 L 430.03,274.17 L 428.86,276.22 L 428.25,277.34 L 425.79,282.07 L 424.63,284.57 L 422.37,289.62 L 421.45,292.00 L 419.45,297.28 L 418.05,301.02 L 417.35,302.94 L 414.55,310.62 L 413.31,314.10 L 412.11,317.49 L 411.59,318.98 L 410.61,321.82 L 410.23,322.97 L 409.54,325.06 L 409.33,325.75 L 409.14,326.38 L 409.08,326.59 L 409.00,326.95 L 409.00,327.02 L 409.45,327.39 L 410.17,327.63 L 410.69,327.75 L 411.83,327.96 L 412.52,328.05 L 413.96,328.21 L 414.75,328.26 L 423.96,328.69 L 428.57,328.73 L 433.14,328.75 L 435.33,328.72 L 439.61,328.63 L 441.57,328.54 L 445.34,328.36 L 446.97,328.23 L 450.03,327.96 L 451.22,327.80 L 452.35,327.63 L 452.81,327.53 L 453.68,327.35 L 454.00,327.25 L 454.58,327.04 L 454.74,326.93 L 455.00,326.71 L 455.00,326.59 L 454.83,325.73 L 454.56,324.66 L 454.35,323.91 L 453.89,322.27 L 453.60,321.27 L 452.98,319.15 L 452.62,317.94 L 451.86,315.43 L 451.45,314.06 L 450.59,311.24 L 450.13,309.75 L 448.22,303.57 L 447.21,300.36 L 445.18,293.91 L 444.19,290.82 L 443.21,287.77 L 442.74,286.32 L 441.82,283.48 L 441.39,282.18 L 440.56,279.64 L 440.18,278.51 L 439.46,276.37 L 439.15,275.47 L 438.57,273.79 L 438.34,273.16 L 437.92,272.05 L 437.79,271.74 L 436.70,269.38 L 436.12,268.37 L 435.86,268.11 L 435.36,267.73 M 749.60,156.91 L 748.78,159.34 L 747.45,162.42 L 748.78,159.34 L 749.60,156.91 L 751.08,152.05 L 751.57,149.65 L 751.08,152.05 M 441.96,431.28 L 437.68,432.81 L 427.24,435.93 L 424.58,436.67 L 419.09,438.06 L 410.50,440.02 L 429.56,435.18 Z" fill="rgba(0,0,0,1)"/>
<path d="M 149.00,477.33 L 147.54,477.83 L 144.33,478.70 L 142.68,479.12 L 139.16,479.83 L 137.37,480.16 L 133.61,480.70 L 131.71,480.95 L 127.77,481.31 L 123.81,481.62 L 122.95,481.63 L 123.42,481.60 L 125.79,481.44 L 127.08,481.33 L 129.71,481.09 L 131.14,480.94 L 138.28,479.91 L 142.98,478.94 L 145.30,478.32 L 149.90,476.97 L 150.02,476.93 M 186.57,454.45 L 184.30,456.58 L 183.24,457.57 L 181.58,459.11 L 179.87,460.65 L 179.04,461.36 L 177.09,462.86 L 176.06,463.61 L 173.76,465.15 L 171.39,466.70 L 170.13,467.42 L 171.63,466.43 L 175.69,463.65 L 177.66,462.14 L 181.55,459.02 L 183.42,457.34 L 185.85,455.11 L 186.90,454.13 M 394.68,249.21 L 392.86,253.90 L 389.15,263.48 L 388.23,265.84 L 386.45,270.44 L 383.92,277.00 L 383.11,279.10 L 381.33,283.67 L 380.43,286.01 L 378.51,290.95 L 376.57,295.95 L 372.50,306.39 L 371.49,308.98 L 369.50,314.08 L 368.52,316.60 L 366.63,321.43 L 365.70,323.81 L 363.97,328.22 L 361.61,334.21 L 360.14,337.95 L 357.40,345.02 L 356.06,348.48 L 353.59,355.01 L 352.39,358.20 L 350.18,364.18 L 349.11,367.11 L 347.16,372.56 L 346.22,375.23 L 344.54,380.16 L 343.73,382.57 L 342.30,386.99 L 341.61,389.14 L 340.43,393.06 L 338.95,398.39 L 336.62,407.28 L 339.06,409.25 L 339.57,409.67 L 340.54,410.24 L 341.03,410.48 L 342.16,410.75 L 342.77,410.85 L 344.34,410.86 L 347.50,410.63 L 348.32,410.55 L 350.72,410.34 L 352.01,410.24 L 355.05,410.01 L 364.77,409.36 L 366.31,409.27 L 369.26,409.02 L 370.68,408.88 L 373.15,408.57 L 374.31,408.41 L 376.04,408.08 L 376.41,408.00 L 376.97,407.83 L 377.50,407.60 L 377.60,407.52 L 377.88,407.11 L 378.04,406.87 L 378.43,406.15 L 378.63,405.75 L 379.09,404.76 L 379.34,404.23 L 379.87,403.00 L 380.41,401.73 L 381.63,398.63 L 383.51,393.50 L 384.13,391.71 L 385.42,388.26 L 386.05,386.57 L 387.25,383.58 L 387.83,382.18 L 388.81,380.00 L 389.03,379.52 L 389.42,378.77 L 389.88,378.00 L 390.23,377.52 L 391.22,376.70 L 391.78,376.32 L 393.32,375.69 L 394.18,375.40 L 396.44,374.96 L 397.67,374.75 L 400.82,374.47 L 401.67,374.41 L 403.57,374.31 L 404.56,374.27 L 406.74,374.21 L 407.86,374.19 L 410.35,374.17 L 411.63,374.16 L 414.44,374.17 L 415.89,374.18 L 419.05,374.23 L 420.67,374.25 L 424.19,374.33 L 426.00,374.37 L 429.92,374.47 L 436.25,374.66 L 438.63,374.73 L 442.92,374.85 L 444.99,374.91 L 448.69,375.02 L 450.48,375.08 L 453.65,375.20 L 455.17,375.26 L 457.87,375.42 L 459.16,375.50 L 461.43,375.72 L 462.52,375.85 L 464.42,376.15 L 465.32,376.32 L 466.90,376.74 L 467.65,376.97 L 468.96,377.53 L 469.59,377.83 L 470.68,378.55 L 471.21,378.94 L 472.14,379.85 L 473.04,380.81 L 474.58,383.41 L 474.96,384.12 L 475.72,385.75 L 476.10,386.60 L 476.91,388.51 L 477.32,389.51 L 478.23,391.74 L 479.76,395.46 L 480.47,397.17 L 481.71,399.85 L 482.30,401.09 L 483.40,402.98 L 483.95,403.84 L 485.04,405.14 L 486.79,406.64 L 490.08,408.86 L 483.73,412.41 L 478.02,415.60 L 466.26,421.34 L 460.33,424.09 L 448.18,428.94 L 442.06,431.24 L 429.56,435.18 L 410.50,440.02 L 408.56,440.44 L 404.03,441.15 L 401.68,441.48 L 396.51,442.00 L 393.87,442.24 L 388.28,442.58 L 385.46,442.73 L 379.68,442.88 L 376.79,442.93 L 371.05,442.89 L 368.20,442.85 L 362.72,442.61 L 360.03,442.47 L 355.04,442.03 L 348.35,441.15 L 344.28,440.46 L 336.29,438.62 L 332.31,437.63 L 324.50,435.19 L 320.62,433.90 L 312.98,430.87 L 301.73,425.64 L 299.86,424.68 L 296.38,422.84 L 294.68,421.92 L 291.46,420.10 L 288.29,418.29 L 282.37,414.48 L 279.41,412.52 L 273.39,408.07 L 271.85,406.90 L 268.62,404.35 L 263.48,400.17 L 256.18,394.12 L 252.61,389.91 L 271.05,371.21 L 273.21,369.02 L 274.89,367.31 L 275.85,366.35 L 277.84,364.33 L 278.94,363.22 L 281.21,360.93 L 282.44,359.68 L 284.97,357.13 L 286.32,355.77 L 289.07,352.98 L 290.53,351.51 L 296.56,345.43 L 299.82,342.13 L 306.50,335.39 L 310.02,331.84 L 317.15,324.65 L 320.82,320.94 L 335.72,305.93 L 343.09,298.50 L 396.39,244.79 M 659.61,27.52 L 662.48,27.54 L 663.86,27.56 L 666.31,27.61 L 667.49,27.64 L 669.60,27.73 L 670.61,27.78 L 672.43,27.91 L 674.18,28.05 L 677.08,28.47 L 681.00,29.36 L 683.35,30.01 L 687.91,31.50 L 690.17,32.28 L 694.55,34.00 L 696.71,34.89 L 700.89,36.83 L 702.96,37.83 L 706.93,40.00 L 708.90,41.10 L 712.65,43.48 L 714.50,44.69 L 718.03,47.27 L 719.77,48.59 L 723.06,51.37 L 727.72,55.75 L 728.77,56.82 L 730.95,59.27 L 732.05,60.54 L 734.26,63.30 L 736.47,66.12 L 740.68,72.27 L 741.70,73.81 L 743.59,76.88 L 744.50,78.40 L 746.14,81.37 L 746.93,82.82 L 748.25,85.57 L 749.80,89.33 L 750.40,91.00 L 751.22,93.84 L 751.40,94.57 L 751.69,96.13 L 751.82,96.94 L 752.03,98.82 L 752.13,99.81 L 752.29,102.18 L 752.36,103.45 L 752.48,106.50 L 752.53,108.14 L 752.63,112.07 L 752.65,113.11 L 752.70,115.40 L 752.77,119.15 L 752.81,121.42 L 752.87,125.42 L 752.89,127.34 L 752.91,130.70 L 752.91,132.31 L 752.88,135.13 L 752.86,136.48 L 752.78,138.86 L 752.74,140.00 L 752.61,142.03 L 752.54,143.01 L 752.35,144.78 L 751.57,149.65 L 751.08,152.05 L 749.60,156.91 L 748.78,159.34 L 746.69,164.18 L 745.57,166.58 L 742.92,171.27 L 738.40,178.00 L 738.23,178.22 L 737.61,178.95 L 737.26,179.36 L 736.29,180.44 L 735.76,181.02 L 734.45,182.43 L 733.76,183.18 L 732.14,184.90 L 731.29,185.80 L 729.37,187.82 L 728.38,188.86 L 726.19,191.14 L 725.06,192.31 L 722.62,194.84 L 721.37,196.14 L 718.70,198.89 L 717.33,200.30 L 714.45,203.26 L 712.98,204.77 L 709.90,207.91 L 706.78,211.10 L 700.06,217.94 L 696.63,221.42 L 689.41,228.72 L 678.20,240.00 L 622.89,295.50 L 623.43,281.00 L 623.47,280.00 L 623.55,277.44 L 623.59,276.07 L 623.69,272.86 L 623.74,271.19 L 623.84,267.47 L 623.89,265.55 L 624.00,261.43 L 624.11,257.24 L 624.32,248.22 L 624.61,234.75 L 625.25,203.00 L 616.37,203.00 L 615.15,203.00 L 611.93,203.06 L 610.23,203.09 L 606.41,203.20 L 604.46,203.25 L 600.49,203.40 L 594.90,203.65 L 582.30,204.29 L 581.65,233.40 L 581.60,235.40 L 581.49,240.05 L 581.43,242.46 L 581.30,247.80 L 581.23,250.54 L 581.08,256.38 L 581.01,259.34 L 580.84,265.50 L 580.68,271.70 L 580.34,284.26 L 580.25,287.35 L 580.08,293.33 L 579.84,301.82 L 578.68,341.14 L 572.59,346.93 L 570.44,348.98 L 565.46,353.50 L 562.90,355.80 L 557.38,360.60 L 554.59,363.01 L 548.91,367.79 L 546.08,370.15 L 540.62,374.60 L 539.28,375.68 L 536.72,377.73 L 535.45,378.72 L 533.07,380.58 L 531.91,381.48 L 529.76,383.11 L 528.72,383.89 L 526.85,385.26 L 525.95,385.91 L 524.41,386.97 L 523.68,387.46 L 522.51,388.19 L 521.97,388.50 L 521.22,388.85 L 520.62,388.90 L 520.60,388.87 L 520.48,388.56 L 520.41,388.37 L 520.20,387.76 L 519.97,387.07 L 519.29,384.94 L 518.92,383.78 L 518.03,380.88 L 516.55,376.00 L 516.29,375.14 L 515.56,372.78 L 515.15,371.51 L 514.16,368.42 L 513.63,366.80 L 512.41,363.11 L 511.78,361.20 L 510.40,357.04 L 509.68,354.91 L 508.16,350.40 L 507.39,348.11 L 505.78,343.38 L 500.84,329.00 L 500.02,326.63 L 498.12,321.15 L 497.14,318.31 L 494.99,312.05 L 493.88,308.85 L 491.54,302.03 L 490.35,298.58 L 487.90,291.42 L 485.43,284.21 L 480.48,269.69 L 479.27,266.13 L 476.92,259.24 L 473.62,249.50 L 458.37,204.50 L 435.34,204.23 L 415.40,204.00 L 437.21,204.00 L 485.89,155.81 L 534.56,107.63 L 530.63,104.24 L 531.98,105.31 L 532.65,105.83 L 533.66,106.55 L 534.50,107.00 L 534.55,107.00 L 535.06,106.61 L 535.38,106.35 L 536.36,105.48 L 536.91,104.99 L 538.31,103.70 L 539.06,103.00 L 540.83,101.34 L 541.76,100.47 L 543.84,98.49 L 544.91,97.46 L 547.24,95.22 L 554.91,87.74 L 557.50,85.20 L 562.36,80.46 L 564.74,78.15 L 569.23,73.84 L 571.43,71.75 L 575.57,67.86 L 577.61,65.96 L 581.44,62.46 L 583.33,60.75 L 586.89,57.61 L 588.64,56.08 L 591.96,53.28 L 593.60,51.91 L 596.72,49.42 L 598.25,48.20 L 601.20,45.99 L 602.66,44.92 L 605.47,42.97 L 606.86,42.02 L 609.58,40.31 L 612.27,38.64 L 617.50,35.91 L 620.11,34.63 L 625.37,32.51 L 633.62,29.78 L 635.32,29.29 L 638.30,28.59 L 639.79,28.29 L 643.02,27.91 L 643.89,27.82 L 645.82,27.71 L 646.83,27.66 L 649.14,27.59 L 650.35,27.56 L 653.14,27.53 L 658.00,27.52 M 435.86,268.11 L 436.12,268.37 L 436.70,269.38 L 437.79,271.74 L 437.92,272.05 L 438.34,273.16 L 438.57,273.79 L 439.15,275.47 L 439.46,276.37 L 440.18,278.51 L 440.56,279.64 L 441.39,282.18 L 441.82,283.48 L 442.74,286.32 L 443.21,287.77 L 444.19,290.82 L 445.18,293.91 L 447.21,300.36 L 448.22,303.57 L 450.13,309.75 L 450.59,311.24 L 451.45,314.06 L 451.86,315.43 L 452.62,317.94 L 452.98,319.15 L 453.60,321.27 L 453.89,322.27 L 454.35,323.91 L 454.56,324.66 L 454.83,325.73 L 455.00,326.59 L 455.00,326.71 L 454.74,326.93 L 454.58,327.04 L 454.00,327.25 L 453.68,327.35 L 452.81,327.53 L 452.35,327.63 L 451.22,327.80 L 450.03,327.96 L 446.97,328.23 L 445.34,328.36 L 441.57,328.54 L 439.61,328.63 L 435.33,328.72 L 433.14,328.75 L 428.57,328.73 L 423.96,328.69 L 414.75,328.26 L 413.96,328.21 L 412.52,328.05 L 411.83,327.96 L 410.69,327.75 L 410.17,327.63 L 409.45,327.39 L 409.00,327.02 L 409.00,326.95 L 409.08,326.59 L 409.14,326.38 L 409.33,325.75 L 409.54,325.06 L 410.23,322.97 L 410.61,321.82 L 411.59,318.98 L 412.11,317.49 L 413.31,314.10 L 414.55,310.62 L 417.35,302.94 L 418.05,301.02 L 419.45,297.28 L 421.45,292.00 L 422.37,289.62 L 424.63,284.57 L 425.79,282.07 L 428.25,277.34 L 428.86,276.22 L 430.03,274.17 L 430.61,273.18 L 431.69,271.48 L 432.21,270.68 L 433.14,269.43 L 434.32,268.15 L 434.61,267.91 L 435.12,267.75 L 435.36,267.73 M 483.83,71.22 L 491.82,75.61 L 495.79,77.89 L 503.63,83.00 L 507.54,85.65 L 515.33,91.52 L 522.45,97.40 L 515.35,91.59 L 507.39,85.61 L 503.43,82.93 L 495.53,77.77 L 491.55,75.48 L 483.82,71.22 M 430.59,53.77 L 425.50,52.92 L 430.59,53.77 Z" fill="rgba(57,164,232,1)"/>
<path d="M 398.45,50.24 L 405.19,50.58 L 408.57,50.80 L 415.33,51.49 L 425.50,52.92 L 430.62,53.78 L 440.29,55.81 L 445.04,56.88 L 454.08,59.40 L 458.54,60.73 L 467.09,63.81 L 471.31,65.43 L 479.51,69.14 L 483.57,71.08 L 491.55,75.48 L 495.53,77.77 L 503.43,82.93 L 507.39,85.61 L 515.35,91.59 L 527.53,101.56 L 534.56,107.63 L 485.89,155.81 L 437.21,204.00 L 412.30,204.00 L 396.68,244.50 L 343.09,298.50 L 335.72,305.93 L 320.82,320.94 L 317.15,324.65 L 310.02,331.84 L 306.50,335.39 L 299.82,342.13 L 296.56,345.43 L 290.53,351.51 L 289.07,352.98 L 286.32,355.77 L 284.97,357.13 L 282.44,359.68 L 281.21,360.93 L 278.94,363.22 L 277.84,364.33 L 275.85,366.35 L 274.89,367.31 L 273.21,369.02 L 271.05,371.21 L 252.61,389.91 L 256.50,394.50 L 254.43,392.76 L 254.73,392.91 L 254.47,392.50 L 254.12,392.07 L 253.28,391.07 L 252.68,390.38 L 251.36,388.89 L 250.55,388.00 L 245.08,381.84 L 241.68,377.82 L 240.09,375.84 L 233.95,367.94 L 231.15,363.88 L 225.69,355.62 L 223.06,351.12 L 220.43,346.55 L 219.11,344.14 L 216.47,339.21 L 215.13,336.59 L 209.91,325.57 L 206.80,318.10 L 205.43,314.32 L 202.82,306.72 L 201.70,302.87 L 199.58,295.13 L 198.71,291.22 L 197.09,283.36 L 196.47,279.39 L 195.35,271.43 L 194.98,267.40 L 194.37,259.34 L 194.25,255.27 L 194.14,247.11 L 194.28,243.00 L 194.73,234.33 L 195.19,228.82 L 195.53,226.12 L 196.28,220.74 L 196.77,218.01 L 197.86,212.50 L 198.55,209.62 L 200.03,203.75 L 200.94,200.60 L 202.88,194.12 L 204.04,190.56 L 205.23,186.95 L 205.88,185.05 L 207.21,181.19 L 207.93,179.15 L 209.41,175.01 L 210.20,172.82 L 211.83,168.36 L 212.70,166.00 L 215.38,158.93 L 217.11,154.52 L 217.89,152.61 L 218.64,150.77 L 218.98,149.95 L 219.64,148.39 L 219.93,147.74 L 220.47,146.52 L 220.69,146.06 L 221.10,145.24 L 221.24,145.00 L 221.84,143.95 L 222.14,143.41 L 222.22,143.23 L 222.35,142.91 L 222.35,142.84 L 222.30,142.76 L 222.20,142.81 L 221.96,142.97 L 221.75,143.15 L 221.29,143.56 L 220.97,143.87 L 220.27,144.54 L 219.83,144.98 L 218.88,145.92 L 218.31,146.50 L 202.04,162.84 L 191.70,173.23 L 186.77,178.17 L 177.09,187.90 L 176.75,188.24 L 177.64,187.34 L 182.60,182.30 L 185.04,179.81 L 189.72,175.05 L 192.02,172.71 L 196.39,168.25 L 198.53,166.06 L 202.55,161.95 L 204.51,159.94 L 208.16,156.20 L 209.93,154.38 L 213.16,151.04 L 214.72,149.43 L 217.50,146.54 L 218.84,145.15 L 221.15,142.73 L 222.25,141.58 L 224.05,139.67 L 224.89,138.78 L 226.15,137.41 L 227.41,135.99 L 228.97,134.11 L 232.49,130.09 L 234.30,128.05 L 238.19,123.82 L 242.15,119.57 L 250.54,111.08 L 252.62,109.01 L 256.71,105.07 L 258.73,103.15 L 262.57,99.63 L 264.44,97.93 L 267.87,94.97 L 272.38,91.34 L 275.21,89.22 L 280.96,85.21 L 283.85,83.24 L 289.72,79.56 L 292.67,77.76 L 298.65,74.39 L 301.66,72.76 L 307.75,69.72 L 310.81,68.25 L 317.00,65.54 L 320.10,64.23 L 326.39,61.86 L 329.54,60.71 L 335.91,58.67 L 339.10,57.70 L 345.54,55.99 L 348.77,55.18 L 355.28,53.81 L 358.55,53.17 L 365.12,52.14 L 368.42,51.67 L 375.04,50.98 L 378.36,50.68 L 385.04,50.33 L 388.38,50.20 L 395.09,50.20 M 29.93,344.14 L 30.82,342.38 L 30.82,342.38 M 37.75,331.44 L 37.13,332.28 L 37.46,331.82 L 37.84,331.32 M 82.25,283.59 L 77.89,288.05 L 75.86,290.13 L 71.90,294.20 L 70.07,296.09 L 66.50,299.78 L 64.85,301.50 L 61.63,304.85 L 60.16,306.40 L 57.28,309.42 L 55.97,310.82 L 53.41,313.54 L 52.24,314.80 L 49.98,317.25 L 48.95,318.38 L 46.95,320.57 L 46.05,321.59 L 44.31,323.55 L 43.52,324.46 L 42.00,326.22 L 41.31,327.04 L 38.88,329.98 L 39.23,329.53 L 40.17,328.35 L 42.35,325.73 L 43.50,324.38 L 46.16,321.34 L 47.57,319.76 L 50.81,316.21 L 52.51,314.37 L 56.41,310.22 L 58.45,308.06 L 63.10,303.22 L 64.31,301.96 L 66.88,299.30 L 68.20,297.95 L 70.99,295.08 L 72.41,293.62 L 75.42,290.54 L 76.96,288.97 L 80.21,285.66 L 81.86,283.98 L 83.01,282.81 Z" fill="rgba(246,61,91,1)"/>
<path d="M 103.68,480.94 L 101.83,480.73 L 98.15,480.10 L 96.31,479.75 L 92.67,478.85 L 89.04,477.89 L 81.95,475.21 L 78.45,473.75 L 71.66,470.13 L 68.32,468.20 L 61.93,463.70 L 58.79,461.34 L 52.89,456.02 L 50.00,453.26 L 44.66,447.20 L 42.07,444.07 L 37.39,437.32 L 31.20,426.50 L 29.58,423.24 L 26.92,416.48 L 25.69,413.06 L 23.81,406.06 L 22.97,402.54 L 21.87,395.41 L 21.42,391.84 L 21.10,384.70 L 21.04,381.13 L 21.51,374.07 L 21.85,370.56 L 23.10,363.69 L 23.83,360.29 L 25.87,353.73 L 29.83,344.34 L 30.91,342.19 L 33.07,338.27 L 33.67,337.25 L 35.09,335.09 L 35.86,333.97 L 37.75,331.44 L 38.77,330.12 L 41.31,327.04 L 42.00,326.22 L 43.52,324.46 L 44.31,323.55 L 46.05,321.59 L 46.95,320.57 L 48.95,318.38 L 49.98,317.25 L 52.24,314.80 L 53.41,313.54 L 55.97,310.82 L 57.28,309.42 L 60.16,306.40 L 61.63,304.85 L 64.85,301.50 L 66.50,299.78 L 70.07,296.09 L 71.90,294.20 L 75.86,290.13 L 77.89,288.05 L 82.25,283.59 L 84.49,281.31 L 89.28,276.43 L 91.73,273.93 L 96.98,268.61 L 99.66,265.89 L 105.38,260.10 L 108.30,257.14 L 114.52,250.86 L 117.69,247.66 L 124.43,240.86 L 127.87,237.40 L 135.15,230.07 L 138.86,226.33 L 146.71,218.43 L 150.71,214.41 L 159.14,205.93 L 163.44,201.61 L 172.49,192.52 L 177.09,187.90 L 186.77,178.17 L 191.70,173.23 L 202.04,162.84 L 218.31,146.50 L 218.88,145.92 L 219.83,144.98 L 220.27,144.54 L 220.97,143.87 L 221.29,143.56 L 221.75,143.15 L 221.96,142.97 L 222.20,142.81 L 222.30,142.76 L 222.35,142.84 L 222.35,142.91 L 222.22,143.23 L 222.14,143.41 L 221.84,143.95 L 221.24,145.00 L 221.10,145.24 L 220.69,146.06 L 220.47,146.52 L 219.93,147.74 L 219.64,148.39 L 218.98,149.95 L 218.64,150.77 L 217.89,152.61 L 217.11,154.52 L 215.38,158.93 L 212.70,166.00 L 211.83,168.36 L 210.20,172.82 L 209.41,175.01 L 207.93,179.15 L 207.21,181.19 L 205.88,185.05 L 205.23,186.95 L 204.04,190.56 L 202.88,194.12 L 200.94,200.60 L 200.03,203.75 L 198.55,209.62 L 197.86,212.50 L 196.77,218.01 L 196.28,220.74 L 195.53,226.12 L 195.19,228.82 L 194.73,234.33 L 194.28,243.00 L 194.14,247.11 L 194.25,255.27 L 194.37,259.34 L 194.98,267.40 L 195.35,271.43 L 196.47,279.39 L 197.09,283.36 L 198.71,291.22 L 199.58,295.13 L 201.70,302.87 L 202.82,306.72 L 205.43,314.32 L 206.80,318.10 L 209.91,325.57 L 215.13,336.59 L 216.47,339.21 L 219.11,344.14 L 220.43,346.55 L 223.06,351.12 L 225.69,355.62 L 231.15,363.88 L 233.95,367.94 L 240.09,375.84 L 241.68,377.82 L 245.08,381.84 L 250.55,388.00 L 251.36,388.89 L 252.68,390.38 L 253.28,391.07 L 254.12,392.07 L 254.47,392.50 L 254.73,392.91 L 254.39,392.74 L 254.14,392.52 L 253.64,392.24 L 253.37,392.14 L 252.67,392.25 L 252.27,392.38 L 251.13,393.08 L 250.81,393.30 L 250.04,393.90 L 249.63,394.22 L 248.67,395.03 L 248.16,395.46 L 246.97,396.51 L 246.35,397.07 L 244.92,398.39 L 244.16,399.09 L 242.45,400.71 L 241.55,401.55 L 239.53,403.49 L 238.47,404.50 L 236.11,406.78 L 234.88,407.97 L 232.14,410.62 L 230.73,411.99 L 227.59,415.04 L 222.41,420.08 L 218.30,424.08 L 210.08,432.03 L 208.06,433.97 L 204.16,437.72 L 202.24,439.57 L 198.62,443.03 L 196.85,444.72 L 193.61,447.80 L 192.05,449.29 L 189.31,451.88 L 188.00,453.11 L 185.85,455.11 L 183.42,457.34 L 181.55,459.02 L 177.66,462.14 L 175.69,463.65 L 171.63,466.43 L 169.58,467.77 L 165.36,470.20 L 163.23,471.37 L 158.86,473.45 L 156.66,474.44 L 152.16,476.16 L 149.90,476.97 L 145.30,478.32 L 142.98,478.94 L 138.28,479.91 L 131.14,480.94 L 129.71,481.09 L 127.08,481.33 L 125.79,481.44 L 123.42,481.60 L 121.10,481.75 L 116.89,481.82 L 114.80,481.82 L 110.61,481.60 L 108.46,481.46 Z" fill="rgba(253,154,3,1)"/>
</g>
</svg>