<svg xmlns="http://www.w3.org/2000/svg" width="1914" height="548" viewBox="0 0 1914 548">
<g>
<path d="M 1096.42,303.52 L 1098.06,303.52 L 1100.76,303.56 L 1102.02,303.58 L 1104.05,303.66 L 1104.99,303.70 L 1106.50,303.84 L 1107.20,303.91 L 1108.34,304.12 L 1108.87,304.24 L 1109.77,304.54 L 1112.26,305.84 L 1112.58,306.04 L 1113.40,306.68 L 1113.84,307.05 L 1114.91,308.04 L 1115.49,308.59 L 1116.85,309.96 L 1117.56,310.69 L 1119.21,312.46 L 1120.08,313.39 L 1122.05,315.57 L 1123.07,316.72 L 1125.37,319.33 L 1126.56,320.70 L 1129.22,323.78 L 1130.59,325.38 L 1133.60,328.93 L 1135.16,330.77 L 1138.57,334.83 L 1140.32,336.93 L 1144.13,341.51 L 1146.09,343.86 L 1150.32,348.99 L 1152.49,351.62 L 1157.16,357.31 L 1159.55,360.23 L 1164.68,366.50 L 1167.31,369.72 L 1172.92,376.60 L 1175.78,380.12 L 1181.88,387.63 L 1191.61,399.63 L 1191.92,400.01 L 1192.51,400.60 L 1193.11,401.00 L 1193.12,401.00 L 1193.15,400.74 L 1193.16,400.58 L 1193.19,400.01 L 1193.20,399.68 L 1193.23,398.81 L 1193.24,398.33 L 1193.26,397.17 L 1193.28,395.94 L 1193.33,392.68 L 1193.35,390.94 L 1193.39,386.75 L 1193.40,384.55 L 1193.43,379.56 L 1193.45,376.98 L 1193.47,371.33 L 1193.48,368.43 L 1193.49,362.24 L 1193.50,352.50 L 1193.50,304.01 L 1213.75,304.00 L 1234.00,304.00 L 1234.00,459.23 L 1216.74,458.85 L 1214.66,458.81 L 1211.21,458.72 L 1209.58,458.68 L 1206.93,458.58 L 1205.69,458.53 L 1203.68,458.40 L 1202.74,458.33 L 1201.23,458.15 L 1200.52,458.05 L 1199.35,457.79 L 1198.79,457.65 L 1197.81,457.29 L 1194.84,455.75 L 1194.21,455.38 L 1192.82,454.38 L 1192.10,453.82 L 1190.44,452.34 L 1189.57,451.53 L 1187.55,449.46 L 1186.48,448.34 L 1183.96,445.56 L 1183.30,444.82 L 1181.86,443.17 L 1181.13,442.32 L 1179.53,440.45 L 1178.71,439.49 L 1176.94,437.38 L 1176.04,436.30 L 1174.08,433.94 L 1173.08,432.73 L 1170.93,430.11 L 1169.83,428.76 L 1167.46,425.85 L 1166.25,424.36 L 1163.66,421.16 L 1159.49,416.00 L 1157.83,413.93 L 1154.60,409.94 L 1153.01,407.97 L 1149.95,404.20 L 1148.44,402.34 L 1145.54,398.78 L 1144.11,397.04 L 1141.39,393.71 L 1140.05,392.08 L 1137.50,389.00 L 1136.25,387.48 L 1133.88,384.64 L 1132.72,383.25 L 1130.55,380.66 L 1129.48,379.39 L 1127.50,377.05 L 1126.54,375.92 L 1124.76,373.85 L 1123.89,372.84 L 1122.32,371.04 L 1121.56,370.18 L 1120.20,368.65 L 1119.54,367.93 L 1118.40,366.69 L 1117.86,366.10 L 1116.94,365.16 L 1116.51,364.72 L 1115.82,364.07 L 1115.51,363.79 L 1115.06,363.44 L 1114.65,363.28 L 1114.56,363.31 L 1114.39,363.64 L 1114.30,363.85 L 1114.14,364.53 L 1114.05,364.92 L 1113.90,365.95 L 1113.82,366.52 L 1113.67,367.89 L 1113.60,368.63 L 1113.46,370.35 L 1113.39,371.25 L 1113.26,373.30 L 1113.20,374.37 L 1113.08,376.75 L 1113.02,377.98 L 1112.91,380.68 L 1112.85,382.08 L 1112.75,385.10 L 1112.70,386.65 L 1112.61,389.98 L 1112.57,391.69 L 1112.49,395.33 L 1112.45,397.19 L 1112.38,401.14 L 1112.35,403.15 L 1112.29,407.39 L 1112.27,409.55 L 1112.22,414.08 L 1112.20,416.38 L 1112.16,421.20 L 1112.12,428.75 L 1112.00,459.00 L 1072.22,459.00 L 1071.46,439.25 L 1071.44,438.59 L 1071.39,437.01 L 1071.37,436.18 L 1071.33,434.28 L 1071.31,433.28 L 1071.28,431.07 L 1071.27,429.93 L 1071.24,427.44 L 1071.21,424.89 L 1071.18,419.05 L 1071.17,416.03 L 1071.16,409.40 L 1071.15,406.00 L 1071.16,398.78 L 1071.17,395.12 L 1071.20,387.50 L 1071.23,379.83 L 1071.34,364.16 L 1071.37,360.28 L 1071.45,352.69 L 1071.48,348.94 L 1071.57,341.75 L 1071.61,338.23 L 1071.71,331.65 L 1071.76,328.45 L 1071.86,322.68 L 1071.89,321.29 L 1071.94,318.71 L 1071.97,317.45 L 1072.03,315.14 L 1072.05,314.02 L 1072.11,312.00 L 1072.14,311.03 L 1072.20,309.33 L 1072.23,308.53 L 1072.29,307.17 L 1072.32,306.54 L 1072.38,305.55 L 1072.41,305.11 L 1072.47,304.52 L 1072.56,304.11 L 1072.60,304.07 L 1073.04,303.99 L 1073.31,303.95 L 1074.18,303.88 L 1074.67,303.84 L 1075.92,303.78 L 1076.58,303.75 L 1078.17,303.69 L 1079.82,303.64 L 1083.91,303.56 L 1090.82,303.51 L 1092.92,303.51 M 907.51,314.64 L 909.38,316.93 L 913.08,321.38 L 914.92,323.58 L 918.48,327.75 L 920.24,329.80 L 923.58,333.58 L 925.20,335.42 L 928.20,338.70 L 929.64,340.27 L 932.20,342.95 L 933.41,344.20 L 935.43,346.15 L 935.89,346.59 L 936.70,347.31 L 937.08,347.65 L 937.72,348.15 L 938.02,348.37 L 938.48,348.64 L 938.94,348.77 L 939.05,348.75 L 939.62,348.26 L 939.96,347.94 L 940.96,346.90 L 941.51,346.32 L 942.88,344.80 L 943.61,343.98 L 945.31,342.03 L 946.20,341.01 L 948.16,338.70 L 949.18,337.50 L 951.36,334.90 L 958.46,326.24 L 976.42,304.00 L 999.22,304.00 L 1002.18,304.02 L 1003.63,304.03 L 1006.32,304.07 L 1007.62,304.09 L 1009.99,304.15 L 1011.13,304.19 L 1013.15,304.27 L 1014.11,304.31 L 1015.73,304.41 L 1016.49,304.46 L 1017.69,304.57 L 1018.23,304.63 L 1018.96,304.76 L 1019.48,304.97 L 1019.58,305.13 L 1019.64,305.62 L 1019.64,305.89 L 1019.49,306.58 L 1019.39,306.95 L 1019.04,307.85 L 1018.84,308.32 L 1018.28,309.42 L 1017.98,310.00 L 1017.22,311.30 L 1016.82,311.97 L 1015.86,313.48 L 1015.35,314.26 L 1014.19,315.96 L 1013.58,316.84 L 1012.22,318.75 L 1011.51,319.73 L 1009.94,321.84 L 1009.13,322.93 L 1007.36,325.24 L 1006.44,326.42 L 1004.47,328.94 L 1003.46,330.23 L 1001.28,332.95 L 1000.17,334.33 L 997.79,337.26 L 996.57,338.74 L 993.99,341.87 L 992.67,343.46 L 989.89,346.78 L 985.48,352.00 L 983.32,354.54 L 979.05,359.62 L 976.95,362.11 L 973.14,366.69 L 972.23,367.78 L 970.58,369.77 L 969.79,370.73 L 968.40,372.42 L 967.75,373.22 L 966.68,374.54 L 965.50,376.03 L 961.22,381.56 L 974.18,396.53 L 977.60,400.48 L 984.08,408.10 L 987.25,411.85 L 993.15,418.95 L 996.02,422.42 L 1001.21,428.86 L 1002.46,430.41 L 1004.81,433.38 L 1005.96,434.83 L 1008.09,437.58 L 1009.13,438.92 L 1011.03,441.43 L 1011.95,442.65 L 1013.61,444.90 L 1014.41,445.99 L 1015.80,447.96 L 1016.47,448.91 L 1017.59,450.59 L 1018.12,451.39 L 1018.95,452.75 L 1019.33,453.39 L 1019.86,454.41 L 1020.09,454.88 L 1020.30,455.56 L 1020.25,456.15 L 1020.10,456.30 L 1019.14,456.61 L 1018.56,456.76 L 1016.86,457.08 L 1015.93,457.24 L 1013.65,457.56 L 1012.45,457.71 L 1009.76,458.00 L 1007.00,458.29 L 1000.95,458.71 L 999.45,458.80 L 996.53,458.91 L 992.42,458.99 L 991.36,458.99 L 989.58,458.98 L 988.73,458.97 L 987.31,458.92 L 985.97,458.86 L 984.01,458.54 L 983.09,458.33 L 981.48,457.61 L 978.69,455.92 L 978.05,455.49 L 976.55,454.32 L 975.77,453.68 L 974.01,452.08 L 973.09,451.22 L 971.05,449.19 L 970.00,448.13 L 967.68,445.67 L 966.49,444.38 L 963.90,441.49 L 962.56,439.98 L 959.69,436.65 L 958.22,434.93 L 955.06,431.16 L 950.00,425.00 L 948.71,423.42 L 946.30,420.46 L 945.14,419.04 L 943.15,416.60 L 942.69,416.04 L 941.89,415.05 L 941.51,414.59 L 940.88,413.83 L 940.60,413.48 L 940.18,412.98 L 939.83,412.55 L 939.68,412.38 L 939.21,412.35 L 938.94,412.38 L 938.17,412.81 L 937.74,413.09 L 936.60,414.04 L 935.97,414.59 L 934.38,416.15 L 933.53,417.01 L 931.42,419.25 L 930.30,420.45 L 927.61,423.43 L 926.90,424.23 L 925.35,425.97 L 924.56,426.86 L 922.84,428.81 L 921.96,429.82 L 920.07,431.99 L 917.01,435.50 L 914.98,437.84 L 911.09,442.28 L 910.15,443.35 L 908.36,445.37 L 907.49,446.36 L 905.88,448.16 L 905.10,449.04 L 903.71,450.58 L 903.05,451.31 L 901.94,452.53 L 901.42,453.09 L 900.62,453.94 L 899.83,454.74 L 899.36,455.17 L 897.96,455.96 L 897.19,456.33 L 895.28,457.00 L 894.27,457.31 L 891.96,457.84 L 890.76,458.08 L 888.14,458.46 L 885.46,458.79 L 879.63,458.96 L 876.70,458.96 L 871.00,458.36 L 870.56,458.30 L 869.41,458.11 L 868.80,458.01 L 867.41,457.76 L 865.98,457.50 L 862.82,456.89 L 861.27,456.58 L 858.51,456.01 L 857.89,455.87 L 856.86,455.64 L 855.75,455.36 L 855.27,455.22 L 854.51,454.77 L 854.00,454.03 L 854.00,453.97 L 854.43,453.34 L 854.71,452.95 L 855.67,451.70 L 856.20,451.01 L 857.62,449.22 L 858.38,448.26 L 860.21,445.99 L 861.17,444.81 L 863.34,442.13 L 864.47,440.76 L 866.93,437.75 L 868.19,436.22 L 870.89,432.95 L 875.14,427.85 L 876.63,426.05 L 879.44,422.68 L 880.81,421.03 L 883.38,417.92 L 884.64,416.40 L 886.99,413.56 L 888.14,412.16 L 890.27,409.56 L 891.31,408.29 L 893.24,405.92 L 894.18,404.76 L 895.92,402.61 L 896.76,401.56 L 898.31,399.61 L 899.06,398.67 L 900.43,396.92 L 901.77,395.21 L 903.94,392.33 L 904.96,390.98 L 906.56,388.71 L 907.29,387.65 L 908.40,385.91 L 909.58,383.76 L 909.96,382.97 L 910.43,381.80 L 910.62,381.26 L 910.72,380.37 L 910.72,379.93 L 910.44,378.99 L 909.60,377.19 L 909.48,376.97 L 909.11,376.36 L 908.91,376.03 L 908.36,375.22 L 907.77,374.36 L 906.10,372.07 L 905.18,370.84 L 902.91,367.87 L 901.70,366.31 L 898.89,362.74 L 897.42,360.90 L 894.15,356.82 L 892.46,354.72 L 888.78,350.22 L 886.90,347.92 L 882.89,343.07 L 876.57,335.50 L 874.85,333.45 L 871.68,329.64 L 870.15,327.79 L 867.38,324.39 L 866.05,322.75 L 863.69,319.79 L 862.56,318.37 L 860.62,315.86 L 859.70,314.67 L 858.20,312.63 L 857.50,311.67 L 856.44,310.12 L 855.97,309.40 L 855.37,308.35 L 855.01,307.36 L 855.01,307.08 L 855.20,306.61 L 855.34,306.39 L 855.88,306.01 L 856.20,305.83 L 857.20,305.53 L 857.76,305.38 L 859.30,305.15 L 860.16,305.03 L 862.35,304.84 L 863.54,304.76 L 866.48,304.61 L 868.05,304.53 L 871.84,304.41 L 878.59,304.23 L 898.67,303.78 M 553.58,323.23 L 556.18,328.83 L 557.64,331.92 L 558.25,333.17 L 559.37,335.48 L 559.83,336.37 L 560.67,337.98 L 560.99,338.54 L 561.59,339.52 L 561.81,339.80 L 562.21,340.21 L 562.35,340.24 L 562.59,340.18 L 562.66,339.99 L 562.79,339.52 L 562.82,339.16 L 563.30,337.46 L 563.68,336.72 L 563.99,336.27 L 564.67,335.28 L 565.15,334.66 L 565.70,333.98 L 564.79,335.17 L 564.36,335.74 L 563.79,336.65 L 563.54,337.08 L 563.26,337.75 L 563.00,339.39 L 563.00,339.91 L 563.15,341.12 L 563.27,341.77 L 563.71,343.40 L 563.98,344.29 L 564.81,346.56 L 565.04,347.18 L 565.60,348.58 L 565.90,349.30 L 566.59,350.93 L 566.95,351.78 L 567.77,353.67 L 568.20,354.65 L 569.18,356.83 L 569.69,357.96 L 570.83,360.46 L 571.42,361.75 L 572.73,364.60 L 573.41,366.06 L 574.91,369.28 L 575.68,370.93 L 577.38,374.54 L 578.25,376.40 L 580.16,380.44 L 583.26,387.00 L 585.61,391.96 L 589.93,401.20 L 590.98,403.46 L 592.98,407.78 L 593.97,409.92 L 595.83,414.00 L 596.75,416.01 L 598.48,419.85 L 599.33,421.73 L 600.93,425.31 L 601.71,427.07 L 603.16,430.38 L 603.87,432.00 L 605.18,435.04 L 605.81,436.53 L 606.97,439.29 L 607.53,440.64 L 608.54,443.12 L 609.03,444.32 L 609.89,446.50 L 610.30,447.56 L 611.00,449.44 L 611.33,450.34 L 611.87,451.92 L 612.12,452.67 L 612.49,453.93 L 612.66,454.52 L 612.87,455.47 L 613.00,456.51 L 613.00,456.71 L 612.28,457.08 L 611.81,457.26 L 610.29,457.59 L 609.44,457.75 L 607.30,458.02 L 606.17,458.15 L 603.60,458.36 L 600.95,458.55 L 595.11,458.67 L 593.67,458.68 L 590.87,458.60 L 587.01,458.36 L 585.81,458.25 L 583.72,457.97 L 582.73,457.81 L 580.97,457.38 L 580.13,457.14 L 578.63,456.51 L 577.91,456.17 L 576.59,455.29 L 575.95,454.81 L 574.73,453.61 L 574.12,452.96 L 572.92,451.39 L 572.32,450.56 L 571.06,448.55 L 569.02,445.00 L 568.13,443.37 L 566.68,440.73 L 565.97,439.50 L 564.56,437.57 L 563.82,436.68 L 562.03,435.33 L 561.54,435.03 L 560.42,434.51 L 559.83,434.27 L 558.46,433.86 L 557.74,433.67 L 556.08,433.35 L 555.21,433.21 L 553.20,432.98 L 552.15,432.87 L 549.74,432.70 L 548.48,432.63 L 545.61,432.51 L 544.12,432.46 L 540.74,432.39 L 538.99,432.35 L 535.05,432.30 L 533.01,432.28 L 528.46,432.23 L 520.89,432.16 L 485.28,431.83 L 483.25,434.40 L 482.98,434.76 L 482.14,436.19 L 481.68,437.00 L 480.59,439.14 L 480.03,440.27 L 478.82,442.85 L 477.04,446.91 L 476.46,448.28 L 475.30,450.81 L 474.73,452.02 L 473.68,454.08 L 473.17,455.03 L 472.34,456.38 L 472.15,456.67 L 471.84,457.06 L 471.48,457.37 L 471.39,457.40 L 470.85,457.49 L 470.53,457.53 L 469.57,457.63 L 469.04,457.68 L 467.72,457.78 L 467.01,457.83 L 465.37,457.94 L 463.66,458.06 L 459.50,458.28 L 452.58,458.60 L 450.55,458.68 L 447.15,458.80 L 445.56,458.86 L 442.96,458.93 L 441.75,458.96 L 439.83,458.98 L 438.95,458.97 L 437.61,458.92 L 437.00,458.88 L 436.12,458.76 L 435.72,458.68 L 435.19,458.47 L 434.37,457.51 L 434.28,457.30 L 434.21,456.73 L 434.19,456.42 L 434.26,455.61 L 434.31,455.17 L 434.54,454.06 L 434.67,453.46 L 435.08,451.96 L 435.31,451.16 L 435.91,449.23 L 436.24,448.20 L 437.06,445.74 L 437.50,444.45 L 438.57,441.41 L 440.45,436.13 L 440.81,435.12 L 441.43,433.22 L 441.72,432.31 L 442.15,430.76 L 442.34,430.04 L 442.53,428.99 L 442.52,428.46 L 442.53,428.46 L 442.63,428.64 L 442.75,429.05 L 442.73,429.31 L 442.65,429.89 L 442.56,430.25 L 442.30,431.34 L 442.25,431.69 L 442.30,431.67 L 442.43,431.51 L 442.58,431.23 L 442.92,430.54 L 443.17,430.00 L 443.57,429.15 L 444.01,428.22 L 444.31,427.58 L 444.97,426.17 L 445.38,425.29 L 446.26,423.41 L 446.77,422.30 L 447.87,419.96 L 448.49,418.62 L 449.79,415.83 L 450.52,414.27 L 452.03,411.04 L 452.86,409.26 L 454.57,405.59 L 455.50,403.60 L 457.40,399.50 L 458.43,397.30 L 460.53,392.79 L 461.66,390.38 L 463.95,385.46 L 465.16,382.85 L 467.64,377.53 L 468.95,374.72 L 471.61,369.01 L 473.01,366.01 L 475.85,359.91 L 477.33,356.72 L 480.34,350.26 L 481.91,346.88 L 485.10,340.05 L 486.75,336.50 L 501.65,304.50 L 523.15,304.23 L 544.66,303.96 M 699.85,303.68 L 701.45,303.69 L 702.20,303.69 L 703.40,303.71 L 703.95,303.72 L 704.70,303.75 L 705.25,303.81 L 705.28,303.82 L 705.33,304.15 L 705.35,304.37 L 705.40,305.10 L 705.43,305.52 L 705.47,306.63 L 705.50,307.23 L 705.54,308.70 L 705.56,309.47 L 705.61,311.28 L 705.63,312.22 L 705.67,314.34 L 705.69,315.44 L 705.73,317.85 L 705.74,319.09 L 705.78,321.78 L 705.81,324.53 L 705.87,330.77 L 705.90,334.00 L 705.94,341.07 L 705.96,344.69 L 705.98,352.41 L 706.00,364.56 L 706.00,425.00 L 754.74,425.00 L 766.32,425.05 L 769.15,425.07 L 774.58,425.11 L 777.25,425.14 L 782.23,425.19 L 784.66,425.22 L 789.05,425.29 L 791.17,425.32 L 794.83,425.40 L 796.55,425.44 L 799.33,425.52 L 799.96,425.54 L 801.04,425.59 L 802.34,425.65 L 813.00,426.30 L 813.00,457.69 L 799.34,458.34 L 798.87,458.37 L 797.64,458.41 L 796.98,458.43 L 795.40,458.47 L 794.56,458.49 L 792.65,458.53 L 791.65,458.55 L 789.43,458.58 L 788.28,458.60 L 785.78,458.63 L 784.50,458.64 L 781.74,458.67 L 778.93,458.70 L 772.65,458.75 L 769.42,458.77 L 762.47,458.80 L 758.92,458.82 L 751.49,458.84 L 743.99,458.86 L 728.43,458.87 L 724.57,458.87 L 716.96,458.86 L 713.20,458.85 L 705.95,458.83 L 702.39,458.82 L 695.70,458.79 L 692.44,458.77 L 686.52,458.72 L 683.68,458.70 L 678.73,458.65 L 677.56,458.63 L 675.45,458.60 L 674.43,458.58 L 672.63,458.55 L 671.77,458.53 L 670.31,458.50 L 669.63,458.48 L 668.53,458.44 L 668.03,458.42 L 667.33,458.38 L 667.03,458.36 L 666.75,458.31 L 666.54,458.26 L 666.20,457.83 L 666.12,457.68 L 665.98,457.22 L 665.91,456.95 L 665.78,456.22 L 665.72,455.82 L 665.61,454.76 L 665.56,454.18 L 665.47,452.74 L 665.43,451.96 L 665.35,450.05 L 665.32,449.04 L 665.26,446.62 L 665.23,445.34 L 665.18,442.35 L 665.16,440.77 L 665.12,437.14 L 665.10,435.23 L 665.07,430.89 L 665.06,428.63 L 665.04,423.53 L 665.03,420.88 L 665.02,414.95 L 665.01,411.87 L 665.01,405.06 L 665.00,401.53 L 665.00,393.76 L 665.00,380.97 L 665.00,304.08 L 684.75,303.79 L 687.47,303.75 L 692.48,303.70 L 693.68,303.69 L 695.90,303.68 L 696.98,303.68 L 698.92,303.68 M 1846.55,303.04 L 1849.50,303.09 L 1855.59,303.35 L 1865.00,304.00 L 1866.72,304.14 L 1870.60,304.55 L 1872.59,304.76 L 1876.80,305.27 L 1881.06,305.80 L 1889.49,307.02 L 1891.50,307.32 L 1895.19,307.92 L 1896.96,308.22 L 1899.95,308.77 L 1901.34,309.04 L 1903.39,309.51 L 1903.83,309.62 L 1904.49,309.81 L 1905.11,310.07 L 1905.38,310.24 L 1905.79,311.21 L 1905.88,311.53 L 1906.03,312.37 L 1906.10,312.83 L 1906.21,314.02 L 1906.27,314.65 L 1906.35,316.22 L 1906.39,317.05 L 1906.44,319.05 L 1906.46,320.10 L 1906.49,322.58 L 1906.50,326.88 L 1906.50,329.07 L 1906.44,333.13 L 1906.41,335.07 L 1906.29,338.36 L 1906.26,339.11 L 1906.18,340.42 L 1906.15,341.03 L 1906.06,342.01 L 1906.02,342.46 L 1905.93,343.08 L 1905.78,343.55 L 1905.73,343.60 L 1905.30,343.64 L 1905.03,343.65 L 1904.18,343.62 L 1903.71,343.60 L 1902.51,343.50 L 1901.86,343.44 L 1900.35,343.28 L 1898.76,343.11 L 1894.86,342.60 L 1888.28,341.64 L 1885.24,341.16 L 1879.59,340.33 L 1876.83,339.94 L 1871.70,339.26 L 1869.19,338.95 L 1864.50,338.42 L 1862.21,338.18 L 1857.91,337.80 L 1855.80,337.63 L 1851.81,337.40 L 1849.85,337.29 L 1846.11,337.19 L 1835.50,337.37 L 1832.90,337.51 L 1828.35,337.85 L 1826.18,338.03 L 1822.42,338.48 L 1820.62,338.72 L 1817.55,339.32 L 1816.09,339.63 L 1813.61,340.41 L 1812.44,340.82 L 1810.46,341.80 L 1809.53,342.32 L 1807.96,343.54 L 1807.22,344.19 L 1805.98,345.69 L 1804.36,348.28 L 1803.85,349.27 L 1803.57,351.18 L 1803.56,352.13 L 1804.26,353.93 L 1804.74,354.81 L 1806.42,356.46 L 1810.00,358.73 L 1811.55,359.50 L 1814.91,360.69 L 1815.81,360.97 L 1817.85,361.47 L 1818.92,361.71 L 1821.39,362.14 L 1822.70,362.36 L 1825.73,362.76 L 1827.33,362.95 L 1831.06,363.34 L 1833.02,363.53 L 1837.58,363.92 L 1845.50,364.54 L 1847.28,364.68 L 1850.59,364.93 L 1852.21,365.06 L 1855.22,365.32 L 1858.16,365.57 L 1863.26,366.09 L 1865.70,366.36 L 1869.93,366.93 L 1871.95,367.22 L 1875.52,367.89 L 1877.24,368.23 L 1880.35,369.03 L 1881.87,369.45 L 1884.72,370.42 L 1886.13,370.93 L 1888.93,372.11 L 1893.28,374.17 L 1895.32,375.19 L 1898.85,377.42 L 1900.53,378.58 L 1903.41,381.17 L 1904.79,382.52 L 1907.15,385.58 L 1910.24,390.84 L 1910.63,391.64 L 1911.29,393.00 L 1911.59,393.65 L 1912.08,394.83 L 1912.53,395.97 L 1913.05,398.27 L 1913.16,398.88 L 1913.30,400.29 L 1913.36,401.03 L 1913.43,402.78 L 1913.46,403.71 L 1913.49,405.94 L 1913.50,409.98 L 1913.50,411.48 L 1913.49,413.98 L 1913.48,415.16 L 1913.43,417.14 L 1913.40,418.07 L 1913.30,419.63 L 1913.24,420.38 L 1913.05,421.68 L 1912.85,422.93 L 1912.11,425.17 L 1911.89,425.75 L 1911.34,427.01 L 1910.34,429.18 L 1909.54,430.85 L 1907.78,433.90 L 1906.87,435.39 L 1904.83,438.08 L 1903.77,439.39 L 1901.41,441.77 L 1900.18,442.92 L 1897.45,445.01 L 1896.03,446.02 L 1892.88,447.84 L 1891.25,448.73 L 1887.65,450.33 L 1885.78,451.11 L 1881.68,452.51 L 1874.90,454.44 L 1872.59,455.02 L 1867.28,456.01 L 1864.52,456.48 L 1858.44,457.25 L 1855.33,457.60 L 1848.70,458.12 L 1845.34,458.36 L 1838.35,458.64 L 1831.32,458.86 L 1817.05,458.55 L 1813.54,458.40 L 1806.71,457.92 L 1803.34,457.64 L 1796.97,456.89 L 1794.97,456.63 L 1790.54,456.01 L 1788.29,455.69 L 1783.77,455.03 L 1781.55,454.70 L 1777.48,454.06 L 1776.52,453.91 L 1774.77,453.63 L 1772.47,453.24 L 1762.50,451.50 L 1762.23,435.23 L 1762.20,433.61 L 1762.16,430.81 L 1762.15,429.47 L 1762.15,427.20 L 1762.15,426.13 L 1762.19,424.33 L 1762.21,423.49 L 1762.28,422.13 L 1762.32,421.50 L 1762.43,420.52 L 1762.49,420.07 L 1762.65,419.41 L 1763.30,418.44 L 1763.40,418.40 L 1764.01,418.39 L 1764.39,418.39 L 1765.52,418.45 L 1766.14,418.48 L 1767.73,418.61 L 1768.57,418.67 L 1770.55,418.86 L 1771.58,418.95 L 1773.89,419.19 L 1775.08,419.31 L 1777.65,419.59 L 1786.08,420.59 L 1788.31,420.87 L 1792.35,421.35 L 1794.32,421.57 L 1797.97,421.95 L 1801.56,422.31 L 1808.36,422.78 L 1810.09,422.89 L 1813.68,423.04 L 1815.51,423.11 L 1819.46,423.22 L 1821.49,423.26 L 1825.97,423.33 L 1833.50,423.38 L 1835.86,423.39 L 1840.12,423.39 L 1842.18,423.39 L 1845.86,423.36 L 1847.64,423.34 L 1850.80,423.28 L 1852.32,423.25 L 1855.00,423.16 L 1856.29,423.11 L 1858.53,422.98 L 1859.60,422.91 L 1861.45,422.75 L 1862.33,422.66 L 1863.84,422.46 L 1865.75,422.11 L 1872.00,420.73 L 1872.00,410.04 L 1871.92,407.59 L 1871.87,406.43 L 1871.70,404.51 L 1871.61,403.64 L 1871.37,402.40 L 1870.93,401.46 L 1870.86,401.41 L 1870.23,401.29 L 1869.85,401.22 L 1868.65,401.05 L 1867.98,400.97 L 1866.27,400.77 L 1865.36,400.66 L 1863.22,400.44 L 1862.10,400.33 L 1859.58,400.08 L 1858.28,399.96 L 1855.46,399.70 L 1846.18,398.93 L 1844.37,398.78 L 1841.03,398.52 L 1839.41,398.39 L 1836.43,398.15 L 1834.98,398.03 L 1832.33,397.81 L 1831.04,397.70 L 1828.68,397.50 L 1826.40,397.31 L 1822.59,396.96 L 1820.80,396.79 L 1817.80,396.47 L 1816.38,396.31 L 1813.97,396.00 L 1812.81,395.84 L 1810.74,395.51 L 1804.71,394.32 L 1802.35,393.80 L 1797.83,392.50 L 1795.61,391.81 L 1791.41,390.20 L 1789.35,389.36 L 1785.51,387.46 L 1783.63,386.47 L 1780.19,384.31 L 1778.52,383.20 L 1775.50,380.79 L 1774.05,379.57 L 1771.52,376.95 L 1770.31,375.62 L 1768.29,372.83 L 1765.88,368.45 L 1765.31,367.18 L 1764.42,364.36 L 1764.01,362.92 L 1763.43,359.85 L 1763.18,358.29 L 1762.90,355.04 L 1762.80,353.40 L 1762.84,350.07 L 1762.89,348.40 L 1763.22,345.07 L 1763.43,343.42 L 1764.06,340.19 L 1764.42,338.60 L 1765.35,335.55 L 1767.07,331.30 L 1767.72,329.96 L 1769.33,327.40 L 1770.18,326.15 L 1772.17,323.78 L 1773.22,322.61 L 1775.60,320.42 L 1776.83,319.35 L 1779.58,317.35 L 1781.00,316.37 L 1784.11,314.56 L 1785.71,313.68 L 1789.16,312.06 L 1790.93,311.28 L 1794.72,309.86 L 1796.66,309.17 L 1800.78,307.95 L 1802.88,307.37 L 1807.31,306.35 L 1809.57,305.86 L 1814.30,305.05 L 1816.71,304.67 L 1821.74,304.07 L 1824.29,303.79 L 1829.60,303.40 L 1832.30,303.23 L 1837.88,303.06 L 1840.70,303.00 M 1443.82,319.42 L 1443.78,321.54 L 1443.63,325.47 L 1443.55,327.36 L 1443.35,330.55 L 1443.30,331.29 L 1443.19,332.56 L 1443.13,333.16 L 1443.02,334.13 L 1442.96,334.57 L 1442.84,335.19 L 1442.67,335.67 L 1442.64,335.70 L 1442.31,335.76 L 1442.10,335.79 L 1441.43,335.85 L 1441.05,335.88 L 1440.06,335.94 L 1439.52,335.97 L 1438.21,336.03 L 1437.53,336.06 L 1435.93,336.13 L 1435.10,336.16 L 1433.23,336.22 L 1431.30,336.28 L 1426.71,336.40 L 1424.30,336.46 L 1418.85,336.58 L 1416.04,336.64 L 1409.89,336.74 L 1406.74,336.79 L 1400.03,336.88 L 1389.50,337.00 L 1385.90,337.03 L 1378.97,337.11 L 1375.57,337.15 L 1369.13,337.24 L 1365.99,337.29 L 1360.18,337.39 L 1357.37,337.44 L 1352.35,337.54 L 1349.95,337.59 L 1345.85,337.70 L 1344.89,337.72 L 1343.17,337.78 L 1342.34,337.80 L 1340.90,337.85 L 1340.22,337.88 L 1339.08,337.93 L 1338.55,337.95 L 1337.72,338.00 L 1337.35,338.03 L 1336.86,338.07 L 1336.53,338.14 L 1336.48,338.18 L 1336.41,338.52 L 1336.38,338.73 L 1336.34,339.36 L 1336.31,340.07 L 1336.31,342.22 L 1336.33,343.40 L 1336.43,346.29 L 1336.69,351.14 L 1337.50,363.50 L 1346.50,364.14 L 1347.12,364.19 L 1348.96,364.28 L 1349.97,364.32 L 1352.50,364.40 L 1353.84,364.44 L 1356.96,364.52 L 1358.59,364.56 L 1362.18,364.63 L 1364.03,364.66 L 1367.99,364.72 L 1370.00,364.75 L 1374.21,364.80 L 1387.25,364.89 L 1419.00,365.00 L 1419.00,398.00 L 1385.75,398.01 L 1381.18,398.01 L 1372.18,398.06 L 1369.98,398.08 L 1365.76,398.12 L 1363.68,398.15 L 1359.80,398.20 L 1357.92,398.23 L 1354.49,398.30 L 1352.85,398.33 L 1349.99,398.41 L 1348.65,398.45 L 1346.47,398.53 L 1344.11,398.66 L 1335.72,399.32 L 1336.26,411.10 L 1336.34,412.72 L 1336.53,415.75 L 1336.62,417.22 L 1336.84,419.73 L 1336.95,420.89 L 1337.16,422.60 L 1337.22,422.96 L 1337.32,423.48 L 1337.46,423.94 L 1337.52,424.03 L 1338.27,424.19 L 1338.75,424.27 L 1340.37,424.41 L 1341.29,424.48 L 1343.78,424.59 L 1345.14,424.65 L 1348.53,424.74 L 1350.34,424.79 L 1354.64,424.86 L 1356.91,424.89 L 1362.13,424.94 L 1364.85,424.96 L 1371.01,424.99 L 1381.31,425.01 L 1387.25,425.01 L 1398.85,425.06 L 1401.68,425.08 L 1407.10,425.12 L 1409.75,425.14 L 1414.70,425.20 L 1417.10,425.23 L 1421.44,425.30 L 1423.52,425.33 L 1427.10,425.41 L 1428.78,425.45 L 1431.47,425.53 L 1432.07,425.55 L 1433.10,425.59 L 1434.32,425.66 L 1444.14,426.31 L 1443.82,441.11 L 1443.79,442.41 L 1443.72,444.75 L 1443.69,445.88 L 1443.60,447.89 L 1443.56,448.85 L 1443.45,450.54 L 1443.40,451.34 L 1443.27,452.72 L 1443.20,453.37 L 1443.06,454.46 L 1442.98,454.96 L 1442.81,455.77 L 1442.20,457.20 L 1442.07,457.33 L 1441.12,457.55 L 1440.81,457.61 L 1439.99,457.71 L 1439.54,457.75 L 1438.41,457.84 L 1437.81,457.89 L 1436.35,457.97 L 1435.58,458.01 L 1433.76,458.08 L 1432.80,458.12 L 1430.60,458.18 L 1429.45,458.21 L 1426.83,458.27 L 1425.46,458.30 L 1422.40,458.35 L 1420.82,458.37 L 1417.29,458.42 L 1415.46,458.44 L 1411.43,458.48 L 1409.36,458.50 L 1404.81,458.53 L 1402.46,458.55 L 1397.36,458.58 L 1394.74,458.59 L 1389.05,458.62 L 1386.14,458.63 L 1379.85,458.66 L 1369.70,458.69 L 1364.81,458.70 L 1355.36,458.71 L 1350.71,458.72 L 1341.91,458.72 L 1337.61,458.72 L 1329.65,458.70 L 1327.72,458.70 L 1324.05,458.69 L 1322.26,458.68 L 1318.87,458.67 L 1317.22,458.66 L 1314.14,458.64 L 1312.64,458.63 L 1309.88,458.61 L 1308.55,458.60 L 1306.16,458.58 L 1305.00,458.56 L 1302.99,458.54 L 1302.03,458.53 L 1300.41,458.50 L 1299.66,458.48 L 1298.47,458.45 L 1297.94,458.43 L 1297.21,458.40 L 1296.90,458.38 L 1296.65,458.35 L 1296.42,458.28 L 1296.06,457.92 L 1295.89,457.65 L 1295.61,456.48 L 1295.55,456.11 L 1295.44,455.13 L 1295.39,454.60 L 1295.30,453.23 L 1295.26,452.50 L 1295.19,450.68 L 1295.15,449.71 L 1295.10,447.38 L 1295.08,446.14 L 1295.04,443.22 L 1295.02,441.68 L 1295.00,438.11 L 1294.99,436.24 L 1294.99,431.95 L 1294.98,429.71 L 1294.99,424.64 L 1294.99,422.00 L 1295.01,416.08 L 1295.02,413.00 L 1295.04,406.16 L 1295.06,402.62 L 1295.09,394.79 L 1295.10,392.77 L 1295.12,388.53 L 1295.15,381.87 L 1295.17,377.74 L 1295.20,370.11 L 1295.22,366.41 L 1295.26,359.61 L 1295.28,356.30 L 1295.32,350.28 L 1295.34,347.36 L 1295.38,342.06 L 1295.40,339.50 L 1295.45,334.89 L 1295.47,332.66 L 1295.52,328.69 L 1295.55,326.77 L 1295.61,323.39 L 1295.64,321.77 L 1295.70,318.93 L 1295.73,317.57 L 1295.80,315.23 L 1295.84,314.12 L 1295.92,312.23 L 1295.96,311.33 L 1296.05,309.85 L 1296.10,309.16 L 1296.20,308.04 L 1296.26,307.52 L 1296.37,306.71 L 1296.43,306.34 L 1296.56,305.81 L 1297.00,304.98 L 1297.06,304.94 L 1297.50,304.87 L 1297.77,304.84 L 1298.64,304.77 L 1299.13,304.74 L 1300.41,304.68 L 1301.11,304.65 L 1302.79,304.59 L 1303.68,304.56 L 1305.75,304.50 L 1306.83,304.48 L 1309.28,304.42 L 1310.54,304.40 L 1313.35,304.35 L 1314.80,304.33 L 1317.95,304.28 L 1319.57,304.26 L 1323.05,304.23 L 1324.84,304.21 L 1328.65,304.17 L 1330.59,304.16 L 1334.71,304.13 L 1336.80,304.11 L 1341.21,304.09 L 1343.46,304.08 L 1348.15,304.06 L 1350.53,304.05 L 1355.49,304.04 L 1371.32,304.02 L 1444.14,304.00 M 1599.22,303.85 L 1604.86,304.00 L 1619.23,304.50 L 1628.06,333.74 L 1629.29,337.81 L 1631.72,345.77 L 1632.92,349.71 L 1635.26,357.27 L 1636.41,360.98 L 1638.60,367.97 L 1639.67,371.38 L 1641.65,377.62 L 1642.61,380.63 L 1644.34,385.96 L 1644.75,387.22 L 1645.52,389.55 L 1645.89,390.68 L 1646.58,392.72 L 1646.91,393.71 L 1647.50,395.44 L 1647.79,396.26 L 1648.29,397.66 L 1648.52,398.31 L 1648.91,399.36 L 1649.38,400.50 L 1649.57,400.93 L 1649.84,401.74 L 1649.97,402.10 L 1650.24,402.42 L 1650.32,402.45 L 1650.50,402.33 L 1650.59,402.23 L 1650.83,401.83 L 1650.96,401.59 L 1651.28,400.85 L 1651.45,400.43 L 1651.86,399.29 L 1652.09,398.66 L 1652.62,397.06 L 1652.91,396.20 L 1653.58,394.08 L 1653.94,392.95 L 1654.78,390.26 L 1655.22,388.84 L 1656.24,385.51 L 1656.77,383.77 L 1658.00,379.75 L 1658.64,377.65 L 1660.08,372.89 L 1660.83,370.40 L 1662.52,364.83 L 1665.35,355.50 L 1666.52,351.65 L 1668.95,343.70 L 1670.16,339.76 L 1672.46,332.27 L 1673.02,330.47 L 1674.06,327.11 L 1674.56,325.47 L 1675.48,322.52 L 1675.92,321.11 L 1676.68,318.68 L 1677.61,315.75 L 1681.37,304.00 L 1702.20,304.00 L 1706.80,304.06 L 1707.89,304.08 L 1709.91,304.14 L 1710.88,304.17 L 1712.62,304.24 L 1713.45,304.27 L 1714.86,304.36 L 1715.52,304.40 L 1716.55,304.50 L 1717.02,304.54 L 1717.63,304.65 L 1718.00,304.81 L 1718.00,305.00 L 1717.85,305.77 L 1717.76,306.22 L 1717.43,307.49 L 1717.24,308.18 L 1716.74,309.92 L 1716.47,310.85 L 1715.80,313.03 L 1715.45,314.17 L 1714.63,316.75 L 1714.20,318.09 L 1713.24,321.05 L 1712.74,322.57 L 1711.64,325.87 L 1711.08,327.56 L 1709.87,331.18 L 1709.24,333.02 L 1707.92,336.92 L 1707.24,338.90 L 1705.82,343.04 L 1704.37,347.25 L 1701.21,356.27 L 1699.60,360.87 L 1696.18,370.49 L 1690.85,385.32 L 1688.50,391.81 L 1683.88,404.64 L 1682.75,407.79 L 1680.59,413.84 L 1679.54,416.81 L 1677.56,422.38 L 1676.59,425.10 L 1674.85,430.05 L 1674.02,432.42 L 1672.57,436.57 L 1672.23,437.55 L 1671.62,439.34 L 1671.32,440.20 L 1670.80,441.72 L 1670.55,442.45 L 1670.13,443.70 L 1669.62,445.25 L 1665.50,457.99 L 1650.43,458.00 L 1635.36,458.00 L 1632.63,448.75 L 1632.33,447.73 L 1631.54,445.14 L 1631.12,443.76 L 1630.11,440.53 L 1629.58,438.85 L 1628.38,435.09 L 1627.77,433.16 L 1626.43,428.99 L 1625.74,426.86 L 1624.29,422.39 L 1623.55,420.12 L 1622.03,415.45 L 1620.49,410.75 L 1617.35,401.23 L 1615.79,396.53 L 1612.83,387.66 L 1612.11,385.52 L 1610.77,381.53 L 1610.11,379.58 L 1608.90,376.05 L 1608.32,374.36 L 1607.30,371.40 L 1606.82,370.01 L 1606.01,367.74 L 1605.64,366.70 L 1605.09,365.23 L 1604.59,364.03 L 1604.43,363.74 L 1604.12,363.37 L 1603.96,363.22 L 1603.63,363.26 L 1603.45,363.34 L 1603.03,363.92 L 1602.80,364.29 L 1602.22,365.58 L 1601.91,366.32 L 1601.13,368.45 L 1600.91,369.04 L 1600.44,370.41 L 1600.19,371.13 L 1599.64,372.75 L 1599.36,373.60 L 1598.73,375.51 L 1598.40,376.50 L 1597.68,378.71 L 1597.31,379.85 L 1596.49,382.37 L 1595.15,386.53 L 1594.59,388.25 L 1593.38,392.03 L 1592.76,393.96 L 1591.44,398.08 L 1590.11,402.26 L 1587.31,411.07 L 1585.91,415.46 L 1583.25,423.91 L 1582.61,425.94 L 1581.40,429.77 L 1579.77,435.00 L 1572.43,458.50 L 1564.97,458.64 L 1563.94,458.66 L 1561.56,458.63 L 1560.34,458.60 L 1557.81,458.49 L 1556.55,458.43 L 1554.16,458.25 L 1553.01,458.16 L 1551.08,457.93 L 1549.31,457.70 L 1546.14,456.93 L 1545.43,456.73 L 1544.32,456.31 L 1543.28,455.71 L 1543.19,455.62 L 1542.80,454.85 L 1542.58,454.38 L 1541.97,452.93 L 1541.64,452.13 L 1540.83,450.07 L 1540.40,448.98 L 1539.42,446.39 L 1538.91,445.04 L 1537.79,442.01 L 1537.22,440.45 L 1535.99,437.06 L 1532.06,425.92 L 1531.38,423.96 L 1529.76,419.33 L 1528.92,416.91 L 1527.01,411.49 L 1526.03,408.70 L 1523.91,402.69 L 1522.83,399.63 L 1520.55,393.22 L 1518.26,386.74 L 1513.52,373.44 L 1512.34,370.15 L 1510.04,363.72 L 1506.73,354.50 L 1505.66,351.54 L 1503.60,345.80 L 1502.59,342.96 L 1500.66,337.55 L 1499.72,334.90 L 1497.97,329.96 L 1497.12,327.55 L 1495.59,323.20 L 1494.86,321.10 L 1493.59,317.46 L 1493.00,315.75 L 1492.05,312.95 L 1491.83,312.31 L 1491.46,311.21 L 1491.29,310.69 L 1491.01,309.84 L 1490.89,309.45 L 1490.71,308.87 L 1490.56,308.32 L 1490.39,307.53 L 1490.24,306.48 L 1490.22,306.02 L 1490.56,305.46 L 1490.82,305.21 L 1491.89,304.89 L 1492.21,304.82 L 1493.04,304.67 L 1494.59,304.43 L 1494.91,304.39 L 1495.81,304.30 L 1496.29,304.26 L 1497.47,304.20 L 1498.71,304.14 L 1501.83,304.08 L 1503.47,304.07 L 1507.08,304.09 L 1512.63,304.24 L 1514.39,304.30 L 1517.46,304.48 L 1518.92,304.57 L 1521.43,304.81 L 1522.62,304.94 L 1524.62,305.25 L 1525.56,305.42 L 1527.09,305.83 L 1527.80,306.04 L 1528.90,306.55 L 1529.39,306.82 L 1530.11,307.45 L 1530.42,307.78 L 1530.79,308.53 L 1531.00,309.83 L 1531.00,310.02 L 1531.09,310.70 L 1531.15,311.09 L 1531.34,312.14 L 1531.45,312.70 L 1531.75,314.09 L 1531.92,314.81 L 1532.31,316.50 L 1532.52,317.38 L 1532.99,319.33 L 1533.24,320.34 L 1533.80,322.54 L 1534.38,324.80 L 1535.72,329.92 L 1536.43,332.56 L 1537.98,338.26 L 1538.78,341.16 L 1540.48,347.21 L 1545.82,365.50 L 1546.77,368.66 L 1548.56,374.69 L 1548.99,376.14 L 1549.80,378.89 L 1550.20,380.23 L 1550.91,382.70 L 1551.26,383.89 L 1551.87,385.99 L 1552.15,387.00 L 1552.63,388.67 L 1552.85,389.45 L 1553.17,390.63 L 1553.45,391.75 L 1553.60,392.43 L 1553.92,393.41 L 1554.09,393.84 L 1554.55,394.40 L 1554.80,394.63 L 1555.51,394.88 L 1556.97,395.00 L 1557.60,395.00 L 1558.72,394.86 L 1559.26,394.76 L 1560.21,394.37 L 1560.67,394.14 L 1561.51,393.43 L 1561.91,393.02 L 1562.67,391.91 L 1563.05,391.30 L 1563.78,389.72 L 1564.14,388.87 L 1564.89,386.75 L 1565.27,385.61 L 1566.08,382.88 L 1567.40,378.00 L 1567.71,376.82 L 1568.46,374.05 L 1568.85,372.62 L 1569.75,369.41 L 1570.21,367.76 L 1571.22,364.21 L 1571.74,362.39 L 1572.84,358.56 L 1573.97,354.68 L 1576.38,346.48 L 1577.60,342.37 L 1580.05,334.22 L 1581.25,330.22 L 1583.52,322.81 L 1584.07,321.04 L 1585.09,317.75 L 1585.59,316.16 L 1586.50,313.30 L 1586.94,311.93 L 1587.70,309.57 L 1588.06,308.47 L 1588.66,306.71 L 1588.94,305.92 L 1589.34,304.85 L 1589.69,304.11 L 1589.75,304.06 L 1590.15,303.99 L 1590.39,303.96 L 1591.14,303.91 L 1591.55,303.89 L 1592.61,303.85 L 1593.17,303.84 L 1594.48,303.83 L 1595.86,303.82 M 391.37,433.81 L 388.95,433.85 L 388.46,433.85 L 394.53,433.72 M 413.96,432.47 L 405.24,433.22 L 400.81,433.54 L 395.12,433.70 L 398.81,433.52 L 406.46,433.07 L 410.12,432.75 L 417.13,432.04 M 353.01,432.24 L 354.57,432.43 L 359.35,432.93 L 358.50,432.86 L 356.14,432.65 L 351.95,432.11 L 350.81,431.91 M 332.17,427.86 L 341.27,430.10 L 346.02,431.07 L 346.53,431.16 L 346.02,431.08 L 341.26,430.10 L 332.17,427.86 L 331.15,427.59 M 426.54,430.65 L 425.72,430.77 L 427.94,430.37 M 441.14,428.07 L 441.74,428.12 L 441.41,428.14 L 440.77,428.18 L 438.82,428.43 L 437.75,428.58 L 435.12,429.01 L 430.72,429.82 L 429.21,430.12 L 429.90,429.98 L 434.02,429.13 L 436.28,428.68 L 437.19,428.52 L 438.88,428.25 L 439.53,428.17 L 440.71,428.06 M 302.50,417.91 L 302.50,417.91 L 297.85,415.79 M 268.03,399.04 L 271.76,401.47 L 279.24,406.17 L 283.04,408.30 L 290.70,412.44 L 294.61,414.31 L 294.60,414.30 L 290.69,412.44 L 283.03,408.30 L 279.23,406.16 L 271.75,401.47 L 268.02,399.04 L 260.64,393.74 L 249.58,385.08 L 260.64,393.74 M 525.24,351.02 L 524.05,351.45 L 523.10,352.12 L 522.56,352.62 L 521.44,353.74 L 520.84,354.44 L 519.60,355.94 L 518.96,356.80 L 516.35,360.55 L 515.07,362.71 L 512.57,367.18 L 511.51,369.50 L 507.61,378.24 L 505.02,384.26 L 503.89,386.97 L 502.80,389.60 L 502.33,390.76 L 501.44,392.97 L 501.10,393.87 L 500.48,395.51 L 500.29,396.06 L 500.00,396.98 L 500.00,397.12 L 500.16,397.24 L 500.46,397.29 L 501.21,397.41 L 501.78,397.46 L 503.05,397.56 L 503.86,397.61 L 505.60,397.70 L 506.62,397.74 L 508.76,397.82 L 509.96,397.85 L 512.44,397.91 L 513.78,397.93 L 519.43,398.00 L 522.53,398.00 L 528.66,397.99 L 532.17,397.96 L 533.65,397.94 L 536.45,397.89 L 537.61,397.86 L 539.77,397.78 L 540.64,397.73 L 542.23,397.62 L 542.84,397.55 L 543.94,397.41 L 544.33,397.32 L 545.01,397.13 L 545.21,397.02 L 545.53,396.79 L 545.58,396.65 L 545.51,395.77 L 545.25,394.75 L 545.03,394.05 L 544.52,392.53 L 544.18,391.61 L 543.45,389.67 L 543.02,388.57 L 542.12,386.30 L 541.61,385.07 L 540.57,382.55 L 540.01,381.22 L 537.66,375.76 L 536.42,372.98 L 533.92,367.43 L 532.71,364.85 L 531.51,362.31 L 530.94,361.13 L 529.83,358.84 L 529.31,357.82 L 528.31,355.85 L 527.87,355.02 L 527.03,353.47 L 526.68,352.87 L 526.02,351.81 L 525.78,351.50 L 525.35,351.01 M 566.39,333.15 L 565.79,333.86 L 566.22,333.33 L 566.93,332.51 L 567.28,332.11 M 568.36,330.87 L 568.47,330.74 L 568.65,330.54 Z" fill="rgba(4,4,4,1)"/>
<path d="M 660.36,0.37 L 665.57,0.76 L 668.17,1.00 L 673.33,1.80 L 675.91,2.25 L 681.00,3.45 L 683.54,4.10 L 688.54,5.69 L 691.02,6.53 L 695.90,8.50 L 698.31,9.53 L 703.03,11.87 L 705.37,13.09 L 709.91,15.79 L 712.16,17.19 L 716.49,20.24 L 718.62,21.81 L 722.72,25.21 L 724.73,26.95 L 728.57,30.68 L 730.45,32.58 L 733.99,36.64 L 738.94,43.07 L 740.20,44.87 L 742.43,48.22 L 743.49,49.86 L 745.35,52.99 L 746.23,54.54 L 747.75,57.55 L 748.47,59.05 L 749.70,62.04 L 750.28,63.54 L 751.25,66.61 L 751.71,68.17 L 752.46,71.42 L 752.82,73.08 L 753.39,76.62 L 754.10,82.36 L 754.27,83.99 L 754.51,87.68 L 754.61,89.58 L 754.72,93.66 L 754.80,97.80 L 754.61,106.51 L 754.53,108.67 L 754.30,112.86 L 754.18,114.93 L 753.84,118.81 L 753.67,120.69 L 753.24,124.08 L 752.50,128.41 L 752.05,130.56 L 750.69,134.96 L 749.93,137.17 L 748.01,141.64 L 746.97,143.87 L 744.52,148.32 L 740.29,154.89 L 740.12,155.13 L 739.44,155.94 L 739.05,156.40 L 737.94,157.65 L 737.33,158.32 L 735.80,159.98 L 734.99,160.86 L 733.07,162.91 L 732.06,163.98 L 729.76,166.40 L 728.57,167.65 L 725.92,170.42 L 724.56,171.84 L 721.58,174.93 L 720.05,176.52 L 716.77,179.91 L 715.09,181.64 L 711.51,185.32 L 709.69,187.19 L 705.84,191.13 L 703.89,193.12 L 699.80,197.30 L 697.73,199.41 L 693.41,203.80 L 691.23,206.02 L 686.71,210.61 L 684.43,212.92 L 679.72,217.68 L 665.03,232.50 L 661.96,235.59 L 656.10,241.48 L 653.22,244.39 L 647.71,249.93 L 645.00,252.66 L 639.84,257.85 L 637.30,260.41 L 632.47,265.27 L 630.10,267.66 L 625.59,272.21 L 623.37,274.44 L 619.18,278.67 L 617.12,280.75 L 613.22,284.68 L 611.31,286.61 L 607.70,290.26 L 605.93,292.05 L 602.60,295.42 L 600.97,297.07 L 597.90,300.18 L 596.40,301.71 L 593.59,304.56 L 592.22,305.96 L 589.65,308.58 L 588.40,309.86 L 586.07,312.24 L 584.93,313.41 L 582.82,315.58 L 581.79,316.64 L 579.89,318.61 L 578.96,319.57 L 577.26,321.34 L 575.60,323.06 L 572.85,325.99 L 571.55,327.36 L 569.45,329.66 L 568.47,330.74 L 566.93,332.51 L 566.22,333.33 L 565.15,334.66 L 564.67,335.28 L 563.99,336.27 L 563.68,336.72 L 563.30,337.46 L 562.82,339.16 L 562.79,339.52 L 562.66,339.99 L 562.59,340.18 L 562.35,340.24 L 562.21,340.21 L 561.81,339.80 L 561.59,339.52 L 560.99,338.54 L 560.67,337.98 L 559.83,336.37 L 559.37,335.48 L 558.25,333.17 L 557.64,331.92 L 556.18,328.83 L 553.58,323.23 L 544.66,303.96 L 523.15,304.23 L 501.65,304.50 L 486.75,336.50 L 485.10,340.05 L 481.91,346.88 L 480.34,350.26 L 477.33,356.72 L 475.85,359.91 L 473.01,366.01 L 471.61,369.01 L 468.95,374.72 L 467.64,377.53 L 465.16,382.85 L 463.95,385.46 L 461.66,390.38 L 460.53,392.79 L 458.43,397.30 L 457.40,399.50 L 455.50,403.60 L 454.57,405.59 L 452.86,409.26 L 452.03,411.04 L 450.52,414.27 L 449.79,415.83 L 448.49,418.62 L 447.87,419.96 L 446.77,422.30 L 446.26,423.41 L 445.38,425.29 L 444.97,426.17 L 444.31,427.58 L 444.01,428.22 L 443.57,429.15 L 443.17,430.00 L 442.92,430.54 L 442.58,431.23 L 442.43,431.51 L 442.30,431.67 L 442.25,431.69 L 442.30,431.34 L 442.56,430.25 L 442.65,429.89 L 442.73,429.31 L 442.75,429.05 L 442.63,428.64 L 442.53,428.46 L 442.13,428.23 L 441.89,428.13 L 441.14,428.07 L 440.71,428.06 L 439.53,428.17 L 438.88,428.25 L 437.19,428.52 L 436.28,428.68 L 434.02,429.13 L 429.90,429.98 L 428.49,430.27 L 425.45,430.82 L 423.91,431.08 L 420.64,431.56 L 417.32,432.02 L 410.12,432.75 L 406.46,433.07 L 398.81,433.52 L 394.96,433.71 L 387.15,433.88 L 383.25,433.93 L 375.59,433.83 L 371.80,433.73 L 364.58,433.34 L 361.05,433.11 L 354.57,432.43 L 353.01,432.24 L 350.09,431.80 L 346.02,431.07 L 341.27,430.10 L 332.17,427.86 L 327.69,426.69 L 319.07,424.03 L 314.81,422.65 L 306.58,419.53 L 302.51,417.92 L 294.61,414.31 L 290.70,412.44 L 283.04,408.30 L 279.24,406.17 L 271.76,401.47 L 268.03,399.04 L 260.64,393.74 L 249.58,385.08 L 241.03,378.00 L 241.21,378.00 L 241.50,377.84 L 241.53,377.60 L 241.47,377.42 L 241.02,376.58 L 240.53,376.04 L 240.30,375.62 L 240.28,375.25 L 240.38,374.98 L 240.66,374.35 L 240.97,373.90 L 241.69,372.88 L 242.26,372.18 L 243.55,370.63 L 244.45,369.62 L 245.40,368.56 L 245.95,367.96 L 247.09,366.72 L 247.74,366.02 L 249.09,364.58 L 249.86,363.77 L 251.44,362.11 L 252.32,361.19 L 254.14,359.28 L 255.15,358.24 L 257.24,356.09 L 258.38,354.91 L 260.74,352.49 L 262.03,351.17 L 264.69,348.46 L 266.13,346.99 L 269.09,343.98 L 270.69,342.35 L 273.98,339.02 L 275.75,337.23 L 279.38,333.57 L 281.33,331.60 L 285.31,327.58 L 287.45,325.43 L 291.80,321.04 L 294.13,318.70 L 298.88,313.92 L 301.41,311.39 L 306.56,306.21 L 309.30,303.46 L 314.88,297.86 L 317.83,294.90 L 323.85,288.86 L 327.03,285.67 L 333.50,279.18 L 336.91,275.76 L 343.86,268.80 L 347.51,265.14 L 354.94,257.69 L 358.85,253.78 L 366.78,245.83 L 370.95,241.66 L 379.40,233.19 L 383.83,228.75 L 528.88,83.47 L 529.38,83.91 L 553.45,60.21 L 555.90,57.79 L 560.51,53.29 L 562.76,51.09 L 566.99,47.02 L 569.06,45.03 L 572.94,41.36 L 574.84,39.57 L 578.42,36.28 L 580.17,34.67 L 583.47,31.72 L 585.10,30.29 L 588.17,27.65 L 589.68,26.38 L 592.55,24.04 L 593.96,22.90 L 596.67,20.83 L 599.34,18.82 L 604.35,15.48 L 606.82,13.91 L 611.64,11.28 L 614.05,10.04 L 618.96,7.91 L 626.76,5.04 L 629.28,4.20 L 634.38,2.87 L 636.94,2.26 L 642.11,1.37 L 644.70,0.98 L 649.92,0.52 L 652.52,0.35 L 657.75,0.33 M 525.78,351.50 L 526.02,351.81 L 526.68,352.87 L 527.03,353.47 L 527.87,355.02 L 528.31,355.85 L 529.31,357.82 L 529.83,358.84 L 530.94,361.13 L 531.51,362.31 L 532.71,364.85 L 533.92,367.43 L 536.42,372.98 L 537.66,375.76 L 540.01,381.22 L 540.57,382.55 L 541.61,385.07 L 542.12,386.30 L 543.02,388.57 L 543.45,389.67 L 544.18,391.61 L 544.52,392.53 L 545.03,394.05 L 545.25,394.75 L 545.51,395.77 L 545.58,396.65 L 545.53,396.79 L 545.21,397.02 L 545.01,397.13 L 544.33,397.32 L 543.94,397.41 L 542.84,397.55 L 542.23,397.62 L 540.64,397.73 L 539.77,397.78 L 537.61,397.86 L 536.45,397.89 L 533.65,397.94 L 532.17,397.96 L 528.66,397.99 L 522.53,398.00 L 519.43,398.00 L 513.78,397.93 L 512.44,397.91 L 509.96,397.85 L 508.76,397.82 L 506.62,397.74 L 505.60,397.70 L 503.86,397.61 L 503.05,397.56 L 501.78,397.46 L 501.21,397.41 L 500.46,397.29 L 500.16,397.24 L 500.00,397.12 L 500.00,396.98 L 500.29,396.06 L 500.48,395.51 L 501.10,393.87 L 501.44,392.97 L 502.33,390.76 L 502.80,389.60 L 503.89,386.97 L 505.02,384.26 L 507.61,378.24 L 511.51,369.50 L 512.57,367.18 L 515.07,362.71 L 516.35,360.55 L 518.96,356.80 L 519.60,355.94 L 520.84,354.44 L 521.44,353.74 L 522.56,352.62 L 523.10,352.12 L 524.05,351.45 L 525.24,351.02 L 525.35,351.01 M 508.70,66.64 L 511.08,68.46 L 515.84,72.29 L 523.02,78.36 L 525.27,80.32 L 520.71,76.42 L 513.66,70.57 L 508.98,66.88 L 506.75,65.20 M 499.19,59.65 L 506.55,65.06 L 497.82,58.76 M 484.81,50.58 L 489.82,53.69 L 484.05,50.17 M 470.10,42.98 L 472.31,44.10 L 469.82,42.86 M 454.87,36.77 L 454.87,36.77 L 454.87,36.77 M 427.68,29.29 L 430.51,29.92 L 425.30,28.83 M 400.70,25.24 L 402.09,25.40 L 400.65,25.24 M 210.32,403.05 L 212.09,401.33 L 215.51,398.01 L 217.06,396.52 L 220.04,393.64 L 221.37,392.35 L 223.94,389.88 L 225.08,388.79 L 227.27,386.70 L 227.57,386.41 L 226.47,387.47 L 225.16,388.72 L 222.18,391.59 L 220.64,393.08 L 217.25,396.35 L 215.51,398.03 L 211.82,401.61 L 200.00,413.07 L 206.42,406.83 Z" fill="rgba(57,164,232,1)"/>
<path d="M 78.16,467.54 L 80.07,467.91 L 77.54,467.41 L 75.86,466.96 M 71.23,465.66 L 69.92,465.27 L 69.11,464.96 M 63.07,462.65 L 62.37,462.38 L 59.38,460.96 M 47.25,454.13 L 52.07,457.12 L 50.20,456.04 L 47.83,454.60 L 44.99,452.64 M 34.29,444.12 L 37.43,446.77 L 43.54,451.63 L 43.26,451.44 L 41.01,449.82 L 36.72,446.31 L 34.62,444.52 L 30.67,440.69 L 28.65,438.47 M 23.82,433.00 L 23.75,432.91 L 23.64,432.76 M 15.93,422.11 L 15.19,421.02 L 14.61,419.98 M 12.67,416.49 L 11.36,414.14 L 9.56,410.65 L 8.63,408.36 M 2.52,390.14 L 2.47,389.94 L 2.42,389.70 M 1.76,349.71 L 1.55,351.26 L 1.16,354.43 L 1.03,356.12 L 0.79,359.60 L 0.72,361.49 L 0.62,365.37 L 0.61,367.50 L 0.67,373.38 L 0.81,377.03 L 0.93,378.75 L 1.44,384.02 L 1.05,380.59 L 0.84,378.56 L 0.59,374.32 L 0.49,372.18 L 0.43,367.83 L 0.43,365.65 L 0.58,361.35 L 0.68,359.23 L 1.03,355.15 L 1.23,353.15 L 1.78,349.45 L 2.03,348.26 M 240.96,378.00 L 240.91,378.00 L 240.25,377.69 L 239.47,376.95 L 240.27,377.69 M 388.86,24.39 L 397.50,24.95 L 400.65,25.24 L 406.78,25.93 L 409.82,26.29 L 415.73,27.15 L 421.59,28.05 L 432.73,30.38 L 438.21,31.64 L 448.70,34.73 L 453.88,36.38 L 463.87,40.30 L 468.82,42.36 L 478.45,47.16 L 483.23,49.67 L 492.63,55.41 L 497.32,58.40 L 506.65,65.13 L 508.98,66.88 L 513.66,70.57 L 520.71,76.42 L 528.91,83.44 L 383.83,228.75 L 379.40,233.19 L 370.95,241.66 L 366.78,245.83 L 358.85,253.78 L 354.94,257.69 L 347.51,265.14 L 343.86,268.80 L 336.91,275.76 L 333.50,279.18 L 327.03,285.67 L 323.85,288.86 L 317.83,294.90 L 314.88,297.86 L 309.30,303.46 L 306.56,306.21 L 301.41,311.39 L 298.88,313.92 L 294.13,318.70 L 291.80,321.04 L 287.45,325.43 L 285.31,327.58 L 281.33,331.60 L 279.38,333.57 L 275.75,337.23 L 273.98,339.02 L 270.69,342.35 L 269.09,343.98 L 266.13,346.99 L 264.69,348.46 L 262.03,351.17 L 260.74,352.49 L 258.38,354.91 L 257.24,356.09 L 255.15,358.24 L 254.14,359.28 L 252.32,361.19 L 251.44,362.11 L 249.86,363.77 L 249.09,364.58 L 247.74,366.02 L 247.09,366.72 L 245.95,367.96 L 245.40,368.56 L 244.45,369.62 L 243.55,370.63 L 242.26,372.18 L 241.69,372.88 L 240.97,373.90 L 240.66,374.35 L 240.38,374.98 L 240.28,375.25 L 240.30,375.62 L 240.53,376.04 L 241.02,376.58 L 241.47,377.42 L 241.53,377.60 L 241.50,377.84 L 241.28,377.97 L 241.21,377.47 L 240.66,376.63 L 240.17,376.02 L 239.05,374.68 L 238.32,373.87 L 236.76,372.18 L 235.85,371.25 L 225.61,359.76 L 219.10,351.44 L 216.02,346.96 L 209.96,337.77 L 207.11,332.86 L 201.52,322.82 L 198.90,317.50 L 191.89,301.55 L 187.93,290.73 L 186.32,285.24 L 183.33,274.23 L 182.20,268.69 L 180.19,257.57 L 179.55,251.99 L 178.53,240.82 L 178.39,235.25 L 178.35,224.12 L 178.71,218.58 L 179.68,207.55 L 180.54,202.09 L 182.52,191.22 L 183.89,185.88 L 185.81,178.94 L 187.38,173.68 L 188.28,170.85 L 190.13,165.08 L 191.13,162.11 L 193.15,156.13 L 194.19,153.18 L 196.28,147.31 L 197.30,144.52 L 199.34,139.08 L 200.29,136.63 L 202.17,131.93 L 203.00,129.96 L 203.82,128.07 L 204.20,127.24 L 204.93,125.66 L 205.26,125.00 L 205.74,123.98 L 205.93,123.46 L 205.95,123.29 L 205.93,123.03 L 205.81,123.02 L 205.50,123.08 L 205.22,123.25 L 204.56,123.69 L 204.09,124.08 L 203.03,124.96 L 202.32,125.59 L 200.79,126.98 L 199.83,127.88 L 197.77,129.82 L 196.52,131.03 L 193.87,133.59 L 192.30,135.13 L 189.00,138.37 L 187.08,140.27 L 185.12,142.22 L 184.06,143.26 L 181.91,145.40 L 180.76,146.54 L 178.41,148.88 L 177.16,150.13 L 174.60,152.68 L 173.25,154.04 L 170.48,156.80 L 169.02,158.27 L 166.03,161.26 L 164.46,162.84 L 161.24,166.06 L 159.55,167.76 L 156.10,171.22 L 154.29,173.04 L 150.60,176.75 L 148.66,178.70 L 144.72,182.66 L 142.65,184.73 L 138.45,188.95 L 136.26,191.16 L 131.79,195.65 L 129.46,198.00 L 125.45,202.03 L 135.74,191.65 L 141.72,185.61 L 153.18,174.00 L 155.99,171.15 L 161.46,165.60 L 164.16,162.86 L 169.37,157.56 L 171.94,154.94 L 176.86,149.91 L 179.28,147.44 L 183.89,142.73 L 186.15,140.42 L 190.40,136.06 L 192.47,133.92 L 196.34,129.94 L 198.22,128.00 L 201.65,124.44 L 203.32,122.72 L 206.30,119.61 L 207.73,118.12 L 210.23,115.50 L 211.41,114.25 L 213.38,112.16 L 214.29,111.18 L 215.70,109.64 L 217.15,108.00 L 218.72,106.13 L 222.19,102.18 L 223.98,100.19 L 227.78,96.10 L 231.64,91.99 L 239.76,83.93 L 241.77,81.97 L 245.72,78.26 L 247.67,76.45 L 251.39,73.13 L 253.20,71.54 L 256.55,68.76 L 261.00,65.33 L 263.65,63.44 L 269.01,59.84 L 271.70,58.08 L 277.14,54.73 L 279.87,53.09 L 285.39,50.00 L 288.15,48.49 L 293.73,45.66 L 296.53,44.28 L 302.17,41.71 L 305.00,40.46 L 310.69,38.15 L 313.54,37.03 L 319.27,34.99 L 322.14,34.00 L 327.90,32.22 L 330.79,31.37 L 336.58,29.87 L 339.47,29.15 L 345.28,27.91 L 348.19,27.33 L 354.01,26.37 L 356.92,25.93 L 362.74,25.25 L 365.65,24.94 L 371.47,24.54 L 374.37,24.37 L 380.18,24.25 L 383.08,24.22 M 3.53,341.91 L 3.56,341.78 L 3.61,341.65 M 26.26,303.26 L 24.76,304.96 L 21.94,308.19 L 20.76,309.61 L 19.94,310.61 L 20.65,309.58 L 20.92,309.22 L 21.82,308.15 L 22.32,307.57 L 23.66,306.06 L 24.38,305.25 L 26.17,303.31 L 27.11,302.29 L 28.49,300.82 Z" fill="rgba(247,60,92,1)"/>
<path d="M 80.07,467.91 L 78.16,467.54 L 74.37,466.58 L 72.47,466.06 L 68.73,464.84 L 65.00,463.54 L 57.74,460.20 L 54.15,458.41 L 47.25,454.13 L 43.86,451.89 L 37.43,446.77 L 34.29,444.12 L 28.44,438.25 L 25.59,435.23 L 20.42,428.71 L 17.94,425.37 L 13.55,418.26 L 7.98,407.07 L 7.28,405.39 L 6.04,402.20 L 5.45,400.62 L 4.44,397.55 L 3.47,394.50 L 2.15,388.44 L 1.57,385.36 L 0.93,378.75 L 0.81,377.03 L 0.67,373.38 L 0.61,367.50 L 0.62,365.37 L 0.72,361.49 L 0.79,359.60 L 1.03,356.12 L 1.16,354.43 L 1.55,351.26 L 1.76,349.71 L 2.32,346.75 L 2.92,343.82 L 4.72,338.17 L 5.23,336.74 L 6.42,333.81 L 8.49,329.20 L 9.58,326.90 L 11.55,322.95 L 12.06,321.98 L 13.19,320.02 L 13.78,319.03 L 15.15,316.95 L 15.88,315.88 L 17.61,313.55 L 18.54,312.33 L 20.76,309.61 L 21.94,308.19 L 24.76,304.96 L 26.26,303.26 L 29.81,299.38 L 30.74,298.36 L 32.78,296.18 L 33.82,295.07 L 36.08,292.68 L 37.23,291.46 L 39.73,288.85 L 41.01,287.52 L 43.75,284.67 L 45.16,283.22 L 48.17,280.11 L 49.72,278.53 L 53.01,275.15 L 54.70,273.43 L 58.30,269.76 L 60.13,267.89 L 64.04,263.92 L 66.04,261.90 L 70.28,257.61 L 72.44,255.42 L 77.02,250.79 L 79.36,248.43 L 84.30,243.45 L 86.81,240.91 L 92.13,235.55 L 94.83,232.83 L 100.54,227.09 L 103.44,224.17 L 109.55,218.02 L 112.65,214.90 L 119.18,208.34 L 129.46,198.00 L 131.79,195.65 L 136.26,191.16 L 138.45,188.95 L 142.65,184.73 L 144.72,182.66 L 148.66,178.70 L 150.60,176.75 L 154.29,173.04 L 156.10,171.22 L 159.55,167.76 L 161.24,166.06 L 164.46,162.84 L 166.03,161.26 L 169.02,158.27 L 170.48,156.80 L 173.25,154.04 L 174.60,152.68 L 177.16,150.13 L 178.41,148.88 L 180.76,146.54 L 181.91,145.40 L 184.06,143.26 L 185.12,142.22 L 187.08,140.27 L 189.00,138.37 L 192.30,135.13 L 193.87,133.59 L 196.52,131.03 L 197.77,129.82 L 199.83,127.88 L 200.79,126.98 L 202.32,125.59 L 203.03,124.96 L 204.09,124.08 L 204.56,123.69 L 205.22,123.25 L 205.50,123.08 L 205.81,123.02 L 205.93,123.03 L 205.95,123.29 L 205.93,123.46 L 205.74,123.98 L 205.26,125.00 L 204.93,125.66 L 204.20,127.24 L 203.82,128.07 L 203.00,129.96 L 202.17,131.93 L 200.29,136.63 L 199.34,139.08 L 197.30,144.52 L 196.28,147.31 L 194.19,153.18 L 193.15,156.13 L 191.13,162.11 L 190.13,165.08 L 188.28,170.85 L 187.38,173.68 L 185.81,178.94 L 183.89,185.88 L 182.52,191.22 L 180.54,202.09 L 179.68,207.55 L 178.71,218.58 L 178.35,224.12 L 178.39,235.25 L 178.53,240.82 L 179.55,251.99 L 180.19,257.57 L 182.20,268.69 L 183.33,274.23 L 186.32,285.24 L 187.93,290.73 L 191.89,301.55 L 198.90,317.50 L 201.52,322.82 L 207.11,332.86 L 209.96,337.77 L 216.02,346.96 L 219.10,351.44 L 225.61,359.76 L 235.85,371.25 L 236.76,372.18 L 238.32,373.87 L 239.05,374.68 L 240.17,376.02 L 240.66,376.63 L 241.21,377.47 L 241.28,378.00 L 240.96,378.00 L 240.27,377.69 L 239.47,376.95 L 239.37,376.79 L 239.03,376.68 L 238.82,376.68 L 238.07,377.08 L 237.84,377.22 L 237.27,377.64 L 236.96,377.87 L 236.20,378.50 L 235.79,378.84 L 234.81,379.70 L 234.28,380.16 L 233.05,381.28 L 232.39,381.88 L 230.87,383.30 L 230.07,384.05 L 228.23,385.78 L 227.27,386.70 L 225.08,388.79 L 223.94,389.88 L 221.37,392.35 L 220.04,393.64 L 217.06,396.52 L 215.51,398.01 L 212.09,401.33 L 210.32,403.05 L 206.42,406.83 L 200.00,413.07 L 195.94,417.01 L 188.07,424.61 L 186.16,426.46 L 182.51,429.96 L 180.72,431.68 L 177.40,434.85 L 175.79,436.38 L 172.90,439.13 L 171.52,440.44 L 169.16,442.67 L 168.05,443.71 L 166.31,445.33 L 164.50,446.96 L 163.17,448.12 L 160.18,450.40 L 158.65,451.53 L 155.32,453.71 L 153.61,454.78 L 150.01,456.82 L 148.19,457.83 L 144.40,459.70 L 140.58,461.52 L 132.72,464.48 L 130.76,465.15 L 126.89,466.27 L 121.23,467.58 L 120.21,467.78 L 117.42,468.10 L 115.92,468.26 L 112.39,468.50 L 110.55,468.60 L 106.55,468.75 L 104.52,468.82 L 100.34,468.87 L 98.25,468.89 L 94.16,468.85 L 92.16,468.82 L 88.44,468.69 L 86.66,468.61 L 83.61,468.37 L 82.19,468.25 Z" fill="rgba(253,155,3,1)"/>
</g>
</svg>